G04*
G04 #@! TF.GenerationSoftware,Altium Limited,Altium Designer,20.1.14 (287)*
G04*
G04 Layer_Physical_Order=1*
G04 Layer_Color=255*
%FSLAX24Y24*%
%MOIN*%
G70*
G04*
G04 #@! TF.SameCoordinates,B8CB9E98-002D-4190-A2A2-B4F4F07DE0F0*
G04*
G04*
G04 #@! TF.FilePolarity,Positive*
G04*
G01*
G75*
%ADD10C,0.0100*%
G04:AMPARAMS|DCode=15|XSize=300mil|YSize=400mil|CornerRadius=0mil|HoleSize=0mil|Usage=FLASHONLY|Rotation=315.000|XOffset=0mil|YOffset=0mil|HoleType=Round|Shape=Rectangle|*
%AMROTATEDRECTD15*
4,1,4,-0.2475,-0.0354,0.0354,0.2475,0.2475,0.0354,-0.0354,-0.2475,-0.2475,-0.0354,0.0*
%
%ADD15ROTATEDRECTD15*%

G04:AMPARAMS|DCode=16|XSize=300mil|YSize=400mil|CornerRadius=0mil|HoleSize=0mil|Usage=FLASHONLY|Rotation=225.000|XOffset=0mil|YOffset=0mil|HoleType=Round|Shape=Rectangle|*
%AMROTATEDRECTD16*
4,1,4,-0.0354,0.2475,0.2475,-0.0354,0.0354,-0.2475,-0.2475,0.0354,-0.0354,0.2475,0.0*
%
%ADD16ROTATEDRECTD16*%

%ADD17R,0.3937X0.1969*%
%ADD32R,0.0600X0.0600*%
%ADD33C,0.0600*%
%ADD34R,0.0600X0.0600*%
%ADD35R,0.0602X0.0602*%
%ADD36C,0.0602*%
%ADD37C,0.0850*%
%ADD38C,0.0750*%
%ADD39C,0.0965*%
%ADD40C,0.1500*%
%ADD41C,0.0800*%
%ADD42C,0.1378*%
G36*
X37792Y58462D02*
X37974Y58386D01*
X38137Y58277D01*
X38277Y58137D01*
X38386Y57974D01*
X38462Y57792D01*
X38500Y57598D01*
Y57500D01*
Y50500D01*
Y50451D01*
X38481Y50354D01*
X38443Y50263D01*
X38388Y50181D01*
X38319Y50112D01*
X38237Y50057D01*
X38146Y50019D01*
X38049Y50000D01*
X32902D01*
X32708Y50038D01*
X32526Y50114D01*
X32363Y50223D01*
X32223Y50363D01*
X32114Y50526D01*
X32038Y50708D01*
X32000Y50902D01*
Y51000D01*
Y53500D01*
X31995Y53598D01*
X31957Y53790D01*
X31882Y53971D01*
X31773Y54134D01*
X31634Y54273D01*
X31471Y54382D01*
X31290Y54457D01*
X31098Y54495D01*
X31000Y54500D01*
X24902D01*
X24708Y54538D01*
X24526Y54614D01*
X24363Y54723D01*
X24223Y54863D01*
X24114Y55026D01*
X24038Y55208D01*
X24000Y55402D01*
Y55500D01*
Y58000D01*
Y58049D01*
X24019Y58146D01*
X24057Y58237D01*
X24112Y58319D01*
X24181Y58388D01*
X24263Y58443D01*
X24354Y58481D01*
X24451Y58500D01*
X37598D01*
X37792Y58462D01*
D02*
G37*
G36*
X8477Y37862D02*
X8659Y37786D01*
X8823Y37677D01*
X9224Y37276D01*
X9261Y37220D01*
X9287Y37158D01*
X9300Y37092D01*
Y37059D01*
Y32283D01*
Y32216D01*
X9274Y32084D01*
X9222Y31959D01*
X9148Y31848D01*
X9100Y31800D01*
X8716D01*
X8584Y31826D01*
X8459Y31878D01*
X8348Y31952D01*
X8300Y32000D01*
Y32617D01*
X8297Y32684D01*
X8271Y32815D01*
X8219Y32939D01*
X8145Y33050D01*
X8100Y33100D01*
X8075Y33122D01*
X8020Y33160D01*
X7958Y33185D01*
X7953Y33186D01*
Y33730D01*
X8002Y33751D01*
X8085Y33815D01*
X8149Y33898D01*
X8190Y33996D01*
X8203Y34100D01*
X8190Y34204D01*
X8149Y34302D01*
X8085Y34385D01*
X8002Y34449D01*
X7904Y34490D01*
X7800Y34503D01*
X7696Y34490D01*
X7598Y34449D01*
X7515Y34385D01*
X7451Y34302D01*
X7410Y34204D01*
X7397Y34100D01*
X7410Y33996D01*
X7451Y33898D01*
X7515Y33815D01*
X7598Y33751D01*
X7647Y33730D01*
Y33200D01*
X6953D01*
Y33730D01*
X7002Y33751D01*
X7085Y33815D01*
X7149Y33898D01*
X7190Y33996D01*
X7203Y34100D01*
X7190Y34204D01*
X7149Y34302D01*
X7085Y34385D01*
X7002Y34449D01*
X6904Y34490D01*
X6800Y34503D01*
X6696Y34490D01*
X6598Y34449D01*
X6515Y34385D01*
X6451Y34302D01*
X6410Y34204D01*
X6397Y34100D01*
X6410Y33996D01*
X6451Y33898D01*
X6515Y33815D01*
X6598Y33751D01*
X6647Y33730D01*
Y33200D01*
X5953D01*
Y33700D01*
X6200D01*
Y34500D01*
X5400D01*
Y33700D01*
X5647D01*
Y33200D01*
X2408D01*
X2342Y33213D01*
X2280Y33239D01*
X2224Y33276D01*
X2200Y33300D01*
X2183Y33317D01*
X2183D01*
X2116Y33384D01*
X2010Y33543D01*
X1937Y33718D01*
X1900Y33905D01*
Y34000D01*
Y36700D01*
X2807Y37607D01*
X2807Y37607D01*
Y37607D01*
X2877Y37677D01*
X3041Y37786D01*
X3223Y37862D01*
X3416Y37900D01*
X8284D01*
X8477Y37862D01*
D02*
G37*
G36*
X30399Y50943D02*
X30449Y50822D01*
X30483Y50696D01*
X30500Y50566D01*
X30500Y50500D01*
X30500Y37500D01*
Y37402D01*
X30462Y37208D01*
X30386Y37026D01*
X30277Y36863D01*
X30137Y36723D01*
X29974Y36614D01*
X29792Y36538D01*
X29598Y36500D01*
X24000D01*
X24000Y36500D01*
X23902Y36495D01*
X23710Y36457D01*
X23529Y36382D01*
X23366Y36273D01*
X23227Y36134D01*
X23118Y35971D01*
X23043Y35790D01*
X23005Y35598D01*
X23000Y35500D01*
Y31000D01*
Y30951D01*
X22981Y30854D01*
X22943Y30763D01*
X22888Y30681D01*
X22819Y30612D01*
X22737Y30557D01*
X22646Y30519D01*
X22549Y30500D01*
X20316D01*
X20201Y30615D01*
X20195Y30619D01*
X20094Y30742D01*
X20016Y30889D01*
X19967Y31049D01*
X19952Y31207D01*
X19953Y31214D01*
Y32029D01*
X20002Y32050D01*
X20086Y32114D01*
X20150Y32198D01*
X20191Y32295D01*
X20205Y32400D01*
X20191Y32505D01*
X20150Y32602D01*
X20086Y32686D01*
X20002Y32750D01*
X19953Y32771D01*
Y33730D01*
X20002Y33751D01*
X20085Y33815D01*
X20149Y33898D01*
X20190Y33996D01*
X20203Y34100D01*
X20190Y34204D01*
X20149Y34302D01*
X20085Y34385D01*
X20002Y34449D01*
X19904Y34490D01*
X19800Y34503D01*
X19696Y34490D01*
X19598Y34449D01*
X19515Y34385D01*
X19451Y34302D01*
X19410Y34204D01*
X19397Y34100D01*
X19410Y33996D01*
X19451Y33898D01*
X19515Y33815D01*
X19598Y33751D01*
X19647Y33730D01*
Y32771D01*
X19598Y32750D01*
X19514Y32686D01*
X19450Y32602D01*
X19409Y32505D01*
X19395Y32400D01*
X19409Y32295D01*
X19450Y32198D01*
X19514Y32114D01*
X19598Y32050D01*
X19647Y32029D01*
Y31214D01*
X19646D01*
X19661Y31034D01*
X19703Y30858D01*
X19772Y30691D01*
X19858Y30550D01*
X19838Y30500D01*
X18951D01*
X18854Y30519D01*
X18763Y30557D01*
X18681Y30612D01*
X18612Y30681D01*
X18557Y30763D01*
X18519Y30854D01*
X18500Y30951D01*
Y32062D01*
X18550Y32086D01*
X18598Y32050D01*
X18695Y32009D01*
X18750Y32002D01*
Y32400D01*
X18800D01*
Y32450D01*
X19198D01*
X19191Y32505D01*
X19150Y32602D01*
X19086Y32686D01*
X19002Y32750D01*
X18953Y32771D01*
Y33730D01*
X19002Y33751D01*
X19085Y33815D01*
X19149Y33898D01*
X19190Y33996D01*
X19197Y34050D01*
X18800D01*
Y34100D01*
X18750D01*
Y34497D01*
X18696Y34490D01*
X18598Y34449D01*
X18550Y34412D01*
X18500Y34437D01*
Y37000D01*
X19953Y37000D01*
X20000Y37000D01*
X20000Y37000D01*
X20000Y37000D01*
X20098Y37005D01*
X20290Y37043D01*
X20471Y37118D01*
X20634Y37227D01*
X20773Y37366D01*
X20882Y37529D01*
X20957Y37710D01*
X20995Y37902D01*
X21000Y38000D01*
X21000Y51000D01*
X30366D01*
X30399Y50943D01*
D02*
G37*
G36*
X7300Y32100D02*
X7788Y31612D01*
X7841Y31564D01*
X7959Y31486D01*
X8090Y31431D01*
X8229Y31403D01*
X8300Y31400D01*
X9500D01*
X9607Y31507D01*
X9607Y31507D01*
Y31507D01*
X9677Y31577D01*
X9841Y31686D01*
X10023Y31762D01*
X10216Y31800D01*
X11884D01*
X12077Y31762D01*
X12259Y31686D01*
X12423Y31577D01*
X12493Y31507D01*
X12517Y31483D01*
Y31483D01*
X12584Y31416D01*
X12690Y31257D01*
X12763Y31082D01*
X12800Y30895D01*
Y30800D01*
Y28183D01*
Y28116D01*
X12774Y27984D01*
X12722Y27859D01*
X12648Y27748D01*
X12600Y27700D01*
X12552Y27652D01*
X12441Y27578D01*
X12316Y27526D01*
X12184Y27500D01*
X11665D01*
X11655Y27550D01*
X11740Y27585D01*
X11839Y27661D01*
X11915Y27760D01*
X11963Y27876D01*
X11973Y27950D01*
X11027D01*
X11037Y27876D01*
X11085Y27760D01*
X11161Y27661D01*
X11260Y27585D01*
X11345Y27550D01*
X11335Y27500D01*
X10514D01*
X10416Y27495D01*
X10224Y27457D01*
X10043Y27382D01*
X9880Y27273D01*
X9807Y27207D01*
X9493Y26893D01*
Y26893D01*
X9427Y26820D01*
X9318Y26657D01*
X9245Y26480D01*
X9240Y26478D01*
X9192Y26496D01*
X9191Y26505D01*
X9150Y26602D01*
X9086Y26686D01*
X9002Y26750D01*
X8905Y26791D01*
X8850Y26798D01*
Y26400D01*
X8800D01*
Y26350D01*
X8402D01*
X8409Y26295D01*
X8450Y26198D01*
X8514Y26114D01*
X8597Y26050D01*
X8597Y26048D01*
X8587Y26000D01*
X8300D01*
Y27986D01*
X8295Y28084D01*
X8257Y28276D01*
X8182Y28457D01*
X8073Y28620D01*
X8007Y28693D01*
X6693Y30007D01*
X6623Y30077D01*
X6514Y30241D01*
X6438Y30423D01*
X6400Y30616D01*
Y30714D01*
Y32187D01*
X6448Y32197D01*
X6450Y32197D01*
X6514Y32114D01*
X6598Y32050D01*
X6695Y32009D01*
X6750Y32002D01*
Y32400D01*
X6800D01*
Y32450D01*
X7198D01*
X7191Y32505D01*
X7150Y32602D01*
X7086Y32686D01*
X7003Y32750D01*
X7003Y32752D01*
X7013Y32800D01*
X7300D01*
Y32100D01*
D02*
G37*
G36*
X55792Y42462D02*
X55974Y42386D01*
X56137Y42277D01*
X56277Y42137D01*
X56386Y41974D01*
X56462Y41792D01*
X56500Y41598D01*
Y41500D01*
Y26000D01*
Y25902D01*
X56462Y25708D01*
X56386Y25526D01*
X56277Y25363D01*
X56137Y25223D01*
X55974Y25114D01*
X55792Y25038D01*
X55598Y25000D01*
X53035D01*
X53016Y25046D01*
X53498Y25528D01*
X52048Y26978D01*
X50952Y25882D01*
X51788Y25046D01*
X51769Y25000D01*
X47902D01*
X47708Y25038D01*
X47526Y25114D01*
X47363Y25223D01*
X47223Y25363D01*
X47114Y25526D01*
X47038Y25708D01*
X47000Y25902D01*
Y26000D01*
Y41500D01*
Y41598D01*
X47038Y41792D01*
X47114Y41974D01*
X47223Y42137D01*
X47363Y42277D01*
X47526Y42386D01*
X47708Y42462D01*
X47902Y42500D01*
X55598D01*
X55792Y42462D01*
D02*
G37*
G36*
X41792Y23462D02*
X41974Y23386D01*
X42137Y23277D01*
X42277Y23137D01*
X42386Y22974D01*
X42462Y22792D01*
X42500Y22598D01*
Y22500D01*
Y8000D01*
Y7902D01*
X42462Y7708D01*
X42386Y7526D01*
X42277Y7363D01*
X42137Y7223D01*
X41974Y7114D01*
X41792Y7038D01*
X41677Y7016D01*
X41604Y7104D01*
X41475Y7210D01*
X41327Y7289D01*
X41167Y7338D01*
X41000Y7354D01*
X40833Y7338D01*
X40673Y7289D01*
X40525Y7210D01*
X40396Y7104D01*
X40311Y7000D01*
X30902D01*
X30708Y7038D01*
X30526Y7114D01*
X30363Y7223D01*
X30223Y7363D01*
X30114Y7526D01*
X30038Y7708D01*
X30000Y7902D01*
Y8000D01*
Y23000D01*
Y23049D01*
X30019Y23146D01*
X30057Y23237D01*
X30112Y23319D01*
X30181Y23388D01*
X30263Y23443D01*
X30354Y23481D01*
X30451Y23500D01*
X41598D01*
X41792Y23462D01*
D02*
G37*
%LPC*%
G36*
X29018Y56734D02*
X27000D01*
Y55700D01*
X29018D01*
Y56734D01*
D02*
G37*
G36*
X26900D02*
X24881D01*
Y55700D01*
X26900D01*
Y56734D01*
D02*
G37*
G36*
X29018Y55600D02*
X27000D01*
Y54566D01*
X29018D01*
Y55600D01*
D02*
G37*
G36*
X26900D02*
X24881D01*
Y54566D01*
X26900D01*
Y55600D01*
D02*
G37*
G36*
X36520Y54450D02*
X35071Y53000D01*
X36167Y51904D01*
X37616Y53354D01*
X37571Y53399D01*
X37604Y53436D01*
X37682Y53376D01*
X37804Y53326D01*
X37934Y53309D01*
X38065Y53326D01*
X38187Y53376D01*
X38291Y53457D01*
X38371Y53561D01*
X38422Y53683D01*
X38439Y53813D01*
X38422Y53944D01*
X38371Y54065D01*
X38291Y54170D01*
X38187Y54250D01*
X38065Y54300D01*
X37934Y54317D01*
X37804Y54300D01*
X37682Y54250D01*
X37578Y54170D01*
X37498Y54065D01*
X37447Y53944D01*
X37430Y53813D01*
X37447Y53683D01*
X37498Y53561D01*
X37558Y53483D01*
X37520Y53450D01*
X36520Y54450D01*
D02*
G37*
G36*
X35354Y55616D02*
X33904Y54167D01*
X35000Y53071D01*
X36450Y54520D01*
X35354Y55616D01*
D02*
G37*
G36*
X33833Y54096D02*
X32384Y52646D01*
X33480Y51550D01*
X34929Y53000D01*
X33833Y54096D01*
D02*
G37*
G36*
X35000Y52929D02*
X33550Y51480D01*
X34646Y50384D01*
X36096Y51833D01*
X35000Y52929D01*
D02*
G37*
G36*
X8550Y37573D02*
Y37150D01*
X8973D01*
X8963Y37224D01*
X8915Y37340D01*
X8839Y37439D01*
X8740Y37515D01*
X8624Y37563D01*
X8550Y37573D01*
D02*
G37*
G36*
X8450D02*
X8376Y37563D01*
X8260Y37515D01*
X8161Y37439D01*
X8085Y37340D01*
X8037Y37224D01*
X8027Y37150D01*
X8450D01*
Y37573D01*
D02*
G37*
G36*
X7050D02*
Y37150D01*
X7473D01*
X7463Y37224D01*
X7415Y37340D01*
X7339Y37439D01*
X7240Y37515D01*
X7124Y37563D01*
X7050Y37573D01*
D02*
G37*
G36*
X6950D02*
X6876Y37563D01*
X6760Y37515D01*
X6661Y37439D01*
X6585Y37340D01*
X6537Y37224D01*
X6527Y37150D01*
X6950D01*
Y37573D01*
D02*
G37*
G36*
X5550D02*
Y37150D01*
X5973D01*
X5963Y37224D01*
X5915Y37340D01*
X5839Y37439D01*
X5740Y37515D01*
X5624Y37563D01*
X5550Y37573D01*
D02*
G37*
G36*
X5450D02*
X5376Y37563D01*
X5260Y37515D01*
X5161Y37439D01*
X5085Y37340D01*
X5037Y37224D01*
X5027Y37150D01*
X5450D01*
Y37573D01*
D02*
G37*
G36*
X4050D02*
Y37150D01*
X4473D01*
X4463Y37224D01*
X4415Y37340D01*
X4339Y37439D01*
X4240Y37515D01*
X4124Y37563D01*
X4050Y37573D01*
D02*
G37*
G36*
X3950D02*
X3876Y37563D01*
X3760Y37515D01*
X3661Y37439D01*
X3585Y37340D01*
X3537Y37224D01*
X3527Y37150D01*
X3950D01*
Y37573D01*
D02*
G37*
G36*
X8973Y37050D02*
X8550D01*
Y36627D01*
X8624Y36637D01*
X8740Y36685D01*
X8839Y36761D01*
X8915Y36860D01*
X8963Y36976D01*
X8973Y37050D01*
D02*
G37*
G36*
X8450D02*
X8027D01*
X8037Y36976D01*
X8085Y36860D01*
X8161Y36761D01*
X8260Y36685D01*
X8376Y36637D01*
X8450Y36627D01*
Y37050D01*
D02*
G37*
G36*
X7473D02*
X7050D01*
Y36627D01*
X7124Y36637D01*
X7240Y36685D01*
X7339Y36761D01*
X7415Y36860D01*
X7463Y36976D01*
X7473Y37050D01*
D02*
G37*
G36*
X6950D02*
X6527D01*
X6537Y36976D01*
X6585Y36860D01*
X6661Y36761D01*
X6760Y36685D01*
X6876Y36637D01*
X6950Y36627D01*
Y37050D01*
D02*
G37*
G36*
X5973D02*
X5550D01*
Y36627D01*
X5624Y36637D01*
X5740Y36685D01*
X5839Y36761D01*
X5915Y36860D01*
X5963Y36976D01*
X5973Y37050D01*
D02*
G37*
G36*
X5450D02*
X5027D01*
X5037Y36976D01*
X5085Y36860D01*
X5161Y36761D01*
X5260Y36685D01*
X5376Y36637D01*
X5450Y36627D01*
Y37050D01*
D02*
G37*
G36*
X4473D02*
X4050D01*
Y36627D01*
X4124Y36637D01*
X4240Y36685D01*
X4339Y36761D01*
X4415Y36860D01*
X4463Y36976D01*
X4473Y37050D01*
D02*
G37*
G36*
X3950D02*
X3527D01*
X3537Y36976D01*
X3585Y36860D01*
X3661Y36761D01*
X3760Y36685D01*
X3876Y36637D01*
X3950Y36627D01*
Y37050D01*
D02*
G37*
G36*
X8550Y36073D02*
Y35650D01*
X8973D01*
X8963Y35724D01*
X8915Y35840D01*
X8839Y35939D01*
X8740Y36015D01*
X8624Y36063D01*
X8550Y36073D01*
D02*
G37*
G36*
X8450D02*
X8376Y36063D01*
X8260Y36015D01*
X8161Y35939D01*
X8085Y35840D01*
X8037Y35724D01*
X8027Y35650D01*
X8450D01*
Y36073D01*
D02*
G37*
G36*
X7050D02*
Y35650D01*
X7473D01*
X7463Y35724D01*
X7415Y35840D01*
X7339Y35939D01*
X7240Y36015D01*
X7124Y36063D01*
X7050Y36073D01*
D02*
G37*
G36*
X6950D02*
X6876Y36063D01*
X6760Y36015D01*
X6661Y35939D01*
X6585Y35840D01*
X6537Y35724D01*
X6527Y35650D01*
X6950D01*
Y36073D01*
D02*
G37*
G36*
X5550D02*
Y35650D01*
X5973D01*
X5963Y35724D01*
X5915Y35840D01*
X5839Y35939D01*
X5740Y36015D01*
X5624Y36063D01*
X5550Y36073D01*
D02*
G37*
G36*
X5450D02*
X5376Y36063D01*
X5260Y36015D01*
X5161Y35939D01*
X5085Y35840D01*
X5037Y35724D01*
X5027Y35650D01*
X5450D01*
Y36073D01*
D02*
G37*
G36*
X4050D02*
Y35650D01*
X4473D01*
X4463Y35724D01*
X4415Y35840D01*
X4339Y35939D01*
X4240Y36015D01*
X4124Y36063D01*
X4050Y36073D01*
D02*
G37*
G36*
X3950D02*
X3876Y36063D01*
X3760Y36015D01*
X3661Y35939D01*
X3585Y35840D01*
X3537Y35724D01*
X3527Y35650D01*
X3950D01*
Y36073D01*
D02*
G37*
G36*
X8973Y35550D02*
X8550D01*
Y35127D01*
X8624Y35137D01*
X8740Y35185D01*
X8839Y35261D01*
X8915Y35360D01*
X8963Y35476D01*
X8973Y35550D01*
D02*
G37*
G36*
X8450D02*
X8027D01*
X8037Y35476D01*
X8085Y35360D01*
X8161Y35261D01*
X8260Y35185D01*
X8376Y35137D01*
X8450Y35127D01*
Y35550D01*
D02*
G37*
G36*
X7473D02*
X7050D01*
Y35127D01*
X7124Y35137D01*
X7240Y35185D01*
X7339Y35261D01*
X7415Y35360D01*
X7463Y35476D01*
X7473Y35550D01*
D02*
G37*
G36*
X6950D02*
X6527D01*
X6537Y35476D01*
X6585Y35360D01*
X6661Y35261D01*
X6760Y35185D01*
X6876Y35137D01*
X6950Y35127D01*
Y35550D01*
D02*
G37*
G36*
X5973D02*
X5550D01*
Y35127D01*
X5624Y35137D01*
X5740Y35185D01*
X5839Y35261D01*
X5915Y35360D01*
X5963Y35476D01*
X5973Y35550D01*
D02*
G37*
G36*
X5450D02*
X5027D01*
X5037Y35476D01*
X5085Y35360D01*
X5161Y35261D01*
X5260Y35185D01*
X5376Y35137D01*
X5450Y35127D01*
Y35550D01*
D02*
G37*
G36*
X4473D02*
X4050D01*
Y35127D01*
X4124Y35137D01*
X4240Y35185D01*
X4339Y35261D01*
X4415Y35360D01*
X4463Y35476D01*
X4473Y35550D01*
D02*
G37*
G36*
X3950D02*
X3527D01*
X3537Y35476D01*
X3585Y35360D01*
X3661Y35261D01*
X3760Y35185D01*
X3876Y35137D01*
X3950Y35127D01*
Y35550D01*
D02*
G37*
G36*
X8850Y34497D02*
Y34150D01*
X9197D01*
X9190Y34204D01*
X9149Y34302D01*
X9085Y34385D01*
X9002Y34449D01*
X8904Y34490D01*
X8850Y34497D01*
D02*
G37*
G36*
X8750D02*
X8696Y34490D01*
X8598Y34449D01*
X8515Y34385D01*
X8451Y34302D01*
X8410Y34204D01*
X8403Y34150D01*
X8750D01*
Y34497D01*
D02*
G37*
G36*
X9197Y34050D02*
X8850D01*
Y33703D01*
X8904Y33710D01*
X9002Y33751D01*
X9085Y33815D01*
X9149Y33898D01*
X9190Y33996D01*
X9197Y34050D01*
D02*
G37*
G36*
X8750D02*
X8403D01*
X8410Y33996D01*
X8451Y33898D01*
X8515Y33815D01*
X8598Y33751D01*
X8696Y33710D01*
X8750Y33703D01*
Y34050D01*
D02*
G37*
G36*
X8850Y32798D02*
Y32450D01*
X9198D01*
X9191Y32505D01*
X9150Y32602D01*
X9086Y32686D01*
X9002Y32750D01*
X8905Y32791D01*
X8850Y32798D01*
D02*
G37*
G36*
X8750D02*
X8695Y32791D01*
X8598Y32750D01*
X8514Y32686D01*
X8450Y32602D01*
X8409Y32505D01*
X8402Y32450D01*
X8750D01*
Y32798D01*
D02*
G37*
G36*
X9198Y32350D02*
X8850D01*
Y32002D01*
X8905Y32009D01*
X9002Y32050D01*
X9086Y32114D01*
X9150Y32198D01*
X9191Y32295D01*
X9198Y32350D01*
D02*
G37*
G36*
X8750D02*
X8402D01*
X8409Y32295D01*
X8450Y32198D01*
X8514Y32114D01*
X8598Y32050D01*
X8695Y32009D01*
X8750Y32002D01*
Y32350D01*
D02*
G37*
G36*
X29018Y50734D02*
X27000D01*
Y49700D01*
X29018D01*
Y50734D01*
D02*
G37*
G36*
X26900D02*
X24881D01*
Y49700D01*
X26900D01*
Y50734D01*
D02*
G37*
G36*
X29018Y49600D02*
X27000D01*
Y48566D01*
X29018D01*
Y49600D01*
D02*
G37*
G36*
X26900D02*
X24881D01*
Y48566D01*
X26900D01*
Y49600D01*
D02*
G37*
G36*
X18850Y34497D02*
Y34150D01*
X19197D01*
X19190Y34204D01*
X19149Y34302D01*
X19085Y34385D01*
X19002Y34449D01*
X18904Y34490D01*
X18850Y34497D01*
D02*
G37*
G36*
X20800Y34503D02*
X20696Y34490D01*
X20598Y34449D01*
X20515Y34385D01*
X20451Y34302D01*
X20410Y34204D01*
X20397Y34100D01*
X20410Y33996D01*
X20451Y33898D01*
X20515Y33815D01*
X20598Y33751D01*
X20696Y33710D01*
X20800Y33697D01*
X20904Y33710D01*
X21002Y33751D01*
X21085Y33815D01*
X21149Y33898D01*
X21190Y33996D01*
X21203Y34100D01*
X21190Y34204D01*
X21149Y34302D01*
X21085Y34385D01*
X21002Y34449D01*
X20904Y34490D01*
X20800Y34503D01*
D02*
G37*
G36*
X19198Y32350D02*
X18850D01*
Y32002D01*
X18905Y32009D01*
X19002Y32050D01*
X19086Y32114D01*
X19150Y32198D01*
X19191Y32295D01*
X19198Y32350D01*
D02*
G37*
G36*
X7198D02*
X6850D01*
Y32002D01*
X6905Y32009D01*
X7002Y32050D01*
X7086Y32114D01*
X7150Y32198D01*
X7191Y32295D01*
X7198Y32350D01*
D02*
G37*
G36*
X11550Y31573D02*
Y31150D01*
X11973D01*
X11963Y31224D01*
X11915Y31340D01*
X11839Y31439D01*
X11740Y31515D01*
X11624Y31563D01*
X11550Y31573D01*
D02*
G37*
G36*
X11450D02*
X11376Y31563D01*
X11260Y31515D01*
X11161Y31439D01*
X11085Y31340D01*
X11037Y31224D01*
X11027Y31150D01*
X11450D01*
Y31573D01*
D02*
G37*
G36*
X11973Y31050D02*
X11550D01*
Y30627D01*
X11624Y30637D01*
X11740Y30685D01*
X11839Y30761D01*
X11915Y30860D01*
X11963Y30976D01*
X11973Y31050D01*
D02*
G37*
G36*
X11450D02*
X11027D01*
X11037Y30976D01*
X11085Y30860D01*
X11161Y30761D01*
X11260Y30685D01*
X11376Y30637D01*
X11450Y30627D01*
Y31050D01*
D02*
G37*
G36*
X11550Y29973D02*
Y29550D01*
X11973D01*
X11963Y29624D01*
X11915Y29740D01*
X11839Y29839D01*
X11740Y29915D01*
X11624Y29963D01*
X11550Y29973D01*
D02*
G37*
G36*
X11450D02*
X11376Y29963D01*
X11260Y29915D01*
X11161Y29839D01*
X11085Y29740D01*
X11037Y29624D01*
X11027Y29550D01*
X11450D01*
Y29973D01*
D02*
G37*
G36*
X11973Y29450D02*
X11550D01*
Y29027D01*
X11624Y29037D01*
X11740Y29085D01*
X11839Y29161D01*
X11915Y29260D01*
X11963Y29376D01*
X11973Y29450D01*
D02*
G37*
G36*
X11450D02*
X11027D01*
X11037Y29376D01*
X11085Y29260D01*
X11161Y29161D01*
X11260Y29085D01*
X11376Y29037D01*
X11450Y29027D01*
Y29450D01*
D02*
G37*
G36*
X11550Y28473D02*
Y28050D01*
X11973D01*
X11963Y28124D01*
X11915Y28240D01*
X11839Y28339D01*
X11740Y28415D01*
X11624Y28463D01*
X11550Y28473D01*
D02*
G37*
G36*
X11450D02*
X11376Y28463D01*
X11260Y28415D01*
X11161Y28339D01*
X11085Y28240D01*
X11037Y28124D01*
X11027Y28050D01*
X11450D01*
Y28473D01*
D02*
G37*
G36*
X8750Y26798D02*
X8695Y26791D01*
X8598Y26750D01*
X8514Y26686D01*
X8450Y26602D01*
X8409Y26505D01*
X8402Y26450D01*
X8750D01*
Y26798D01*
D02*
G37*
G36*
X52402Y38568D02*
X50952Y37118D01*
X52048Y36022D01*
X53498Y37472D01*
X52402Y38568D01*
D02*
G37*
G36*
X53569Y37401D02*
X52119Y35952D01*
X53215Y34856D01*
X54665Y36305D01*
X53569Y37401D01*
D02*
G37*
G36*
X50882Y37048D02*
X49432Y35598D01*
X50528Y34502D01*
X51978Y35952D01*
X50882Y37048D01*
D02*
G37*
G36*
X52048Y35881D02*
X50599Y34431D01*
X51695Y33335D01*
X53144Y34785D01*
X52048Y35881D01*
D02*
G37*
G36*
X51695Y29665D02*
X50599Y28569D01*
X52048Y27119D01*
X53144Y28215D01*
X51695Y29665D01*
D02*
G37*
G36*
X50528Y28498D02*
X49432Y27402D01*
X50882Y25952D01*
X51978Y27048D01*
X50528Y28498D01*
D02*
G37*
G36*
X53215Y28144D02*
X52119Y27048D01*
X53569Y25599D01*
X54665Y26695D01*
X53215Y28144D01*
D02*
G37*
G36*
X35543Y17965D02*
Y17543D01*
X35965D01*
X35955Y17617D01*
X35908Y17732D01*
X35831Y17831D01*
X35732Y17908D01*
X35617Y17955D01*
X35543Y17965D01*
D02*
G37*
G36*
X35443D02*
X35369Y17955D01*
X35253Y17908D01*
X35154Y17831D01*
X35078Y17732D01*
X35030Y17617D01*
X35020Y17543D01*
X35443D01*
Y17965D01*
D02*
G37*
G36*
X35965Y17443D02*
X35543D01*
Y17020D01*
X35617Y17030D01*
X35732Y17078D01*
X35831Y17154D01*
X35908Y17253D01*
X35955Y17369D01*
X35965Y17443D01*
D02*
G37*
G36*
X35443D02*
X35020D01*
X35030Y17369D01*
X35078Y17253D01*
X35154Y17154D01*
X35253Y17078D01*
X35369Y17030D01*
X35443Y17020D01*
Y17443D01*
D02*
G37*
G36*
X36957Y16551D02*
Y16128D01*
X37379D01*
X37370Y16202D01*
X37322Y16318D01*
X37246Y16417D01*
X37146Y16493D01*
X37031Y16541D01*
X36957Y16551D01*
D02*
G37*
G36*
X36857D02*
X36783Y16541D01*
X36667Y16493D01*
X36568Y16417D01*
X36492Y16318D01*
X36444Y16202D01*
X36434Y16128D01*
X36857D01*
Y16551D01*
D02*
G37*
G36*
X34128D02*
Y16128D01*
X34551D01*
X34541Y16202D01*
X34493Y16318D01*
X34417Y16417D01*
X34318Y16493D01*
X34202Y16541D01*
X34128Y16551D01*
D02*
G37*
G36*
X34028D02*
X33954Y16541D01*
X33839Y16493D01*
X33740Y16417D01*
X33664Y16318D01*
X33616Y16202D01*
X33606Y16128D01*
X34028D01*
Y16551D01*
D02*
G37*
G36*
X37379Y16028D02*
X36957D01*
Y15606D01*
X37031Y15616D01*
X37146Y15664D01*
X37246Y15740D01*
X37322Y15839D01*
X37370Y15954D01*
X37379Y16028D01*
D02*
G37*
G36*
X36857D02*
X36434D01*
X36444Y15954D01*
X36492Y15839D01*
X36568Y15740D01*
X36667Y15664D01*
X36783Y15616D01*
X36857Y15606D01*
Y16028D01*
D02*
G37*
G36*
X34551D02*
X34128D01*
Y15606D01*
X34202Y15616D01*
X34318Y15664D01*
X34417Y15740D01*
X34493Y15839D01*
X34541Y15954D01*
X34551Y16028D01*
D02*
G37*
G36*
X34028D02*
X33606D01*
X33616Y15954D01*
X33664Y15839D01*
X33740Y15740D01*
X33839Y15664D01*
X33954Y15616D01*
X34028Y15606D01*
Y16028D01*
D02*
G37*
G36*
X35543Y15137D02*
Y14714D01*
X35965D01*
X35955Y14788D01*
X35908Y14904D01*
X35831Y15003D01*
X35732Y15079D01*
X35617Y15127D01*
X35543Y15137D01*
D02*
G37*
G36*
X35443D02*
X35369Y15127D01*
X35253Y15079D01*
X35154Y15003D01*
X35078Y14904D01*
X35030Y14788D01*
X35020Y14714D01*
X35443D01*
Y15137D01*
D02*
G37*
G36*
X32714D02*
Y14714D01*
X33137D01*
X33127Y14788D01*
X33079Y14904D01*
X33003Y15003D01*
X32904Y15079D01*
X32788Y15127D01*
X32714Y15137D01*
D02*
G37*
G36*
X32614D02*
X32540Y15127D01*
X32425Y15079D01*
X32325Y15003D01*
X32249Y14904D01*
X32201Y14788D01*
X32192Y14714D01*
X32614D01*
Y15137D01*
D02*
G37*
G36*
X35965Y14614D02*
X35543D01*
Y14192D01*
X35617Y14201D01*
X35732Y14249D01*
X35831Y14325D01*
X35908Y14425D01*
X35955Y14540D01*
X35965Y14614D01*
D02*
G37*
G36*
X35443D02*
X35020D01*
X35030Y14540D01*
X35078Y14425D01*
X35154Y14325D01*
X35253Y14249D01*
X35369Y14201D01*
X35443Y14192D01*
Y14614D01*
D02*
G37*
G36*
X33137D02*
X32714D01*
Y14192D01*
X32788Y14201D01*
X32904Y14249D01*
X33003Y14325D01*
X33079Y14425D01*
X33127Y14540D01*
X33137Y14614D01*
D02*
G37*
G36*
X32614D02*
X32192D01*
X32201Y14540D01*
X32249Y14425D01*
X32325Y14325D01*
X32425Y14249D01*
X32540Y14201D01*
X32614Y14192D01*
Y14614D01*
D02*
G37*
G36*
X34128Y13723D02*
Y13300D01*
X34551D01*
X34541Y13374D01*
X34493Y13490D01*
X34417Y13589D01*
X34318Y13665D01*
X34202Y13713D01*
X34128Y13723D01*
D02*
G37*
G36*
X34028D02*
X33954Y13713D01*
X33839Y13665D01*
X33740Y13589D01*
X33664Y13490D01*
X33616Y13374D01*
X33606Y13300D01*
X34028D01*
Y13723D01*
D02*
G37*
G36*
X31300D02*
Y13300D01*
X31723D01*
X31713Y13374D01*
X31665Y13490D01*
X31589Y13589D01*
X31490Y13665D01*
X31374Y13713D01*
X31300Y13723D01*
D02*
G37*
G36*
X31200D02*
X31126Y13713D01*
X31010Y13665D01*
X30911Y13589D01*
X30835Y13490D01*
X30787Y13374D01*
X30777Y13300D01*
X31200D01*
Y13723D01*
D02*
G37*
G36*
X34551Y13200D02*
X34128D01*
Y12777D01*
X34202Y12787D01*
X34318Y12835D01*
X34417Y12911D01*
X34493Y13010D01*
X34541Y13126D01*
X34551Y13200D01*
D02*
G37*
G36*
X34028D02*
X33606D01*
X33616Y13126D01*
X33664Y13010D01*
X33740Y12911D01*
X33839Y12835D01*
X33954Y12787D01*
X34028Y12777D01*
Y13200D01*
D02*
G37*
G36*
X31723D02*
X31300D01*
Y12777D01*
X31374Y12787D01*
X31490Y12835D01*
X31589Y12911D01*
X31665Y13010D01*
X31713Y13126D01*
X31723Y13200D01*
D02*
G37*
G36*
X31200D02*
X30777D01*
X30787Y13126D01*
X30835Y13010D01*
X30911Y12911D01*
X31010Y12835D01*
X31126Y12787D01*
X31200Y12777D01*
Y13200D01*
D02*
G37*
G36*
X32714Y12308D02*
Y11886D01*
X33137D01*
X33127Y11960D01*
X33079Y12075D01*
X33003Y12175D01*
X32904Y12251D01*
X32788Y12299D01*
X32714Y12308D01*
D02*
G37*
G36*
X32614D02*
X32540Y12299D01*
X32425Y12251D01*
X32325Y12175D01*
X32249Y12075D01*
X32201Y11960D01*
X32192Y11886D01*
X32614D01*
Y12308D01*
D02*
G37*
G36*
X33137Y11786D02*
X32714D01*
Y11363D01*
X32788Y11373D01*
X32904Y11421D01*
X33003Y11497D01*
X33079Y11596D01*
X33127Y11712D01*
X33137Y11786D01*
D02*
G37*
G36*
X32614D02*
X32192D01*
X32201Y11712D01*
X32249Y11596D01*
X32325Y11497D01*
X32425Y11421D01*
X32540Y11373D01*
X32614Y11363D01*
Y11786D01*
D02*
G37*
G36*
X34646Y12616D02*
X33550Y11520D01*
X35000Y10071D01*
X36096Y11167D01*
X34646Y12616D01*
D02*
G37*
G36*
X33480Y11450D02*
X32384Y10354D01*
X33833Y8904D01*
X34929Y10000D01*
X33480Y11450D01*
D02*
G37*
G36*
X36167Y11096D02*
X35071Y10000D01*
X36520Y8550D01*
X37616Y9646D01*
X36167Y11096D01*
D02*
G37*
G36*
X35000Y9929D02*
X33904Y8833D01*
X35354Y7384D01*
X36450Y8480D01*
X35000Y9929D01*
D02*
G37*
%LPD*%
D10*
X17800Y26400D02*
G03*
X17760Y26360I0J-40D01*
G01*
X16800Y26400D02*
G03*
X16760Y26360I0J-40D01*
G01*
X15800Y26400D02*
G03*
X15760Y26360I0J-40D01*
G01*
X14800Y26400D02*
G03*
X14760Y26360I0J-40D01*
G01*
X13760Y24140D02*
G03*
X13800Y24180I0J40D01*
G01*
X11800Y26400D02*
G03*
X11760Y26360I0J-40D01*
G01*
X10800Y26400D02*
G03*
X10760Y26360I0J-40D01*
G01*
X9800Y26400D02*
G03*
X9760Y26360I0J-40D01*
G01*
X8760Y24140D02*
G03*
X8800Y24180I0J40D01*
G01*
X7760Y24140D02*
G03*
X7800Y24180I0J40D01*
G01*
X19800Y24100D02*
G03*
X20500Y23400I700J0D01*
G01*
X22850Y22400D02*
G03*
X21850Y23400I-1000J0D01*
G01*
Y21800D02*
G03*
X20850Y22800I-1000J0D01*
G01*
X18800Y23500D02*
G03*
X19500Y22800I700J0D01*
G01*
X12800Y23000D02*
G03*
X13700Y22100I900J0D01*
G01*
X20850Y21100D02*
G03*
X19850Y22100I-1000J0D01*
G01*
X11957Y14493D02*
G03*
X12664Y14200I707J707D01*
G01*
X23593Y17743D02*
G03*
X23300Y17036I707J-707D01*
G01*
X23007Y14607D02*
G03*
X23300Y15314I-707J707D01*
G01*
X18550Y45050D02*
G03*
X18671Y45000I121J121D01*
G01*
X16957Y44343D02*
G03*
X17664Y44050I707J707D01*
G01*
X11000Y14036D02*
G03*
X10707Y14743I-1000J0D01*
G01*
X19800Y31214D02*
G03*
X20093Y30507I1000J0D01*
G01*
X23850Y26336D02*
G03*
X23557Y27043I-1000J0D01*
G01*
X16093Y38393D02*
G03*
X15800Y37686I707J-707D01*
G01*
X18164Y40050D02*
G03*
X17457Y39757I0J-1000D01*
G01*
X12772Y39222D02*
G03*
X11800Y36876I2345J-2345D01*
G01*
X13826Y39426D02*
G03*
X12800Y36949I2477J-2477D01*
G01*
X14747Y38347D02*
G03*
X13800Y36062I2285J-2285D01*
G01*
X8626Y19324D02*
G03*
X10133Y18700I1507J1507D01*
G01*
X12210Y17840D02*
G03*
X10133Y18700I-2078J-2079D01*
G01*
X13200Y15683D02*
G03*
X12376Y17674I-2817J-0D01*
G01*
X12200Y15543D02*
G03*
X11432Y17398I-2622J-0D01*
G01*
D02*
G03*
X9977Y18000I-1455J-1457D01*
G01*
X5800Y22356D02*
G03*
X6794Y19956I3394J-0D01*
G01*
X6800Y22148D02*
G03*
X7506Y20444I2411J-0D01*
G01*
X17864Y41050D02*
G03*
X17157Y40757I0J-1000D01*
G01*
X18550Y41600D02*
G03*
X18632Y42492I0J450D01*
G01*
X18563Y42541D02*
G03*
X18632Y42492I87J50D01*
G01*
X16414Y41600D02*
G03*
X15707Y41307I0J-1000D01*
G01*
X16014Y42050D02*
G03*
X15307Y41757I0J-1000D01*
G01*
X8500Y18250D02*
G03*
X9104Y18000I604J604D01*
G01*
X19800Y31214D02*
Y32400D01*
Y34100D01*
X18800Y32400D02*
Y34100D01*
X17800Y32400D02*
Y34100D01*
X16800Y32400D02*
Y34100D01*
X15800D02*
Y37686D01*
Y32400D02*
Y34100D01*
X14800Y32400D02*
Y34100D01*
X10800Y32400D02*
Y34100D01*
X9800Y32400D02*
Y34100D01*
X6800Y32400D02*
Y34100D01*
X7800Y32400D02*
Y34100D01*
X5800Y32400D02*
Y34100D01*
X17760Y24140D02*
Y26360D01*
X16760Y24140D02*
Y26360D01*
X15760Y24140D02*
Y26360D01*
X14760Y24140D02*
Y26360D01*
X13800Y24180D02*
Y26400D01*
X11760Y24140D02*
Y26360D01*
X10760Y24140D02*
Y26360D01*
X9760Y24140D02*
Y26360D01*
X8800Y24180D02*
Y26400D01*
X7800Y24180D02*
Y26400D01*
X19800Y24100D02*
Y26400D01*
X20500Y23400D02*
X21850D01*
X22850Y21000D02*
Y22400D01*
X21850Y21000D02*
Y21800D01*
X18800Y23500D02*
Y26400D01*
X19500Y22800D02*
X20850D01*
X12800Y23000D02*
Y26400D01*
X13700Y22100D02*
X19850D01*
X20850Y21000D02*
Y21100D01*
X11200Y15250D02*
X11957Y14493D01*
X12664Y14200D02*
X19000D01*
X23593Y17743D02*
X26850Y21000D01*
X20300Y11900D02*
X23007Y14607D01*
X23300Y15314D02*
Y17036D01*
X18671Y45000D02*
X19800D01*
X17664Y44050D02*
X18550D01*
X15400Y45900D02*
X16957Y44343D01*
X10200Y15250D02*
X10707Y14743D01*
X11000Y13500D02*
Y14036D01*
X20093Y30507D02*
X23557Y27043D01*
X23850Y21000D02*
Y26336D01*
X16093Y38393D02*
X17457Y39757D01*
X18164Y40050D02*
X18550D01*
X12772Y39222D02*
X15307Y41757D01*
X11800Y32400D02*
Y36876D01*
X11800Y36876D02*
X11800Y36876D01*
X13826Y39426D02*
X15707Y41307D01*
X12800Y32400D02*
Y36948D01*
X12800Y36949D02*
X12800Y36948D01*
X14747Y38347D02*
X17157Y40757D01*
X13800Y32400D02*
Y36061D01*
X13800Y36062D02*
X13800Y36061D01*
X7507Y20443D02*
X8625Y19325D01*
X10133Y18700D02*
X10133Y18700D01*
X8625Y19325D02*
X8626Y19324D01*
X12212Y17838D02*
X12374Y17676D01*
X12210Y17840D02*
X12212Y17838D01*
X13200Y15250D02*
Y15683D01*
X13200Y15683D02*
X13200Y15683D01*
X12374Y17676D02*
X12376Y17674D01*
X12200Y15250D02*
Y15543D01*
X12200Y15543D02*
X12200Y15543D01*
X9104Y18000D02*
X9976D01*
X9977Y18000D01*
X5800Y22357D02*
Y26400D01*
X6795Y19955D02*
X8500Y18250D01*
X6794Y19956D02*
X6795Y19955D01*
X5800Y22356D02*
X5800Y22357D01*
X6800Y22149D02*
Y26400D01*
X7506Y20444D02*
X7507Y20443D01*
X6800Y22148D02*
X6800Y22149D01*
X17864Y41050D02*
X18550D01*
Y42564D02*
X18563Y42541D01*
X16414Y41600D02*
X18550D01*
Y42564D02*
Y43050D01*
X16014Y42050D02*
X18550D01*
D15*
X52048Y35952D02*
D03*
X35000Y53000D02*
D03*
D16*
X52048Y27048D02*
D03*
X35000Y10000D02*
D03*
D17*
X26950Y49650D02*
D03*
Y52650D02*
D03*
Y55650D02*
D03*
D32*
X26850Y21000D02*
D03*
X18550Y45050D02*
D03*
D33*
X25850Y21000D02*
D03*
X24850D02*
D03*
X23850D02*
D03*
X22850D02*
D03*
X21850D02*
D03*
X20850D02*
D03*
X20760Y24140D02*
D03*
X19760D02*
D03*
X18760D02*
D03*
X17760D02*
D03*
X16760D02*
D03*
X15760D02*
D03*
X14760D02*
D03*
X13760D02*
D03*
X12760D02*
D03*
X11760D02*
D03*
X10760D02*
D03*
X9760D02*
D03*
X8760D02*
D03*
X7760D02*
D03*
X6760D02*
D03*
X20800Y34100D02*
D03*
X19800D02*
D03*
X18800D02*
D03*
X17800D02*
D03*
X16800D02*
D03*
X15800D02*
D03*
X14800D02*
D03*
X13800D02*
D03*
X12800D02*
D03*
X11800D02*
D03*
X10800D02*
D03*
X9800D02*
D03*
X8800D02*
D03*
X7800D02*
D03*
X6800D02*
D03*
X18550Y44050D02*
D03*
Y43050D02*
D03*
Y42050D02*
D03*
Y41050D02*
D03*
Y40050D02*
D03*
X11200Y15250D02*
D03*
X12200D02*
D03*
X13200D02*
D03*
X14200D02*
D03*
X15200D02*
D03*
X16200D02*
D03*
X17200D02*
D03*
D34*
X5760Y24140D02*
D03*
X5800Y34100D02*
D03*
X10200Y15250D02*
D03*
D35*
X5800Y32400D02*
D03*
Y26400D02*
D03*
D36*
X6800Y32400D02*
D03*
X7800D02*
D03*
X8800D02*
D03*
X9800D02*
D03*
X10800D02*
D03*
X11800D02*
D03*
X12800D02*
D03*
X13800D02*
D03*
X14800D02*
D03*
X15800D02*
D03*
X16800D02*
D03*
X17800D02*
D03*
X18800D02*
D03*
X19800D02*
D03*
X6800Y26400D02*
D03*
X7800D02*
D03*
X8800D02*
D03*
X9800D02*
D03*
X10800D02*
D03*
X11800D02*
D03*
X12800D02*
D03*
X13800D02*
D03*
X14800D02*
D03*
X15800D02*
D03*
X16800D02*
D03*
X17800D02*
D03*
X18800D02*
D03*
X19800D02*
D03*
D37*
X21350Y15500D02*
D03*
X26350D02*
D03*
D38*
X5500Y35600D02*
D03*
X8500D02*
D03*
X5500Y37100D02*
D03*
X8500D02*
D03*
X4000Y35600D02*
D03*
X7000D02*
D03*
X4000Y37100D02*
D03*
X7000D02*
D03*
X19000Y14200D02*
D03*
X20300Y11900D02*
D03*
X19800Y45000D02*
D03*
X15400Y45900D02*
D03*
X11000Y13500D02*
D03*
X11500Y29500D02*
D03*
Y28000D02*
D03*
Y31100D02*
D03*
X35493Y17493D02*
D03*
X34078Y16078D02*
D03*
Y13250D02*
D03*
X36907Y16078D02*
D03*
X35493Y14664D02*
D03*
X32664Y11836D02*
D03*
X31250Y13250D02*
D03*
X32664Y14664D02*
D03*
D39*
X18050Y39050D02*
D03*
Y46050D02*
D03*
X32814D02*
D03*
Y39050D02*
D03*
D40*
X20000Y6500D02*
D03*
X41000D02*
D03*
Y54000D02*
D03*
X20000D02*
D03*
D41*
X37934Y53813D02*
D03*
X52862Y24114D02*
D03*
D42*
X10600Y19950D02*
D03*
X16800D02*
D03*
M02*
