G04*
G04 #@! TF.GenerationSoftware,Altium Limited,Altium Designer,20.1.14 (287)*
G04*
G04 Layer_Physical_Order=2*
G04 Layer_Color=16711680*
%FSLAX24Y24*%
%MOIN*%
G70*
G04*
G04 #@! TF.SameCoordinates,B8CB9E98-002D-4190-A2A2-B4F4F07DE0F0*
G04*
G04*
G04 #@! TF.FilePolarity,Positive*
G04*
G01*
G75*
%ADD10C,0.0100*%
%ADD32R,0.0600X0.0600*%
%ADD33C,0.0600*%
%ADD34R,0.0600X0.0600*%
%ADD35R,0.0602X0.0602*%
%ADD36C,0.0602*%
%ADD37C,0.0850*%
%ADD38C,0.0750*%
%ADD39C,0.0965*%
%ADD40C,0.1500*%
%ADD41C,0.0800*%
%ADD42C,0.1378*%
G36*
X31772Y58731D02*
X32797Y58658D01*
X33818Y58548D01*
X34834Y58402D01*
X35845Y58220D01*
X36849Y58001D01*
X37844Y57747D01*
X38830Y57458D01*
X39804Y57134D01*
X40767Y56775D01*
X41716Y56382D01*
X42650Y55955D01*
X43568Y55495D01*
X44470Y55003D01*
X45353Y54479D01*
X46217Y53924D01*
X47061Y53338D01*
X47883Y52722D01*
X48683Y52078D01*
X49459Y51405D01*
X50211Y50705D01*
X50937Y49979D01*
X51637Y49227D01*
X52310Y48451D01*
X52954Y47651D01*
X53570Y46829D01*
X54156Y45985D01*
X54711Y45121D01*
X55235Y44238D01*
X55727Y43336D01*
X56187Y42418D01*
X56614Y41483D01*
X57007Y40535D01*
X57366Y39572D01*
X57690Y38598D01*
X57979Y37612D01*
X58233Y36617D01*
X58452Y35613D01*
X58634Y34602D01*
X58780Y33586D01*
X58890Y32565D01*
X58963Y31540D01*
X59000Y30514D01*
Y30000D01*
Y29486D01*
X58963Y28460D01*
X58890Y27435D01*
X58780Y26414D01*
X58634Y25398D01*
X58452Y24387D01*
X58233Y23383D01*
X57979Y22388D01*
X57690Y21402D01*
X57366Y20428D01*
X57007Y19465D01*
X56614Y18516D01*
X56187Y17582D01*
X55727Y16664D01*
X55235Y15762D01*
X54711Y14879D01*
X54156Y14015D01*
X53570Y13171D01*
X52954Y12349D01*
X52310Y11549D01*
X51637Y10773D01*
X50937Y10021D01*
X50211Y9295D01*
X49459Y8595D01*
X48683Y7922D01*
X47883Y7278D01*
X47061Y6662D01*
X46217Y6076D01*
X45353Y5521D01*
X44470Y4997D01*
X43568Y4505D01*
X42650Y4045D01*
X41716Y3618D01*
X40767Y3225D01*
X39804Y2866D01*
X38830Y2542D01*
X37844Y2253D01*
X36849Y1999D01*
X35845Y1780D01*
X34834Y1598D01*
X33818Y1452D01*
X32797Y1342D01*
X31772Y1269D01*
X30746Y1232D01*
X30232D01*
X29718Y1232D01*
X28692Y1269D01*
X27667Y1342D01*
X26646Y1452D01*
X25630Y1598D01*
X24619Y1780D01*
X23615Y1999D01*
X22620Y2253D01*
X21634Y2542D01*
X20660Y2866D01*
X19697Y3225D01*
X18749Y3618D01*
X17814Y4045D01*
X16896Y4505D01*
X15994Y4997D01*
X15111Y5521D01*
X14247Y6076D01*
X13403Y6662D01*
X12581Y7278D01*
X11781Y7922D01*
X11005Y8595D01*
X10253Y9295D01*
X9527Y10021D01*
X8827Y10773D01*
X8154Y11549D01*
X7510Y12349D01*
X6894Y13171D01*
X6309Y14015D01*
X5753Y14879D01*
X5229Y15762D01*
X4737Y16664D01*
X4277Y17582D01*
X3850Y18516D01*
X3457Y19465D01*
X3098Y20428D01*
X2774Y21402D01*
X2485Y22388D01*
X2231Y23383D01*
X2012Y24387D01*
X1830Y25398D01*
X1684Y26414D01*
X1574Y27435D01*
X1501Y28460D01*
X1464Y29486D01*
Y30000D01*
Y30514D01*
X1501Y31540D01*
X1574Y32565D01*
X1684Y33586D01*
X1830Y34602D01*
X2012Y35613D01*
X2231Y36617D01*
X2485Y37612D01*
X2774Y38598D01*
X2774Y38598D01*
X7502D01*
X7506Y38599D01*
X7510Y38598D01*
X7513Y38598D01*
X7517Y38600D01*
X7521Y38599D01*
X7525Y38600D01*
X7526Y38600D01*
X7749Y38607D01*
X7753Y38607D01*
X7756Y38607D01*
X8216Y38655D01*
X8220Y38656D01*
X8224Y38656D01*
X8678Y38740D01*
X8682Y38741D01*
X8686Y38741D01*
X9133Y38860D01*
X9136Y38861D01*
X9140Y38862D01*
X9577Y39014D01*
X9580Y39016D01*
X9584Y39017D01*
X10007Y39202D01*
X10010Y39204D01*
X10014Y39205D01*
X10422Y39423D01*
X10425Y39425D01*
X10429Y39427D01*
X10819Y39674D01*
X10822Y39677D01*
X10825Y39679D01*
X11195Y39956D01*
X11198Y39959D01*
X11201Y39961D01*
X11548Y40266D01*
X11551Y40269D01*
X11554Y40271D01*
X11877Y40602D01*
X11879Y40605D01*
X11882Y40608D01*
X12179Y40962D01*
X12181Y40966D01*
X12184Y40968D01*
X12452Y41344D01*
X12454Y41348D01*
X12456Y41351D01*
X12695Y41747D01*
X12696Y41750D01*
X12699Y41754D01*
X12906Y42166D01*
X12907Y42170D01*
X12909Y42174D01*
X13084Y42601D01*
X13085Y42605D01*
X13087Y42609D01*
X13229Y43048D01*
X13229Y43052D01*
X13231Y43056D01*
X13338Y43505D01*
X13339Y43509D01*
X13340Y43513D01*
X13413Y43969D01*
X13412Y43973D01*
X13414Y43977D01*
X13451Y44438D01*
X13450Y44442D01*
X13451Y44446D01*
X13452Y44660D01*
X13453Y44661D01*
X13454Y44667D01*
X13454Y44673D01*
X13456Y44679D01*
X13457Y44685D01*
X13456Y44691D01*
X13458Y44697D01*
Y53376D01*
X14247Y53924D01*
X15111Y54479D01*
X15994Y55003D01*
X16896Y55495D01*
X17814Y55955D01*
X18749Y56382D01*
X19697Y56775D01*
X20660Y57134D01*
X21634Y57458D01*
X22620Y57747D01*
X23615Y58001D01*
X24619Y58220D01*
X25630Y58402D01*
X26646Y58548D01*
X27667Y58658D01*
X28692Y58731D01*
X29718Y58768D01*
X30746D01*
X31772Y58731D01*
D02*
G37*
%LPC*%
G36*
X37934Y54317D02*
X37804Y54300D01*
X37682Y54250D01*
X37578Y54170D01*
X37498Y54065D01*
X37447Y53944D01*
X37430Y53813D01*
X37447Y53683D01*
X37498Y53561D01*
X37578Y53457D01*
X37682Y53376D01*
X37804Y53326D01*
X37934Y53309D01*
X38065Y53326D01*
X38187Y53376D01*
X38291Y53457D01*
X38371Y53561D01*
X38422Y53683D01*
X38439Y53813D01*
X38422Y53944D01*
X38371Y54065D01*
X38291Y54170D01*
X38187Y54250D01*
X38065Y54300D01*
X37934Y54317D01*
D02*
G37*
G36*
X41000Y54854D02*
X40833Y54838D01*
X40673Y54789D01*
X40525Y54710D01*
X40396Y54604D01*
X40290Y54475D01*
X40211Y54327D01*
X40162Y54167D01*
X40146Y54000D01*
X40162Y53833D01*
X40211Y53673D01*
X40290Y53525D01*
X40396Y53396D01*
X40525Y53290D01*
X40673Y53211D01*
X40833Y53162D01*
X41000Y53146D01*
X41167Y53162D01*
X41327Y53211D01*
X41475Y53290D01*
X41604Y53396D01*
X41710Y53525D01*
X41789Y53673D01*
X41838Y53833D01*
X41854Y54000D01*
X41838Y54167D01*
X41789Y54327D01*
X41710Y54475D01*
X41604Y54604D01*
X41475Y54710D01*
X41327Y54789D01*
X41167Y54838D01*
X41000Y54854D01*
D02*
G37*
G36*
X20000D02*
X19833Y54838D01*
X19673Y54789D01*
X19525Y54710D01*
X19396Y54604D01*
X19290Y54475D01*
X19211Y54327D01*
X19162Y54167D01*
X19146Y54000D01*
X19162Y53833D01*
X19211Y53673D01*
X19290Y53525D01*
X19396Y53396D01*
X19525Y53290D01*
X19673Y53211D01*
X19833Y53162D01*
X20000Y53146D01*
X20167Y53162D01*
X20327Y53211D01*
X20475Y53290D01*
X20604Y53396D01*
X20710Y53525D01*
X20789Y53673D01*
X20838Y53833D01*
X20854Y54000D01*
X20838Y54167D01*
X20789Y54327D01*
X20710Y54475D01*
X20604Y54604D01*
X20475Y54710D01*
X20327Y54789D01*
X20167Y54838D01*
X20000Y54854D01*
D02*
G37*
G36*
X30779Y49799D02*
X29907D01*
X29035Y49761D01*
X28165Y49685D01*
X27300Y49571D01*
X26440Y49420D01*
X25588Y49231D01*
X24745Y49005D01*
X23913Y48742D01*
X23093Y48444D01*
X22286Y48110D01*
X21495Y47741D01*
X20721Y47338D01*
X19965Y46901D01*
X19229Y46433D01*
X18684Y46051D01*
X18633Y46076D01*
X18624Y46164D01*
X18591Y46274D01*
X18536Y46375D01*
X18464Y46464D01*
X18375Y46536D01*
X18274Y46591D01*
X18164Y46624D01*
X18050Y46635D01*
X17936Y46624D01*
X17826Y46591D01*
X17725Y46536D01*
X17636Y46464D01*
X17564Y46375D01*
X17509Y46274D01*
X17476Y46164D01*
X17465Y46050D01*
X17476Y45936D01*
X17509Y45826D01*
X17564Y45725D01*
X17636Y45636D01*
X17725Y45564D01*
X17826Y45509D01*
X17872Y45495D01*
X17881Y45446D01*
X17822Y45401D01*
X17153Y44840D01*
X16509Y44250D01*
X15892Y43633D01*
X15303Y42989D01*
X14742Y42321D01*
X14210Y41628D01*
X13710Y40913D01*
X13241Y40177D01*
X12804Y39421D01*
X12401Y38647D01*
X12032Y37856D01*
X11698Y37050D01*
X11400Y36229D01*
X11137Y35397D01*
X10912Y34554D01*
X10898Y34491D01*
X10800Y34503D01*
X10696Y34490D01*
X10598Y34449D01*
X10515Y34385D01*
X10451Y34302D01*
X10410Y34204D01*
X10397Y34100D01*
X10410Y33996D01*
X10451Y33898D01*
X10515Y33815D01*
X10598Y33751D01*
X10696Y33710D01*
X10715Y33657D01*
X10571Y32842D01*
X10555Y32717D01*
X10514Y32686D01*
X10450Y32602D01*
X10409Y32505D01*
X10395Y32400D01*
X10409Y32295D01*
X10450Y32198D01*
X10481Y32157D01*
X10457Y31977D01*
X10381Y31108D01*
X10343Y30236D01*
Y29799D01*
Y29363D01*
X10381Y28491D01*
X10457Y27621D01*
X10571Y26756D01*
X10575Y26733D01*
X10514Y26686D01*
X10450Y26602D01*
X10409Y26505D01*
X10395Y26400D01*
X10409Y26295D01*
X10450Y26198D01*
X10514Y26114D01*
X10598Y26050D01*
X10695Y26009D01*
X10703Y26008D01*
X10723Y25896D01*
X10912Y25044D01*
X11064Y24474D01*
X11020Y24445D01*
X10962Y24490D01*
X10865Y24530D01*
X10760Y24544D01*
X10656Y24530D01*
X10559Y24490D01*
X10475Y24426D01*
X10411Y24342D01*
X10371Y24245D01*
X10357Y24140D01*
X10371Y24036D01*
X10411Y23939D01*
X10475Y23855D01*
X10559Y23791D01*
X10656Y23751D01*
X10760Y23737D01*
X10865Y23751D01*
X10962Y23791D01*
X11046Y23855D01*
X11110Y23939D01*
X11143Y24018D01*
X11196Y24016D01*
X11400Y23369D01*
X11698Y22549D01*
X12032Y21742D01*
X12401Y20951D01*
X12804Y20177D01*
X13241Y19421D01*
X13710Y18685D01*
X14210Y17970D01*
X14742Y17278D01*
X15303Y16609D01*
X15892Y15966D01*
X16159Y15699D01*
X16141Y15646D01*
X16096Y15640D01*
X15998Y15599D01*
X15915Y15535D01*
X15851Y15452D01*
X15810Y15354D01*
X15797Y15250D01*
X15810Y15146D01*
X15851Y15048D01*
X15915Y14965D01*
X15998Y14901D01*
X16096Y14860D01*
X16200Y14847D01*
X16304Y14860D01*
X16402Y14901D01*
X16485Y14965D01*
X16549Y15048D01*
X16590Y15146D01*
X16597Y15201D01*
X16650Y15220D01*
X16883Y15007D01*
X16915Y14965D01*
X16998Y14901D01*
X17153Y14759D01*
X17822Y14198D01*
X18514Y13666D01*
X19229Y13166D01*
X19965Y12697D01*
X20516Y12379D01*
X20494Y12334D01*
X20424Y12363D01*
X20350Y12373D01*
Y11950D01*
X20773D01*
X20763Y12024D01*
X20715Y12140D01*
X20639Y12239D01*
X20579Y12285D01*
X20607Y12327D01*
X20721Y12260D01*
X21495Y11857D01*
X22286Y11489D01*
X23093Y11155D01*
X23913Y10856D01*
X24745Y10594D01*
X25588Y10368D01*
X26440Y10179D01*
X27300Y10027D01*
X28165Y9913D01*
X29035Y9837D01*
X29907Y9799D01*
X30779D01*
X31651Y9837D01*
X32521Y9913D01*
X33386Y10027D01*
X34246Y10179D01*
X35098Y10368D01*
X35941Y10594D01*
X36773Y10856D01*
X37594Y11155D01*
X38400Y11489D01*
X39191Y11857D01*
X39965Y12260D01*
X40721Y12697D01*
X41457Y13166D01*
X42172Y13666D01*
X42864Y14198D01*
X43533Y14759D01*
X44177Y15348D01*
X44794Y15966D01*
X45383Y16609D01*
X45944Y17278D01*
X46476Y17970D01*
X46976Y18685D01*
X47445Y19421D01*
X47882Y20177D01*
X48285Y20951D01*
X48654Y21742D01*
X48988Y22549D01*
X49286Y23369D01*
X49549Y24201D01*
X49775Y25044D01*
X49963Y25896D01*
X50115Y26756D01*
X50229Y27621D01*
X50305Y28491D01*
X50343Y29363D01*
Y29799D01*
Y30236D01*
X50305Y31108D01*
X50229Y31977D01*
X50115Y32842D01*
X49963Y33702D01*
X49775Y34554D01*
X49549Y35397D01*
X49286Y36229D01*
X48988Y37050D01*
X48654Y37856D01*
X48285Y38647D01*
X47882Y39421D01*
X47445Y40177D01*
X46976Y40913D01*
X46476Y41628D01*
X45944Y42321D01*
X45383Y42989D01*
X44794Y43633D01*
X44177Y44250D01*
X43533Y44840D01*
X42864Y45401D01*
X42172Y45932D01*
X41457Y46433D01*
X40721Y46901D01*
X39965Y47338D01*
X39191Y47741D01*
X38400Y48110D01*
X37594Y48444D01*
X36773Y48742D01*
X35941Y49005D01*
X35098Y49231D01*
X34246Y49420D01*
X33386Y49571D01*
X32521Y49685D01*
X31651Y49761D01*
X30779Y49799D01*
D02*
G37*
G36*
X15450Y46373D02*
Y45950D01*
X15873D01*
X15863Y46024D01*
X15815Y46140D01*
X15739Y46239D01*
X15640Y46315D01*
X15524Y46363D01*
X15450Y46373D01*
D02*
G37*
G36*
X15350D02*
X15276Y46363D01*
X15160Y46315D01*
X15061Y46239D01*
X14985Y46140D01*
X14937Y46024D01*
X14927Y45950D01*
X15350D01*
Y46373D01*
D02*
G37*
G36*
X15873Y45850D02*
X15450D01*
Y45427D01*
X15524Y45437D01*
X15640Y45485D01*
X15739Y45561D01*
X15815Y45660D01*
X15863Y45776D01*
X15873Y45850D01*
D02*
G37*
G36*
X15350D02*
X14927D01*
X14937Y45776D01*
X14985Y45660D01*
X15061Y45561D01*
X15160Y45485D01*
X15276Y45437D01*
X15350Y45427D01*
Y45850D01*
D02*
G37*
G36*
X8550Y37573D02*
Y37150D01*
X8973D01*
X8963Y37224D01*
X8915Y37340D01*
X8839Y37439D01*
X8740Y37515D01*
X8624Y37563D01*
X8550Y37573D01*
D02*
G37*
G36*
X8450D02*
X8376Y37563D01*
X8260Y37515D01*
X8161Y37439D01*
X8085Y37340D01*
X8037Y37224D01*
X8027Y37150D01*
X8450D01*
Y37573D01*
D02*
G37*
G36*
X7050D02*
Y37150D01*
X7473D01*
X7463Y37224D01*
X7415Y37340D01*
X7339Y37439D01*
X7240Y37515D01*
X7124Y37563D01*
X7050Y37573D01*
D02*
G37*
G36*
X6950D02*
X6876Y37563D01*
X6760Y37515D01*
X6661Y37439D01*
X6585Y37340D01*
X6537Y37224D01*
X6527Y37150D01*
X6950D01*
Y37573D01*
D02*
G37*
G36*
X5550D02*
Y37150D01*
X5973D01*
X5963Y37224D01*
X5915Y37340D01*
X5839Y37439D01*
X5740Y37515D01*
X5624Y37563D01*
X5550Y37573D01*
D02*
G37*
G36*
X5450D02*
X5376Y37563D01*
X5260Y37515D01*
X5161Y37439D01*
X5085Y37340D01*
X5037Y37224D01*
X5027Y37150D01*
X5450D01*
Y37573D01*
D02*
G37*
G36*
X4050D02*
Y37150D01*
X4473D01*
X4463Y37224D01*
X4415Y37340D01*
X4339Y37439D01*
X4240Y37515D01*
X4124Y37563D01*
X4050Y37573D01*
D02*
G37*
G36*
X3950D02*
X3876Y37563D01*
X3760Y37515D01*
X3661Y37439D01*
X3585Y37340D01*
X3537Y37224D01*
X3527Y37150D01*
X3950D01*
Y37573D01*
D02*
G37*
G36*
X8973Y37050D02*
X8550D01*
Y36627D01*
X8624Y36637D01*
X8740Y36685D01*
X8839Y36761D01*
X8915Y36860D01*
X8963Y36976D01*
X8973Y37050D01*
D02*
G37*
G36*
X8450D02*
X8027D01*
X8037Y36976D01*
X8085Y36860D01*
X8161Y36761D01*
X8260Y36685D01*
X8376Y36637D01*
X8450Y36627D01*
Y37050D01*
D02*
G37*
G36*
X7473D02*
X7050D01*
Y36627D01*
X7124Y36637D01*
X7240Y36685D01*
X7339Y36761D01*
X7415Y36860D01*
X7463Y36976D01*
X7473Y37050D01*
D02*
G37*
G36*
X6950D02*
X6527D01*
X6537Y36976D01*
X6585Y36860D01*
X6661Y36761D01*
X6760Y36685D01*
X6876Y36637D01*
X6950Y36627D01*
Y37050D01*
D02*
G37*
G36*
X5973D02*
X5550D01*
Y36627D01*
X5624Y36637D01*
X5740Y36685D01*
X5839Y36761D01*
X5915Y36860D01*
X5963Y36976D01*
X5973Y37050D01*
D02*
G37*
G36*
X5450D02*
X5027D01*
X5037Y36976D01*
X5085Y36860D01*
X5161Y36761D01*
X5260Y36685D01*
X5376Y36637D01*
X5450Y36627D01*
Y37050D01*
D02*
G37*
G36*
X4473D02*
X4050D01*
Y36627D01*
X4124Y36637D01*
X4240Y36685D01*
X4339Y36761D01*
X4415Y36860D01*
X4463Y36976D01*
X4473Y37050D01*
D02*
G37*
G36*
X3950D02*
X3527D01*
X3537Y36976D01*
X3585Y36860D01*
X3661Y36761D01*
X3760Y36685D01*
X3876Y36637D01*
X3950Y36627D01*
Y37050D01*
D02*
G37*
G36*
X8550Y36073D02*
Y35650D01*
X8973D01*
X8963Y35724D01*
X8915Y35840D01*
X8839Y35939D01*
X8740Y36015D01*
X8624Y36063D01*
X8550Y36073D01*
D02*
G37*
G36*
X8450D02*
X8376Y36063D01*
X8260Y36015D01*
X8161Y35939D01*
X8085Y35840D01*
X8037Y35724D01*
X8027Y35650D01*
X8450D01*
Y36073D01*
D02*
G37*
G36*
X7050D02*
Y35650D01*
X7473D01*
X7463Y35724D01*
X7415Y35840D01*
X7339Y35939D01*
X7240Y36015D01*
X7124Y36063D01*
X7050Y36073D01*
D02*
G37*
G36*
X6950D02*
X6876Y36063D01*
X6760Y36015D01*
X6661Y35939D01*
X6585Y35840D01*
X6537Y35724D01*
X6527Y35650D01*
X6950D01*
Y36073D01*
D02*
G37*
G36*
X5550D02*
Y35650D01*
X5973D01*
X5963Y35724D01*
X5915Y35840D01*
X5839Y35939D01*
X5740Y36015D01*
X5624Y36063D01*
X5550Y36073D01*
D02*
G37*
G36*
X5450D02*
X5376Y36063D01*
X5260Y36015D01*
X5161Y35939D01*
X5085Y35840D01*
X5037Y35724D01*
X5027Y35650D01*
X5450D01*
Y36073D01*
D02*
G37*
G36*
X4050D02*
Y35650D01*
X4473D01*
X4463Y35724D01*
X4415Y35840D01*
X4339Y35939D01*
X4240Y36015D01*
X4124Y36063D01*
X4050Y36073D01*
D02*
G37*
G36*
X3950D02*
X3876Y36063D01*
X3760Y36015D01*
X3661Y35939D01*
X3585Y35840D01*
X3537Y35724D01*
X3527Y35650D01*
X3950D01*
Y36073D01*
D02*
G37*
G36*
X8973Y35550D02*
X8550D01*
Y35127D01*
X8624Y35137D01*
X8740Y35185D01*
X8839Y35261D01*
X8915Y35360D01*
X8963Y35476D01*
X8973Y35550D01*
D02*
G37*
G36*
X8450D02*
X8027D01*
X8037Y35476D01*
X8085Y35360D01*
X8161Y35261D01*
X8260Y35185D01*
X8376Y35137D01*
X8450Y35127D01*
Y35550D01*
D02*
G37*
G36*
X7473D02*
X7050D01*
Y35127D01*
X7124Y35137D01*
X7240Y35185D01*
X7339Y35261D01*
X7415Y35360D01*
X7463Y35476D01*
X7473Y35550D01*
D02*
G37*
G36*
X6950D02*
X6527D01*
X6537Y35476D01*
X6585Y35360D01*
X6661Y35261D01*
X6760Y35185D01*
X6876Y35137D01*
X6950Y35127D01*
Y35550D01*
D02*
G37*
G36*
X5973D02*
X5550D01*
Y35127D01*
X5624Y35137D01*
X5740Y35185D01*
X5839Y35261D01*
X5915Y35360D01*
X5963Y35476D01*
X5973Y35550D01*
D02*
G37*
G36*
X5450D02*
X5027D01*
X5037Y35476D01*
X5085Y35360D01*
X5161Y35261D01*
X5260Y35185D01*
X5376Y35137D01*
X5450Y35127D01*
Y35550D01*
D02*
G37*
G36*
X4473D02*
X4050D01*
Y35127D01*
X4124Y35137D01*
X4240Y35185D01*
X4339Y35261D01*
X4415Y35360D01*
X4463Y35476D01*
X4473Y35550D01*
D02*
G37*
G36*
X3950D02*
X3527D01*
X3537Y35476D01*
X3585Y35360D01*
X3661Y35261D01*
X3760Y35185D01*
X3876Y35137D01*
X3950Y35127D01*
Y35550D01*
D02*
G37*
G36*
X8850Y34497D02*
Y34150D01*
X9197D01*
X9190Y34204D01*
X9149Y34302D01*
X9085Y34385D01*
X9002Y34449D01*
X8904Y34490D01*
X8850Y34497D01*
D02*
G37*
G36*
X8750D02*
X8696Y34490D01*
X8598Y34449D01*
X8515Y34385D01*
X8451Y34302D01*
X8410Y34204D01*
X8403Y34150D01*
X8750D01*
Y34497D01*
D02*
G37*
G36*
X9197Y34050D02*
X8850D01*
Y33703D01*
X8904Y33710D01*
X9002Y33751D01*
X9085Y33815D01*
X9149Y33898D01*
X9190Y33996D01*
X9197Y34050D01*
D02*
G37*
G36*
X8750D02*
X8403D01*
X8410Y33996D01*
X8451Y33898D01*
X8515Y33815D01*
X8598Y33751D01*
X8696Y33710D01*
X8750Y33703D01*
Y34050D01*
D02*
G37*
G36*
X6200Y34500D02*
X5400D01*
Y33700D01*
X6200D01*
Y34500D01*
D02*
G37*
G36*
X9800Y34503D02*
X9696Y34490D01*
X9598Y34449D01*
X9515Y34385D01*
X9451Y34302D01*
X9410Y34204D01*
X9397Y34100D01*
X9410Y33996D01*
X9451Y33898D01*
X9515Y33815D01*
X9598Y33751D01*
X9696Y33710D01*
X9800Y33697D01*
X9904Y33710D01*
X10002Y33751D01*
X10085Y33815D01*
X10149Y33898D01*
X10190Y33996D01*
X10203Y34100D01*
X10190Y34204D01*
X10149Y34302D01*
X10085Y34385D01*
X10002Y34449D01*
X9904Y34490D01*
X9800Y34503D01*
D02*
G37*
G36*
X7800D02*
X7696Y34490D01*
X7598Y34449D01*
X7515Y34385D01*
X7451Y34302D01*
X7410Y34204D01*
X7397Y34100D01*
X7410Y33996D01*
X7451Y33898D01*
X7515Y33815D01*
X7598Y33751D01*
X7696Y33710D01*
X7800Y33697D01*
X7904Y33710D01*
X8002Y33751D01*
X8085Y33815D01*
X8149Y33898D01*
X8190Y33996D01*
X8203Y34100D01*
X8190Y34204D01*
X8149Y34302D01*
X8085Y34385D01*
X8002Y34449D01*
X7904Y34490D01*
X7800Y34503D01*
D02*
G37*
G36*
X6800D02*
X6696Y34490D01*
X6598Y34449D01*
X6515Y34385D01*
X6451Y34302D01*
X6410Y34204D01*
X6397Y34100D01*
X6410Y33996D01*
X6451Y33898D01*
X6515Y33815D01*
X6598Y33751D01*
X6696Y33710D01*
X6800Y33697D01*
X6904Y33710D01*
X7002Y33751D01*
X7085Y33815D01*
X7149Y33898D01*
X7190Y33996D01*
X7203Y34100D01*
X7190Y34204D01*
X7149Y34302D01*
X7085Y34385D01*
X7002Y34449D01*
X6904Y34490D01*
X6800Y34503D01*
D02*
G37*
G36*
X8850Y32798D02*
Y32450D01*
X9198D01*
X9191Y32505D01*
X9150Y32602D01*
X9086Y32686D01*
X9002Y32750D01*
X8905Y32791D01*
X8850Y32798D01*
D02*
G37*
G36*
X8750D02*
X8695Y32791D01*
X8598Y32750D01*
X8514Y32686D01*
X8450Y32602D01*
X8409Y32505D01*
X8402Y32450D01*
X8750D01*
Y32798D01*
D02*
G37*
G36*
X9198Y32350D02*
X8850D01*
Y32002D01*
X8905Y32009D01*
X9002Y32050D01*
X9086Y32114D01*
X9150Y32198D01*
X9191Y32295D01*
X9198Y32350D01*
D02*
G37*
G36*
X8750D02*
X8402D01*
X8409Y32295D01*
X8450Y32198D01*
X8514Y32114D01*
X8598Y32050D01*
X8695Y32009D01*
X8750Y32002D01*
Y32350D01*
D02*
G37*
G36*
X6201Y32801D02*
X5399D01*
Y31999D01*
X6201D01*
Y32801D01*
D02*
G37*
G36*
X9800Y32805D02*
X9695Y32791D01*
X9598Y32750D01*
X9514Y32686D01*
X9450Y32602D01*
X9409Y32505D01*
X9395Y32400D01*
X9409Y32295D01*
X9450Y32198D01*
X9514Y32114D01*
X9598Y32050D01*
X9695Y32009D01*
X9800Y31995D01*
X9905Y32009D01*
X10002Y32050D01*
X10086Y32114D01*
X10150Y32198D01*
X10191Y32295D01*
X10205Y32400D01*
X10191Y32505D01*
X10150Y32602D01*
X10086Y32686D01*
X10002Y32750D01*
X9905Y32791D01*
X9800Y32805D01*
D02*
G37*
G36*
X7800D02*
X7695Y32791D01*
X7598Y32750D01*
X7514Y32686D01*
X7450Y32602D01*
X7409Y32505D01*
X7395Y32400D01*
X7409Y32295D01*
X7450Y32198D01*
X7514Y32114D01*
X7598Y32050D01*
X7695Y32009D01*
X7800Y31995D01*
X7905Y32009D01*
X8002Y32050D01*
X8086Y32114D01*
X8150Y32198D01*
X8191Y32295D01*
X8205Y32400D01*
X8191Y32505D01*
X8150Y32602D01*
X8086Y32686D01*
X8002Y32750D01*
X7905Y32791D01*
X7800Y32805D01*
D02*
G37*
G36*
X6800D02*
X6695Y32791D01*
X6598Y32750D01*
X6514Y32686D01*
X6450Y32602D01*
X6409Y32505D01*
X6395Y32400D01*
X6409Y32295D01*
X6450Y32198D01*
X6514Y32114D01*
X6598Y32050D01*
X6695Y32009D01*
X6800Y31995D01*
X6905Y32009D01*
X7002Y32050D01*
X7086Y32114D01*
X7150Y32198D01*
X7191Y32295D01*
X7205Y32400D01*
X7191Y32505D01*
X7150Y32602D01*
X7086Y32686D01*
X7002Y32750D01*
X6905Y32791D01*
X6800Y32805D01*
D02*
G37*
G36*
X6201Y26801D02*
X5399D01*
Y25999D01*
X6201D01*
Y26801D01*
D02*
G37*
G36*
X9800Y26805D02*
X9695Y26791D01*
X9598Y26750D01*
X9514Y26686D01*
X9450Y26602D01*
X9409Y26505D01*
X9395Y26400D01*
X9409Y26295D01*
X9450Y26198D01*
X9514Y26114D01*
X9598Y26050D01*
X9695Y26009D01*
X9800Y25995D01*
X9905Y26009D01*
X10002Y26050D01*
X10086Y26114D01*
X10150Y26198D01*
X10191Y26295D01*
X10205Y26400D01*
X10191Y26505D01*
X10150Y26602D01*
X10086Y26686D01*
X10002Y26750D01*
X9905Y26791D01*
X9800Y26805D01*
D02*
G37*
G36*
X8800D02*
X8695Y26791D01*
X8598Y26750D01*
X8514Y26686D01*
X8450Y26602D01*
X8409Y26505D01*
X8395Y26400D01*
X8409Y26295D01*
X8450Y26198D01*
X8514Y26114D01*
X8598Y26050D01*
X8695Y26009D01*
X8800Y25995D01*
X8905Y26009D01*
X9002Y26050D01*
X9086Y26114D01*
X9150Y26198D01*
X9191Y26295D01*
X9205Y26400D01*
X9191Y26505D01*
X9150Y26602D01*
X9086Y26686D01*
X9002Y26750D01*
X8905Y26791D01*
X8800Y26805D01*
D02*
G37*
G36*
X7800D02*
X7695Y26791D01*
X7598Y26750D01*
X7514Y26686D01*
X7450Y26602D01*
X7409Y26505D01*
X7395Y26400D01*
X7409Y26295D01*
X7450Y26198D01*
X7514Y26114D01*
X7598Y26050D01*
X7695Y26009D01*
X7800Y25995D01*
X7905Y26009D01*
X8002Y26050D01*
X8086Y26114D01*
X8150Y26198D01*
X8191Y26295D01*
X8205Y26400D01*
X8191Y26505D01*
X8150Y26602D01*
X8086Y26686D01*
X8002Y26750D01*
X7905Y26791D01*
X7800Y26805D01*
D02*
G37*
G36*
X6800D02*
X6695Y26791D01*
X6598Y26750D01*
X6514Y26686D01*
X6450Y26602D01*
X6409Y26505D01*
X6395Y26400D01*
X6409Y26295D01*
X6450Y26198D01*
X6514Y26114D01*
X6598Y26050D01*
X6695Y26009D01*
X6800Y25995D01*
X6905Y26009D01*
X7002Y26050D01*
X7086Y26114D01*
X7150Y26198D01*
X7191Y26295D01*
X7205Y26400D01*
X7191Y26505D01*
X7150Y26602D01*
X7086Y26686D01*
X7002Y26750D01*
X6905Y26791D01*
X6800Y26805D01*
D02*
G37*
G36*
X6160Y24540D02*
X5360D01*
Y23740D01*
X6160D01*
Y24540D01*
D02*
G37*
G36*
X9760Y24544D02*
X9656Y24530D01*
X9559Y24490D01*
X9475Y24426D01*
X9411Y24342D01*
X9371Y24245D01*
X9357Y24140D01*
X9371Y24036D01*
X9411Y23939D01*
X9475Y23855D01*
X9559Y23791D01*
X9656Y23751D01*
X9760Y23737D01*
X9865Y23751D01*
X9962Y23791D01*
X10046Y23855D01*
X10110Y23939D01*
X10150Y24036D01*
X10164Y24140D01*
X10150Y24245D01*
X10110Y24342D01*
X10046Y24426D01*
X9962Y24490D01*
X9865Y24530D01*
X9760Y24544D01*
D02*
G37*
G36*
X8760D02*
X8656Y24530D01*
X8558Y24490D01*
X8475Y24426D01*
X8411Y24342D01*
X8371Y24245D01*
X8357Y24140D01*
X8371Y24036D01*
X8411Y23939D01*
X8475Y23855D01*
X8558Y23791D01*
X8656Y23751D01*
X8760Y23737D01*
X8865Y23751D01*
X8962Y23791D01*
X9046Y23855D01*
X9110Y23939D01*
X9150Y24036D01*
X9164Y24140D01*
X9150Y24245D01*
X9110Y24342D01*
X9046Y24426D01*
X8962Y24490D01*
X8865Y24530D01*
X8760Y24544D01*
D02*
G37*
G36*
X7760D02*
X7656Y24530D01*
X7559Y24490D01*
X7475Y24426D01*
X7411Y24342D01*
X7371Y24245D01*
X7357Y24140D01*
X7371Y24036D01*
X7411Y23939D01*
X7475Y23855D01*
X7559Y23791D01*
X7656Y23751D01*
X7760Y23737D01*
X7865Y23751D01*
X7962Y23791D01*
X8046Y23855D01*
X8110Y23939D01*
X8150Y24036D01*
X8164Y24140D01*
X8150Y24245D01*
X8110Y24342D01*
X8046Y24426D01*
X7962Y24490D01*
X7865Y24530D01*
X7760Y24544D01*
D02*
G37*
G36*
X6760D02*
X6656Y24530D01*
X6558Y24490D01*
X6475Y24426D01*
X6411Y24342D01*
X6371Y24245D01*
X6357Y24140D01*
X6371Y24036D01*
X6411Y23939D01*
X6475Y23855D01*
X6558Y23791D01*
X6656Y23751D01*
X6760Y23737D01*
X6865Y23751D01*
X6962Y23791D01*
X7046Y23855D01*
X7110Y23939D01*
X7150Y24036D01*
X7164Y24140D01*
X7150Y24245D01*
X7110Y24342D01*
X7046Y24426D01*
X6962Y24490D01*
X6865Y24530D01*
X6760Y24544D01*
D02*
G37*
G36*
X52862Y24618D02*
X52731Y24601D01*
X52609Y24551D01*
X52505Y24470D01*
X52425Y24366D01*
X52374Y24244D01*
X52357Y24114D01*
X52374Y23983D01*
X52425Y23862D01*
X52505Y23757D01*
X52609Y23677D01*
X52731Y23627D01*
X52862Y23610D01*
X52992Y23627D01*
X53114Y23677D01*
X53218Y23757D01*
X53298Y23862D01*
X53349Y23983D01*
X53366Y24114D01*
X53349Y24244D01*
X53298Y24366D01*
X53218Y24470D01*
X53114Y24551D01*
X52992Y24601D01*
X52862Y24618D01*
D02*
G37*
G36*
X10600Y20743D02*
X10445Y20728D01*
X10297Y20682D01*
X10160Y20609D01*
X10039Y20511D01*
X9941Y20390D01*
X9868Y20253D01*
X9822Y20105D01*
X9807Y19950D01*
X9822Y19795D01*
X9868Y19647D01*
X9941Y19510D01*
X10039Y19389D01*
X10160Y19291D01*
X10297Y19218D01*
X10445Y19172D01*
X10600Y19157D01*
X10755Y19172D01*
X10903Y19218D01*
X11040Y19291D01*
X11161Y19389D01*
X11259Y19510D01*
X11332Y19647D01*
X11378Y19795D01*
X11393Y19950D01*
X11378Y20105D01*
X11332Y20253D01*
X11259Y20390D01*
X11161Y20511D01*
X11040Y20609D01*
X10903Y20682D01*
X10755Y20728D01*
X10600Y20743D01*
D02*
G37*
G36*
Y15650D02*
X10250D01*
Y15300D01*
X10600D01*
Y15650D01*
D02*
G37*
G36*
X10150D02*
X9800D01*
Y15300D01*
X10150D01*
Y15650D01*
D02*
G37*
G36*
X10600Y15200D02*
X10250D01*
Y14850D01*
X10600D01*
Y15200D01*
D02*
G37*
G36*
X10150D02*
X9800D01*
Y14850D01*
X10150D01*
Y15200D01*
D02*
G37*
G36*
X15200Y15653D02*
X15096Y15640D01*
X14998Y15599D01*
X14915Y15535D01*
X14851Y15452D01*
X14810Y15354D01*
X14797Y15250D01*
X14810Y15146D01*
X14851Y15048D01*
X14915Y14965D01*
X14998Y14901D01*
X15096Y14860D01*
X15200Y14847D01*
X15304Y14860D01*
X15402Y14901D01*
X15485Y14965D01*
X15549Y15048D01*
X15590Y15146D01*
X15603Y15250D01*
X15590Y15354D01*
X15549Y15452D01*
X15485Y15535D01*
X15402Y15599D01*
X15304Y15640D01*
X15200Y15653D01*
D02*
G37*
G36*
X14200D02*
X14096Y15640D01*
X13998Y15599D01*
X13915Y15535D01*
X13851Y15452D01*
X13810Y15354D01*
X13797Y15250D01*
X13810Y15146D01*
X13851Y15048D01*
X13915Y14965D01*
X13998Y14901D01*
X14096Y14860D01*
X14200Y14847D01*
X14304Y14860D01*
X14402Y14901D01*
X14485Y14965D01*
X14549Y15048D01*
X14590Y15146D01*
X14603Y15250D01*
X14590Y15354D01*
X14549Y15452D01*
X14485Y15535D01*
X14402Y15599D01*
X14304Y15640D01*
X14200Y15653D01*
D02*
G37*
G36*
X13200D02*
X13096Y15640D01*
X12998Y15599D01*
X12915Y15535D01*
X12851Y15452D01*
X12810Y15354D01*
X12797Y15250D01*
X12810Y15146D01*
X12851Y15048D01*
X12915Y14965D01*
X12998Y14901D01*
X13096Y14860D01*
X13200Y14847D01*
X13304Y14860D01*
X13402Y14901D01*
X13485Y14965D01*
X13549Y15048D01*
X13590Y15146D01*
X13603Y15250D01*
X13590Y15354D01*
X13549Y15452D01*
X13485Y15535D01*
X13402Y15599D01*
X13304Y15640D01*
X13200Y15653D01*
D02*
G37*
G36*
X12200D02*
X12096Y15640D01*
X11998Y15599D01*
X11915Y15535D01*
X11851Y15452D01*
X11810Y15354D01*
X11797Y15250D01*
X11810Y15146D01*
X11851Y15048D01*
X11915Y14965D01*
X11998Y14901D01*
X12096Y14860D01*
X12200Y14847D01*
X12304Y14860D01*
X12402Y14901D01*
X12485Y14965D01*
X12549Y15048D01*
X12590Y15146D01*
X12603Y15250D01*
X12590Y15354D01*
X12549Y15452D01*
X12485Y15535D01*
X12402Y15599D01*
X12304Y15640D01*
X12200Y15653D01*
D02*
G37*
G36*
X11200D02*
X11096Y15640D01*
X10998Y15599D01*
X10915Y15535D01*
X10851Y15452D01*
X10810Y15354D01*
X10797Y15250D01*
X10810Y15146D01*
X10851Y15048D01*
X10915Y14965D01*
X10998Y14901D01*
X11096Y14860D01*
X11200Y14847D01*
X11304Y14860D01*
X11402Y14901D01*
X11485Y14965D01*
X11549Y15048D01*
X11590Y15146D01*
X11603Y15250D01*
X11590Y15354D01*
X11549Y15452D01*
X11485Y15535D01*
X11402Y15599D01*
X11304Y15640D01*
X11200Y15653D01*
D02*
G37*
G36*
X11050Y13973D02*
Y13550D01*
X11473D01*
X11463Y13624D01*
X11415Y13740D01*
X11339Y13839D01*
X11240Y13915D01*
X11124Y13963D01*
X11050Y13973D01*
D02*
G37*
G36*
X10950D02*
X10876Y13963D01*
X10760Y13915D01*
X10661Y13839D01*
X10585Y13740D01*
X10537Y13624D01*
X10527Y13550D01*
X10950D01*
Y13973D01*
D02*
G37*
G36*
X11473Y13450D02*
X11050D01*
Y13027D01*
X11124Y13037D01*
X11240Y13085D01*
X11339Y13161D01*
X11415Y13260D01*
X11463Y13376D01*
X11473Y13450D01*
D02*
G37*
G36*
X10950D02*
X10527D01*
X10537Y13376D01*
X10585Y13260D01*
X10661Y13161D01*
X10760Y13085D01*
X10876Y13037D01*
X10950Y13027D01*
Y13450D01*
D02*
G37*
G36*
X20250Y12373D02*
X20176Y12363D01*
X20060Y12315D01*
X19961Y12239D01*
X19885Y12140D01*
X19837Y12024D01*
X19827Y11950D01*
X20250D01*
Y12373D01*
D02*
G37*
G36*
X20773Y11850D02*
X20350D01*
Y11427D01*
X20424Y11437D01*
X20540Y11485D01*
X20639Y11561D01*
X20715Y11660D01*
X20763Y11776D01*
X20773Y11850D01*
D02*
G37*
G36*
X20250D02*
X19827D01*
X19837Y11776D01*
X19885Y11660D01*
X19961Y11561D01*
X20060Y11485D01*
X20176Y11437D01*
X20250Y11427D01*
Y11850D01*
D02*
G37*
G36*
X41000Y7354D02*
X40833Y7338D01*
X40673Y7289D01*
X40525Y7210D01*
X40396Y7104D01*
X40290Y6975D01*
X40211Y6827D01*
X40162Y6667D01*
X40146Y6500D01*
X40162Y6333D01*
X40211Y6173D01*
X40290Y6025D01*
X40396Y5896D01*
X40525Y5790D01*
X40673Y5711D01*
X40833Y5662D01*
X41000Y5646D01*
X41167Y5662D01*
X41327Y5711D01*
X41475Y5790D01*
X41604Y5896D01*
X41710Y6025D01*
X41789Y6173D01*
X41838Y6333D01*
X41854Y6500D01*
X41838Y6667D01*
X41789Y6827D01*
X41710Y6975D01*
X41604Y7104D01*
X41475Y7210D01*
X41327Y7289D01*
X41167Y7338D01*
X41000Y7354D01*
D02*
G37*
G36*
X20000D02*
X19833Y7338D01*
X19673Y7289D01*
X19525Y7210D01*
X19396Y7104D01*
X19290Y6975D01*
X19211Y6827D01*
X19162Y6667D01*
X19146Y6500D01*
X19162Y6333D01*
X19211Y6173D01*
X19290Y6025D01*
X19396Y5896D01*
X19525Y5790D01*
X19673Y5711D01*
X19833Y5662D01*
X20000Y5646D01*
X20167Y5662D01*
X20327Y5711D01*
X20475Y5790D01*
X20604Y5896D01*
X20710Y6025D01*
X20789Y6173D01*
X20838Y6333D01*
X20854Y6500D01*
X20838Y6667D01*
X20789Y6827D01*
X20710Y6975D01*
X20604Y7104D01*
X20475Y7210D01*
X20327Y7289D01*
X20167Y7338D01*
X20000Y7354D01*
D02*
G37*
%LPD*%
G36*
X31480Y49046D02*
X32310Y48973D01*
X33136Y48864D01*
X33956Y48720D01*
X34769Y48540D01*
X35573Y48324D01*
X36367Y48074D01*
X37150Y47789D01*
X37919Y47470D01*
X38674Y47118D01*
X39412Y46734D01*
X40134Y46317D01*
X40836Y45870D01*
X41518Y45392D01*
X42179Y44885D01*
X42817Y44350D01*
X43431Y43787D01*
X44020Y43199D01*
X44582Y42585D01*
X45117Y41947D01*
X45624Y41286D01*
X46102Y40604D01*
X46549Y39902D01*
X46966Y39180D01*
X47350Y38442D01*
X47702Y37687D01*
X48021Y36918D01*
X48306Y36135D01*
X48556Y35341D01*
X48772Y34537D01*
X48952Y33724D01*
X49097Y32904D01*
X49205Y32078D01*
X49278Y31248D01*
X49314Y30416D01*
Y30000D01*
Y29584D01*
X49278Y28752D01*
X49205Y27922D01*
X49097Y27096D01*
X48952Y26276D01*
X48772Y25463D01*
X48556Y24659D01*
X48306Y23865D01*
X48021Y23082D01*
X47702Y22313D01*
X47350Y21558D01*
X46966Y20820D01*
X46549Y20098D01*
X46102Y19396D01*
X45624Y18714D01*
X45117Y18053D01*
X44582Y17415D01*
X44020Y16801D01*
X43431Y16213D01*
X42817Y15650D01*
X42179Y15115D01*
X41518Y14608D01*
X40836Y14130D01*
X40134Y13683D01*
X39412Y13266D01*
X38674Y12882D01*
X37919Y12530D01*
X37150Y12211D01*
X36367Y11926D01*
X35573Y11676D01*
X34769Y11460D01*
X33956Y11280D01*
X33136Y11136D01*
X32310Y11027D01*
X31480Y10954D01*
X30648Y10918D01*
X29816D01*
X28984Y10954D01*
X28154Y11027D01*
X27329Y11136D01*
X26508Y11280D01*
X25695Y11460D01*
X24891Y11676D01*
X24097Y11926D01*
X23314Y12211D01*
X22545Y12530D01*
X21790Y12882D01*
X21052Y13266D01*
X20330Y13683D01*
X19628Y14130D01*
X19474Y14238D01*
X19463Y14324D01*
X19415Y14440D01*
X19339Y14539D01*
X19240Y14615D01*
X19124Y14663D01*
X19050Y14673D01*
Y14200D01*
X18950D01*
Y14673D01*
X18876Y14663D01*
X18875Y14662D01*
X18285Y15115D01*
X17647Y15650D01*
X17033Y16213D01*
X16445Y16801D01*
X15882Y17415D01*
X15347Y18053D01*
X14840Y18714D01*
X14362Y19396D01*
X13915Y20098D01*
X13498Y20820D01*
X13114Y21558D01*
X12762Y22313D01*
X12443Y23082D01*
X12158Y23865D01*
X12124Y23973D01*
X12150Y24036D01*
X12164Y24140D01*
X12150Y24245D01*
X12110Y24342D01*
X12046Y24426D01*
X11962Y24490D01*
X11961Y24490D01*
X11908Y24659D01*
X11692Y25463D01*
X11571Y26011D01*
X11615Y26042D01*
X11695Y26009D01*
X11800Y25995D01*
X11905Y26009D01*
X12002Y26050D01*
X12086Y26114D01*
X12150Y26198D01*
X12191Y26295D01*
X12205Y26400D01*
X12191Y26505D01*
X12150Y26602D01*
X12086Y26686D01*
X12002Y26750D01*
X11905Y26791D01*
X11800Y26805D01*
X11695Y26791D01*
X11598Y26750D01*
X11514Y26686D01*
X11492Y26657D01*
X11443Y26669D01*
X11368Y27096D01*
X11312Y27517D01*
X11352Y27547D01*
X11376Y27537D01*
X11450Y27527D01*
Y28000D01*
Y28473D01*
X11376Y28463D01*
X11266Y28417D01*
X11231Y28427D01*
X11214Y28435D01*
X11186Y28752D01*
X11171Y29096D01*
X11216Y29120D01*
X11260Y29085D01*
X11376Y29037D01*
X11450Y29027D01*
Y29500D01*
Y29973D01*
X11376Y29963D01*
X11260Y29915D01*
X11200Y29868D01*
X11150Y29893D01*
Y30416D01*
X11163Y30704D01*
X11208Y30725D01*
X11260Y30685D01*
X11376Y30637D01*
X11450Y30627D01*
Y31100D01*
Y31573D01*
X11376Y31563D01*
X11260Y31515D01*
X11255Y31511D01*
X11211Y31535D01*
X11259Y32078D01*
X11368Y32904D01*
X11512Y33724D01*
X11520Y33758D01*
X11567Y33775D01*
X11598Y33751D01*
X11696Y33710D01*
X11800Y33697D01*
X11904Y33710D01*
X12002Y33751D01*
X12085Y33815D01*
X12149Y33898D01*
X12190Y33996D01*
X12203Y34100D01*
X12190Y34204D01*
X12149Y34302D01*
X12085Y34385D01*
X12002Y34449D01*
X11904Y34490D01*
X11800Y34503D01*
X11734Y34495D01*
X11692Y34537D01*
X11908Y35341D01*
X12158Y36135D01*
X12443Y36918D01*
X12762Y37687D01*
X13114Y38442D01*
X13498Y39180D01*
X13915Y39902D01*
X14362Y40604D01*
X14840Y41286D01*
X15347Y41947D01*
X15882Y42585D01*
X16445Y43199D01*
X17033Y43787D01*
X17647Y44350D01*
X18105Y44734D01*
X18150Y44713D01*
Y44650D01*
X18500D01*
Y45050D01*
X18550D01*
Y45100D01*
X18950D01*
Y45395D01*
X19628Y45870D01*
X20330Y46317D01*
X21052Y46734D01*
X21790Y47118D01*
X22545Y47470D01*
X23314Y47789D01*
X24097Y48074D01*
X24891Y48324D01*
X25695Y48540D01*
X26508Y48720D01*
X27329Y48864D01*
X28154Y48973D01*
X28984Y49046D01*
X29816Y49082D01*
X30648D01*
X31480Y49046D01*
D02*
G37*
%LPC*%
G36*
X32814Y46635D02*
X32700Y46624D01*
X32590Y46591D01*
X32489Y46536D01*
X32400Y46464D01*
X32327Y46375D01*
X32273Y46274D01*
X32240Y46164D01*
X32229Y46050D01*
X32240Y45936D01*
X32273Y45826D01*
X32327Y45725D01*
X32400Y45636D01*
X32489Y45564D01*
X32590Y45509D01*
X32700Y45476D01*
X32814Y45465D01*
X32928Y45476D01*
X33038Y45509D01*
X33139Y45564D01*
X33228Y45636D01*
X33300Y45725D01*
X33354Y45826D01*
X33388Y45936D01*
X33399Y46050D01*
X33388Y46164D01*
X33354Y46274D01*
X33300Y46375D01*
X33228Y46464D01*
X33139Y46536D01*
X33038Y46591D01*
X32928Y46624D01*
X32814Y46635D01*
D02*
G37*
G36*
X19850Y45473D02*
Y45050D01*
X20273D01*
X20263Y45124D01*
X20215Y45240D01*
X20139Y45339D01*
X20040Y45415D01*
X19924Y45463D01*
X19850Y45473D01*
D02*
G37*
G36*
X19750D02*
X19676Y45463D01*
X19560Y45415D01*
X19461Y45339D01*
X19385Y45240D01*
X19337Y45124D01*
X19327Y45050D01*
X19750D01*
Y45473D01*
D02*
G37*
G36*
X18950Y45000D02*
X18600D01*
Y44650D01*
X18950D01*
Y45000D01*
D02*
G37*
G36*
X20273Y44950D02*
X19850D01*
Y44527D01*
X19924Y44537D01*
X20040Y44585D01*
X20139Y44661D01*
X20215Y44760D01*
X20263Y44876D01*
X20273Y44950D01*
D02*
G37*
G36*
X19750D02*
X19327D01*
X19337Y44876D01*
X19385Y44760D01*
X19461Y44661D01*
X19560Y44585D01*
X19676Y44537D01*
X19750Y44527D01*
Y44950D01*
D02*
G37*
G36*
X18550Y44453D02*
X18446Y44440D01*
X18348Y44399D01*
X18265Y44335D01*
X18201Y44252D01*
X18160Y44154D01*
X18147Y44050D01*
X18160Y43946D01*
X18201Y43848D01*
X18265Y43765D01*
X18348Y43701D01*
X18446Y43660D01*
X18550Y43647D01*
X18654Y43660D01*
X18752Y43701D01*
X18835Y43765D01*
X18899Y43848D01*
X18940Y43946D01*
X18953Y44050D01*
X18940Y44154D01*
X18899Y44252D01*
X18835Y44335D01*
X18752Y44399D01*
X18654Y44440D01*
X18550Y44453D01*
D02*
G37*
G36*
Y43453D02*
X18446Y43440D01*
X18348Y43399D01*
X18265Y43335D01*
X18201Y43252D01*
X18160Y43154D01*
X18147Y43050D01*
X18160Y42946D01*
X18201Y42848D01*
X18265Y42765D01*
X18348Y42701D01*
X18446Y42660D01*
X18550Y42647D01*
X18654Y42660D01*
X18752Y42701D01*
X18835Y42765D01*
X18899Y42848D01*
X18940Y42946D01*
X18953Y43050D01*
X18940Y43154D01*
X18899Y43252D01*
X18835Y43335D01*
X18752Y43399D01*
X18654Y43440D01*
X18550Y43453D01*
D02*
G37*
G36*
Y42453D02*
X18446Y42440D01*
X18348Y42399D01*
X18265Y42335D01*
X18201Y42252D01*
X18160Y42154D01*
X18147Y42050D01*
X18160Y41946D01*
X18201Y41848D01*
X18265Y41765D01*
X18348Y41701D01*
X18446Y41660D01*
X18550Y41647D01*
X18654Y41660D01*
X18752Y41701D01*
X18835Y41765D01*
X18899Y41848D01*
X18940Y41946D01*
X18953Y42050D01*
X18940Y42154D01*
X18899Y42252D01*
X18835Y42335D01*
X18752Y42399D01*
X18654Y42440D01*
X18550Y42453D01*
D02*
G37*
G36*
Y41453D02*
X18446Y41440D01*
X18348Y41399D01*
X18265Y41335D01*
X18201Y41252D01*
X18160Y41154D01*
X18147Y41050D01*
X18160Y40946D01*
X18201Y40848D01*
X18265Y40765D01*
X18348Y40701D01*
X18446Y40660D01*
X18550Y40647D01*
X18654Y40660D01*
X18752Y40701D01*
X18835Y40765D01*
X18899Y40848D01*
X18940Y40946D01*
X18953Y41050D01*
X18940Y41154D01*
X18899Y41252D01*
X18835Y41335D01*
X18752Y41399D01*
X18654Y41440D01*
X18550Y41453D01*
D02*
G37*
G36*
Y40453D02*
X18446Y40440D01*
X18348Y40399D01*
X18265Y40335D01*
X18201Y40252D01*
X18160Y40154D01*
X18147Y40050D01*
X18160Y39946D01*
X18201Y39848D01*
X18265Y39765D01*
X18348Y39701D01*
X18446Y39660D01*
X18550Y39647D01*
X18654Y39660D01*
X18752Y39701D01*
X18835Y39765D01*
X18899Y39848D01*
X18940Y39946D01*
X18953Y40050D01*
X18940Y40154D01*
X18899Y40252D01*
X18835Y40335D01*
X18752Y40399D01*
X18654Y40440D01*
X18550Y40453D01*
D02*
G37*
G36*
X32814Y39635D02*
X32700Y39624D01*
X32590Y39591D01*
X32489Y39536D01*
X32400Y39464D01*
X32327Y39375D01*
X32273Y39274D01*
X32240Y39164D01*
X32229Y39050D01*
X32240Y38936D01*
X32273Y38826D01*
X32327Y38725D01*
X32400Y38636D01*
X32489Y38564D01*
X32590Y38509D01*
X32700Y38476D01*
X32814Y38465D01*
X32928Y38476D01*
X33038Y38509D01*
X33139Y38564D01*
X33228Y38636D01*
X33300Y38725D01*
X33354Y38826D01*
X33388Y38936D01*
X33399Y39050D01*
X33388Y39164D01*
X33354Y39274D01*
X33300Y39375D01*
X33228Y39464D01*
X33139Y39536D01*
X33038Y39591D01*
X32928Y39624D01*
X32814Y39635D01*
D02*
G37*
G36*
X18050D02*
X17936Y39624D01*
X17826Y39591D01*
X17725Y39536D01*
X17636Y39464D01*
X17564Y39375D01*
X17509Y39274D01*
X17476Y39164D01*
X17465Y39050D01*
X17476Y38936D01*
X17509Y38826D01*
X17564Y38725D01*
X17636Y38636D01*
X17725Y38564D01*
X17826Y38509D01*
X17936Y38476D01*
X18050Y38465D01*
X18164Y38476D01*
X18274Y38509D01*
X18375Y38564D01*
X18464Y38636D01*
X18536Y38725D01*
X18591Y38826D01*
X18624Y38936D01*
X18635Y39050D01*
X18624Y39164D01*
X18591Y39274D01*
X18536Y39375D01*
X18464Y39464D01*
X18375Y39536D01*
X18274Y39591D01*
X18164Y39624D01*
X18050Y39635D01*
D02*
G37*
G36*
X30000Y35957D02*
X30000Y35957D01*
X30000Y35957D01*
X29770Y35957D01*
X29766Y35957D01*
X29762Y35957D01*
X29303Y35921D01*
X29299Y35920D01*
X29295Y35920D01*
X28841Y35848D01*
X28837Y35847D01*
X28833Y35846D01*
X28385Y35739D01*
X28382Y35737D01*
X28378Y35737D01*
X27940Y35595D01*
X27936Y35593D01*
X27933Y35592D01*
X27507Y35416D01*
X27504Y35413D01*
X27500Y35412D01*
X27090Y35203D01*
X27087Y35201D01*
X27083Y35200D01*
X26691Y34959D01*
X26688Y34956D01*
X26684Y34955D01*
X26312Y34684D01*
X26309Y34681D01*
X26306Y34679D01*
X25956Y34380D01*
X25953Y34377D01*
X25950Y34375D01*
X25625Y34050D01*
X25622Y34046D01*
X25619Y34044D01*
X25320Y33694D01*
X25318Y33690D01*
X25316Y33688D01*
X25045Y33315D01*
X25043Y33312D01*
X25041Y33309D01*
X24800Y32916D01*
X24799Y32913D01*
X24796Y32909D01*
X24587Y32499D01*
X24586Y32496D01*
X24584Y32492D01*
X24408Y32067D01*
X24407Y32063D01*
X24405Y32060D01*
X24263Y31622D01*
X24263Y31618D01*
X24261Y31614D01*
X24154Y31167D01*
X24153Y31163D01*
X24152Y31159D01*
X24080Y30705D01*
X24080Y30700D01*
X24079Y30697D01*
X24043Y30238D01*
X24043Y30234D01*
X24043Y30230D01*
X24043Y29770D01*
X24043Y29766D01*
X24043Y29762D01*
X24079Y29303D01*
X24080Y29299D01*
X24080Y29295D01*
X24152Y28841D01*
X24153Y28837D01*
X24154Y28833D01*
X24261Y28385D01*
X24263Y28382D01*
X24263Y28378D01*
X24405Y27940D01*
X24407Y27937D01*
X24408Y27933D01*
X24584Y27508D01*
X24586Y27504D01*
X24588Y27500D01*
X24796Y27090D01*
X24799Y27087D01*
X24800Y27083D01*
X25041Y26691D01*
X25044Y26688D01*
X25045Y26684D01*
X25316Y26312D01*
X25319Y26309D01*
X25321Y26306D01*
X25619Y25956D01*
X25623Y25954D01*
X25625Y25950D01*
X25950Y25625D01*
X25954Y25623D01*
X25956Y25619D01*
X26306Y25321D01*
X26310Y25319D01*
X26312Y25316D01*
X26685Y25045D01*
X26688Y25043D01*
X26691Y25041D01*
X27084Y24800D01*
X27087Y24799D01*
X27090Y24796D01*
X27500Y24588D01*
X27504Y24586D01*
X27508Y24584D01*
X27933Y24408D01*
X27937Y24407D01*
X27940Y24405D01*
X28378Y24263D01*
X28382Y24263D01*
X28386Y24261D01*
X28833Y24154D01*
X28837Y24153D01*
X28841Y24152D01*
X29295Y24080D01*
X29299Y24080D01*
X29303Y24079D01*
X29762Y24043D01*
X29766Y24043D01*
X29770Y24043D01*
X30000D01*
X40000Y24043D01*
X40000Y24043D01*
X40003D01*
X40003Y24043D01*
X40003D01*
X40003Y24043D01*
X40003Y24043D01*
X40233Y24043D01*
X40237Y24044D01*
X40241Y24043D01*
X40700Y24079D01*
X40704Y24081D01*
X40708Y24080D01*
X41162Y24153D01*
X41166Y24154D01*
X41170Y24154D01*
X41617Y24262D01*
X41621Y24263D01*
X41625Y24264D01*
X42062Y24406D01*
X42066Y24408D01*
X42070Y24409D01*
X42495Y24585D01*
X42498Y24587D01*
X42502Y24589D01*
X42912Y24798D01*
X42915Y24800D01*
X42919Y24801D01*
X43311Y25042D01*
X43314Y25045D01*
X43317Y25046D01*
X43689Y25317D01*
X43692Y25320D01*
X43696Y25322D01*
X44045Y25621D01*
X44048Y25624D01*
X44051Y25626D01*
X44376Y25951D01*
X44378Y25955D01*
X44382Y25957D01*
X44680Y26307D01*
X44682Y26311D01*
X44685Y26313D01*
X44956Y26686D01*
X44957Y26689D01*
X44960Y26692D01*
X45200Y27084D01*
X45202Y27088D01*
X45204Y27091D01*
X45413Y27501D01*
X45414Y27505D01*
X45416Y27509D01*
X45592Y27934D01*
X45593Y27937D01*
X45595Y27941D01*
X45737Y28378D01*
X45737Y28382D01*
X45739Y28386D01*
X45847Y28833D01*
X45847Y28837D01*
X45848Y28841D01*
X45920Y29296D01*
X45920Y29300D01*
X45921Y29304D01*
X45957Y29762D01*
X45957Y29766D01*
X45957Y29770D01*
Y30230D01*
X45957Y30234D01*
X45957Y30238D01*
X45921Y30697D01*
X45920Y30701D01*
X45920Y30705D01*
X45848Y31159D01*
X45847Y31163D01*
X45846Y31167D01*
X45739Y31614D01*
X45737Y31618D01*
X45737Y31622D01*
X45595Y32060D01*
X45593Y32063D01*
X45592Y32067D01*
X45416Y32492D01*
X45414Y32496D01*
X45413Y32499D01*
X45204Y32909D01*
X45201Y32913D01*
X45200Y32916D01*
X44959Y33309D01*
X44957Y33312D01*
X44955Y33315D01*
X44684Y33688D01*
X44682Y33690D01*
X44680Y33694D01*
X44381Y34044D01*
X44378Y34046D01*
X44375Y34050D01*
X44050Y34375D01*
X44047Y34377D01*
X44044Y34380D01*
X43694Y34679D01*
X43691Y34681D01*
X43688Y34684D01*
X43316Y34955D01*
X43312Y34956D01*
X43309Y34959D01*
X42917Y35199D01*
X42913Y35201D01*
X42910Y35203D01*
X42500Y35412D01*
X42496Y35413D01*
X42493Y35416D01*
X42068Y35592D01*
X42064Y35593D01*
X42060Y35595D01*
X41623Y35737D01*
X41618Y35737D01*
X41615Y35739D01*
X41167Y35846D01*
X41163Y35846D01*
X41160Y35848D01*
X40705Y35920D01*
X40701Y35920D01*
X40697Y35921D01*
X40239Y35957D01*
X40235Y35957D01*
X40231Y35957D01*
X40001Y35957D01*
X40001Y35957D01*
X40001Y35957D01*
X30000D01*
X30000Y35957D01*
D02*
G37*
G36*
X20800Y34503D02*
X20696Y34490D01*
X20598Y34449D01*
X20515Y34385D01*
X20451Y34302D01*
X20410Y34204D01*
X20397Y34100D01*
X20410Y33996D01*
X20451Y33898D01*
X20515Y33815D01*
X20598Y33751D01*
X20696Y33710D01*
X20800Y33697D01*
X20904Y33710D01*
X21002Y33751D01*
X21085Y33815D01*
X21149Y33898D01*
X21190Y33996D01*
X21203Y34100D01*
X21190Y34204D01*
X21149Y34302D01*
X21085Y34385D01*
X21002Y34449D01*
X20904Y34490D01*
X20800Y34503D01*
D02*
G37*
G36*
X19800D02*
X19696Y34490D01*
X19598Y34449D01*
X19515Y34385D01*
X19451Y34302D01*
X19410Y34204D01*
X19397Y34100D01*
X19410Y33996D01*
X19451Y33898D01*
X19515Y33815D01*
X19598Y33751D01*
X19696Y33710D01*
X19800Y33697D01*
X19904Y33710D01*
X20002Y33751D01*
X20085Y33815D01*
X20149Y33898D01*
X20190Y33996D01*
X20203Y34100D01*
X20190Y34204D01*
X20149Y34302D01*
X20085Y34385D01*
X20002Y34449D01*
X19904Y34490D01*
X19800Y34503D01*
D02*
G37*
G36*
X18800D02*
X18696Y34490D01*
X18598Y34449D01*
X18515Y34385D01*
X18451Y34302D01*
X18410Y34204D01*
X18397Y34100D01*
X18410Y33996D01*
X18451Y33898D01*
X18515Y33815D01*
X18598Y33751D01*
X18696Y33710D01*
X18800Y33697D01*
X18904Y33710D01*
X19002Y33751D01*
X19085Y33815D01*
X19149Y33898D01*
X19190Y33996D01*
X19203Y34100D01*
X19190Y34204D01*
X19149Y34302D01*
X19085Y34385D01*
X19002Y34449D01*
X18904Y34490D01*
X18800Y34503D01*
D02*
G37*
G36*
X17800D02*
X17696Y34490D01*
X17598Y34449D01*
X17515Y34385D01*
X17451Y34302D01*
X17410Y34204D01*
X17397Y34100D01*
X17410Y33996D01*
X17451Y33898D01*
X17515Y33815D01*
X17598Y33751D01*
X17696Y33710D01*
X17800Y33697D01*
X17904Y33710D01*
X18002Y33751D01*
X18085Y33815D01*
X18149Y33898D01*
X18190Y33996D01*
X18203Y34100D01*
X18190Y34204D01*
X18149Y34302D01*
X18085Y34385D01*
X18002Y34449D01*
X17904Y34490D01*
X17800Y34503D01*
D02*
G37*
G36*
X16800D02*
X16696Y34490D01*
X16598Y34449D01*
X16515Y34385D01*
X16451Y34302D01*
X16410Y34204D01*
X16397Y34100D01*
X16410Y33996D01*
X16451Y33898D01*
X16515Y33815D01*
X16598Y33751D01*
X16696Y33710D01*
X16800Y33697D01*
X16904Y33710D01*
X17002Y33751D01*
X17085Y33815D01*
X17149Y33898D01*
X17190Y33996D01*
X17203Y34100D01*
X17190Y34204D01*
X17149Y34302D01*
X17085Y34385D01*
X17002Y34449D01*
X16904Y34490D01*
X16800Y34503D01*
D02*
G37*
G36*
X15800D02*
X15696Y34490D01*
X15598Y34449D01*
X15515Y34385D01*
X15451Y34302D01*
X15410Y34204D01*
X15397Y34100D01*
X15410Y33996D01*
X15451Y33898D01*
X15515Y33815D01*
X15598Y33751D01*
X15696Y33710D01*
X15800Y33697D01*
X15904Y33710D01*
X16002Y33751D01*
X16085Y33815D01*
X16149Y33898D01*
X16190Y33996D01*
X16203Y34100D01*
X16190Y34204D01*
X16149Y34302D01*
X16085Y34385D01*
X16002Y34449D01*
X15904Y34490D01*
X15800Y34503D01*
D02*
G37*
G36*
X14800D02*
X14696Y34490D01*
X14598Y34449D01*
X14515Y34385D01*
X14451Y34302D01*
X14410Y34204D01*
X14397Y34100D01*
X14410Y33996D01*
X14451Y33898D01*
X14515Y33815D01*
X14598Y33751D01*
X14696Y33710D01*
X14800Y33697D01*
X14904Y33710D01*
X15002Y33751D01*
X15085Y33815D01*
X15149Y33898D01*
X15190Y33996D01*
X15203Y34100D01*
X15190Y34204D01*
X15149Y34302D01*
X15085Y34385D01*
X15002Y34449D01*
X14904Y34490D01*
X14800Y34503D01*
D02*
G37*
G36*
X13800D02*
X13696Y34490D01*
X13598Y34449D01*
X13515Y34385D01*
X13451Y34302D01*
X13410Y34204D01*
X13397Y34100D01*
X13410Y33996D01*
X13451Y33898D01*
X13515Y33815D01*
X13598Y33751D01*
X13696Y33710D01*
X13800Y33697D01*
X13904Y33710D01*
X14002Y33751D01*
X14085Y33815D01*
X14149Y33898D01*
X14190Y33996D01*
X14203Y34100D01*
X14190Y34204D01*
X14149Y34302D01*
X14085Y34385D01*
X14002Y34449D01*
X13904Y34490D01*
X13800Y34503D01*
D02*
G37*
G36*
X12800D02*
X12696Y34490D01*
X12598Y34449D01*
X12515Y34385D01*
X12451Y34302D01*
X12410Y34204D01*
X12397Y34100D01*
X12410Y33996D01*
X12451Y33898D01*
X12515Y33815D01*
X12598Y33751D01*
X12696Y33710D01*
X12800Y33697D01*
X12904Y33710D01*
X13002Y33751D01*
X13085Y33815D01*
X13149Y33898D01*
X13190Y33996D01*
X13203Y34100D01*
X13190Y34204D01*
X13149Y34302D01*
X13085Y34385D01*
X13002Y34449D01*
X12904Y34490D01*
X12800Y34503D01*
D02*
G37*
G36*
X19800Y32805D02*
X19695Y32791D01*
X19598Y32750D01*
X19514Y32686D01*
X19450Y32602D01*
X19409Y32505D01*
X19395Y32400D01*
X19409Y32295D01*
X19450Y32198D01*
X19514Y32114D01*
X19598Y32050D01*
X19695Y32009D01*
X19800Y31995D01*
X19905Y32009D01*
X20002Y32050D01*
X20086Y32114D01*
X20150Y32198D01*
X20191Y32295D01*
X20205Y32400D01*
X20191Y32505D01*
X20150Y32602D01*
X20086Y32686D01*
X20002Y32750D01*
X19905Y32791D01*
X19800Y32805D01*
D02*
G37*
G36*
X18800D02*
X18695Y32791D01*
X18598Y32750D01*
X18514Y32686D01*
X18450Y32602D01*
X18409Y32505D01*
X18395Y32400D01*
X18409Y32295D01*
X18450Y32198D01*
X18514Y32114D01*
X18598Y32050D01*
X18695Y32009D01*
X18800Y31995D01*
X18905Y32009D01*
X19002Y32050D01*
X19086Y32114D01*
X19150Y32198D01*
X19191Y32295D01*
X19205Y32400D01*
X19191Y32505D01*
X19150Y32602D01*
X19086Y32686D01*
X19002Y32750D01*
X18905Y32791D01*
X18800Y32805D01*
D02*
G37*
G36*
X17800D02*
X17695Y32791D01*
X17598Y32750D01*
X17514Y32686D01*
X17450Y32602D01*
X17409Y32505D01*
X17395Y32400D01*
X17409Y32295D01*
X17450Y32198D01*
X17514Y32114D01*
X17598Y32050D01*
X17695Y32009D01*
X17800Y31995D01*
X17905Y32009D01*
X18002Y32050D01*
X18086Y32114D01*
X18150Y32198D01*
X18191Y32295D01*
X18205Y32400D01*
X18191Y32505D01*
X18150Y32602D01*
X18086Y32686D01*
X18002Y32750D01*
X17905Y32791D01*
X17800Y32805D01*
D02*
G37*
G36*
X16800D02*
X16695Y32791D01*
X16598Y32750D01*
X16514Y32686D01*
X16450Y32602D01*
X16409Y32505D01*
X16395Y32400D01*
X16409Y32295D01*
X16450Y32198D01*
X16514Y32114D01*
X16598Y32050D01*
X16695Y32009D01*
X16800Y31995D01*
X16905Y32009D01*
X17002Y32050D01*
X17086Y32114D01*
X17150Y32198D01*
X17191Y32295D01*
X17205Y32400D01*
X17191Y32505D01*
X17150Y32602D01*
X17086Y32686D01*
X17002Y32750D01*
X16905Y32791D01*
X16800Y32805D01*
D02*
G37*
G36*
X15800D02*
X15695Y32791D01*
X15598Y32750D01*
X15514Y32686D01*
X15450Y32602D01*
X15409Y32505D01*
X15395Y32400D01*
X15409Y32295D01*
X15450Y32198D01*
X15514Y32114D01*
X15598Y32050D01*
X15695Y32009D01*
X15800Y31995D01*
X15905Y32009D01*
X16002Y32050D01*
X16086Y32114D01*
X16150Y32198D01*
X16191Y32295D01*
X16205Y32400D01*
X16191Y32505D01*
X16150Y32602D01*
X16086Y32686D01*
X16002Y32750D01*
X15905Y32791D01*
X15800Y32805D01*
D02*
G37*
G36*
X14800D02*
X14695Y32791D01*
X14598Y32750D01*
X14514Y32686D01*
X14450Y32602D01*
X14409Y32505D01*
X14395Y32400D01*
X14409Y32295D01*
X14450Y32198D01*
X14514Y32114D01*
X14598Y32050D01*
X14695Y32009D01*
X14800Y31995D01*
X14905Y32009D01*
X15002Y32050D01*
X15086Y32114D01*
X15150Y32198D01*
X15191Y32295D01*
X15205Y32400D01*
X15191Y32505D01*
X15150Y32602D01*
X15086Y32686D01*
X15002Y32750D01*
X14905Y32791D01*
X14800Y32805D01*
D02*
G37*
G36*
X13800D02*
X13695Y32791D01*
X13598Y32750D01*
X13514Y32686D01*
X13450Y32602D01*
X13409Y32505D01*
X13395Y32400D01*
X13409Y32295D01*
X13450Y32198D01*
X13514Y32114D01*
X13598Y32050D01*
X13695Y32009D01*
X13800Y31995D01*
X13905Y32009D01*
X14002Y32050D01*
X14086Y32114D01*
X14150Y32198D01*
X14191Y32295D01*
X14205Y32400D01*
X14191Y32505D01*
X14150Y32602D01*
X14086Y32686D01*
X14002Y32750D01*
X13905Y32791D01*
X13800Y32805D01*
D02*
G37*
G36*
X12800D02*
X12695Y32791D01*
X12598Y32750D01*
X12514Y32686D01*
X12450Y32602D01*
X12409Y32505D01*
X12395Y32400D01*
X12409Y32295D01*
X12450Y32198D01*
X12514Y32114D01*
X12598Y32050D01*
X12695Y32009D01*
X12800Y31995D01*
X12905Y32009D01*
X13002Y32050D01*
X13086Y32114D01*
X13150Y32198D01*
X13191Y32295D01*
X13205Y32400D01*
X13191Y32505D01*
X13150Y32602D01*
X13086Y32686D01*
X13002Y32750D01*
X12905Y32791D01*
X12800Y32805D01*
D02*
G37*
G36*
X11800D02*
X11695Y32791D01*
X11598Y32750D01*
X11514Y32686D01*
X11450Y32602D01*
X11409Y32505D01*
X11395Y32400D01*
X11409Y32295D01*
X11450Y32198D01*
X11514Y32114D01*
X11598Y32050D01*
X11695Y32009D01*
X11800Y31995D01*
X11905Y32009D01*
X12002Y32050D01*
X12086Y32114D01*
X12150Y32198D01*
X12191Y32295D01*
X12205Y32400D01*
X12191Y32505D01*
X12150Y32602D01*
X12086Y32686D01*
X12002Y32750D01*
X11905Y32791D01*
X11800Y32805D01*
D02*
G37*
G36*
X11550Y31573D02*
Y31150D01*
X11973D01*
X11963Y31224D01*
X11915Y31340D01*
X11839Y31439D01*
X11740Y31515D01*
X11624Y31563D01*
X11550Y31573D01*
D02*
G37*
G36*
X11973Y31050D02*
X11550D01*
Y30627D01*
X11624Y30637D01*
X11740Y30685D01*
X11839Y30761D01*
X11915Y30860D01*
X11963Y30976D01*
X11973Y31050D01*
D02*
G37*
G36*
X11550Y29973D02*
Y29550D01*
X11973D01*
X11963Y29624D01*
X11915Y29740D01*
X11839Y29839D01*
X11740Y29915D01*
X11624Y29963D01*
X11550Y29973D01*
D02*
G37*
G36*
X11973Y29450D02*
X11550D01*
Y29027D01*
X11624Y29037D01*
X11740Y29085D01*
X11839Y29161D01*
X11915Y29260D01*
X11963Y29376D01*
X11973Y29450D01*
D02*
G37*
G36*
X11550Y28473D02*
Y28050D01*
X11973D01*
X11963Y28124D01*
X11915Y28240D01*
X11839Y28339D01*
X11740Y28415D01*
X11624Y28463D01*
X11550Y28473D01*
D02*
G37*
G36*
X11973Y27950D02*
X11550D01*
Y27527D01*
X11624Y27537D01*
X11740Y27585D01*
X11839Y27661D01*
X11915Y27760D01*
X11963Y27876D01*
X11973Y27950D01*
D02*
G37*
G36*
X19800Y26805D02*
X19695Y26791D01*
X19598Y26750D01*
X19514Y26686D01*
X19450Y26602D01*
X19409Y26505D01*
X19395Y26400D01*
X19409Y26295D01*
X19450Y26198D01*
X19514Y26114D01*
X19598Y26050D01*
X19695Y26009D01*
X19800Y25995D01*
X19905Y26009D01*
X20002Y26050D01*
X20086Y26114D01*
X20150Y26198D01*
X20191Y26295D01*
X20205Y26400D01*
X20191Y26505D01*
X20150Y26602D01*
X20086Y26686D01*
X20002Y26750D01*
X19905Y26791D01*
X19800Y26805D01*
D02*
G37*
G36*
X18800D02*
X18695Y26791D01*
X18598Y26750D01*
X18514Y26686D01*
X18450Y26602D01*
X18409Y26505D01*
X18395Y26400D01*
X18409Y26295D01*
X18450Y26198D01*
X18514Y26114D01*
X18598Y26050D01*
X18695Y26009D01*
X18800Y25995D01*
X18905Y26009D01*
X19002Y26050D01*
X19086Y26114D01*
X19150Y26198D01*
X19191Y26295D01*
X19205Y26400D01*
X19191Y26505D01*
X19150Y26602D01*
X19086Y26686D01*
X19002Y26750D01*
X18905Y26791D01*
X18800Y26805D01*
D02*
G37*
G36*
X17800D02*
X17695Y26791D01*
X17598Y26750D01*
X17514Y26686D01*
X17450Y26602D01*
X17409Y26505D01*
X17395Y26400D01*
X17409Y26295D01*
X17450Y26198D01*
X17514Y26114D01*
X17598Y26050D01*
X17695Y26009D01*
X17800Y25995D01*
X17905Y26009D01*
X18002Y26050D01*
X18086Y26114D01*
X18150Y26198D01*
X18191Y26295D01*
X18205Y26400D01*
X18191Y26505D01*
X18150Y26602D01*
X18086Y26686D01*
X18002Y26750D01*
X17905Y26791D01*
X17800Y26805D01*
D02*
G37*
G36*
X16800D02*
X16695Y26791D01*
X16598Y26750D01*
X16514Y26686D01*
X16450Y26602D01*
X16409Y26505D01*
X16395Y26400D01*
X16409Y26295D01*
X16450Y26198D01*
X16514Y26114D01*
X16598Y26050D01*
X16695Y26009D01*
X16800Y25995D01*
X16905Y26009D01*
X17002Y26050D01*
X17086Y26114D01*
X17150Y26198D01*
X17191Y26295D01*
X17205Y26400D01*
X17191Y26505D01*
X17150Y26602D01*
X17086Y26686D01*
X17002Y26750D01*
X16905Y26791D01*
X16800Y26805D01*
D02*
G37*
G36*
X15800D02*
X15695Y26791D01*
X15598Y26750D01*
X15514Y26686D01*
X15450Y26602D01*
X15409Y26505D01*
X15395Y26400D01*
X15409Y26295D01*
X15450Y26198D01*
X15514Y26114D01*
X15598Y26050D01*
X15695Y26009D01*
X15800Y25995D01*
X15905Y26009D01*
X16002Y26050D01*
X16086Y26114D01*
X16150Y26198D01*
X16191Y26295D01*
X16205Y26400D01*
X16191Y26505D01*
X16150Y26602D01*
X16086Y26686D01*
X16002Y26750D01*
X15905Y26791D01*
X15800Y26805D01*
D02*
G37*
G36*
X14800D02*
X14695Y26791D01*
X14598Y26750D01*
X14514Y26686D01*
X14450Y26602D01*
X14409Y26505D01*
X14395Y26400D01*
X14409Y26295D01*
X14450Y26198D01*
X14514Y26114D01*
X14598Y26050D01*
X14695Y26009D01*
X14800Y25995D01*
X14905Y26009D01*
X15002Y26050D01*
X15086Y26114D01*
X15150Y26198D01*
X15191Y26295D01*
X15205Y26400D01*
X15191Y26505D01*
X15150Y26602D01*
X15086Y26686D01*
X15002Y26750D01*
X14905Y26791D01*
X14800Y26805D01*
D02*
G37*
G36*
X13800D02*
X13695Y26791D01*
X13598Y26750D01*
X13514Y26686D01*
X13450Y26602D01*
X13409Y26505D01*
X13395Y26400D01*
X13409Y26295D01*
X13450Y26198D01*
X13514Y26114D01*
X13598Y26050D01*
X13695Y26009D01*
X13800Y25995D01*
X13905Y26009D01*
X14002Y26050D01*
X14086Y26114D01*
X14150Y26198D01*
X14191Y26295D01*
X14205Y26400D01*
X14191Y26505D01*
X14150Y26602D01*
X14086Y26686D01*
X14002Y26750D01*
X13905Y26791D01*
X13800Y26805D01*
D02*
G37*
G36*
X12800D02*
X12695Y26791D01*
X12598Y26750D01*
X12514Y26686D01*
X12450Y26602D01*
X12409Y26505D01*
X12395Y26400D01*
X12409Y26295D01*
X12450Y26198D01*
X12514Y26114D01*
X12598Y26050D01*
X12695Y26009D01*
X12800Y25995D01*
X12905Y26009D01*
X13002Y26050D01*
X13086Y26114D01*
X13150Y26198D01*
X13191Y26295D01*
X13205Y26400D01*
X13191Y26505D01*
X13150Y26602D01*
X13086Y26686D01*
X13002Y26750D01*
X12905Y26791D01*
X12800Y26805D01*
D02*
G37*
G36*
X20760Y24544D02*
X20656Y24530D01*
X20559Y24490D01*
X20475Y24426D01*
X20411Y24342D01*
X20371Y24245D01*
X20357Y24140D01*
X20371Y24036D01*
X20411Y23939D01*
X20475Y23855D01*
X20559Y23791D01*
X20656Y23751D01*
X20760Y23737D01*
X20865Y23751D01*
X20962Y23791D01*
X21046Y23855D01*
X21110Y23939D01*
X21150Y24036D01*
X21164Y24140D01*
X21150Y24245D01*
X21110Y24342D01*
X21046Y24426D01*
X20962Y24490D01*
X20865Y24530D01*
X20760Y24544D01*
D02*
G37*
G36*
X19760D02*
X19656Y24530D01*
X19559Y24490D01*
X19475Y24426D01*
X19411Y24342D01*
X19371Y24245D01*
X19357Y24140D01*
X19371Y24036D01*
X19411Y23939D01*
X19475Y23855D01*
X19559Y23791D01*
X19656Y23751D01*
X19760Y23737D01*
X19865Y23751D01*
X19962Y23791D01*
X20046Y23855D01*
X20110Y23939D01*
X20150Y24036D01*
X20164Y24140D01*
X20150Y24245D01*
X20110Y24342D01*
X20046Y24426D01*
X19962Y24490D01*
X19865Y24530D01*
X19760Y24544D01*
D02*
G37*
G36*
X18760D02*
X18656Y24530D01*
X18558Y24490D01*
X18475Y24426D01*
X18411Y24342D01*
X18371Y24245D01*
X18357Y24140D01*
X18371Y24036D01*
X18411Y23939D01*
X18475Y23855D01*
X18558Y23791D01*
X18656Y23751D01*
X18760Y23737D01*
X18865Y23751D01*
X18962Y23791D01*
X19046Y23855D01*
X19110Y23939D01*
X19150Y24036D01*
X19164Y24140D01*
X19150Y24245D01*
X19110Y24342D01*
X19046Y24426D01*
X18962Y24490D01*
X18865Y24530D01*
X18760Y24544D01*
D02*
G37*
G36*
X17760D02*
X17656Y24530D01*
X17558Y24490D01*
X17475Y24426D01*
X17411Y24342D01*
X17371Y24245D01*
X17357Y24140D01*
X17371Y24036D01*
X17411Y23939D01*
X17475Y23855D01*
X17558Y23791D01*
X17656Y23751D01*
X17760Y23737D01*
X17865Y23751D01*
X17962Y23791D01*
X18046Y23855D01*
X18110Y23939D01*
X18150Y24036D01*
X18164Y24140D01*
X18150Y24245D01*
X18110Y24342D01*
X18046Y24426D01*
X17962Y24490D01*
X17865Y24530D01*
X17760Y24544D01*
D02*
G37*
G36*
X16760D02*
X16656Y24530D01*
X16559Y24490D01*
X16475Y24426D01*
X16411Y24342D01*
X16371Y24245D01*
X16357Y24140D01*
X16371Y24036D01*
X16411Y23939D01*
X16475Y23855D01*
X16559Y23791D01*
X16656Y23751D01*
X16760Y23737D01*
X16865Y23751D01*
X16962Y23791D01*
X17046Y23855D01*
X17110Y23939D01*
X17150Y24036D01*
X17164Y24140D01*
X17150Y24245D01*
X17110Y24342D01*
X17046Y24426D01*
X16962Y24490D01*
X16865Y24530D01*
X16760Y24544D01*
D02*
G37*
G36*
X15760D02*
X15656Y24530D01*
X15559Y24490D01*
X15475Y24426D01*
X15411Y24342D01*
X15371Y24245D01*
X15357Y24140D01*
X15371Y24036D01*
X15411Y23939D01*
X15475Y23855D01*
X15559Y23791D01*
X15656Y23751D01*
X15760Y23737D01*
X15865Y23751D01*
X15962Y23791D01*
X16046Y23855D01*
X16110Y23939D01*
X16150Y24036D01*
X16164Y24140D01*
X16150Y24245D01*
X16110Y24342D01*
X16046Y24426D01*
X15962Y24490D01*
X15865Y24530D01*
X15760Y24544D01*
D02*
G37*
G36*
X14760D02*
X14656Y24530D01*
X14559Y24490D01*
X14475Y24426D01*
X14411Y24342D01*
X14371Y24245D01*
X14357Y24140D01*
X14371Y24036D01*
X14411Y23939D01*
X14475Y23855D01*
X14559Y23791D01*
X14656Y23751D01*
X14760Y23737D01*
X14865Y23751D01*
X14962Y23791D01*
X15046Y23855D01*
X15110Y23939D01*
X15150Y24036D01*
X15164Y24140D01*
X15150Y24245D01*
X15110Y24342D01*
X15046Y24426D01*
X14962Y24490D01*
X14865Y24530D01*
X14760Y24544D01*
D02*
G37*
G36*
X13760D02*
X13656Y24530D01*
X13558Y24490D01*
X13475Y24426D01*
X13411Y24342D01*
X13371Y24245D01*
X13357Y24140D01*
X13371Y24036D01*
X13411Y23939D01*
X13475Y23855D01*
X13558Y23791D01*
X13656Y23751D01*
X13760Y23737D01*
X13865Y23751D01*
X13962Y23791D01*
X14046Y23855D01*
X14110Y23939D01*
X14150Y24036D01*
X14164Y24140D01*
X14150Y24245D01*
X14110Y24342D01*
X14046Y24426D01*
X13962Y24490D01*
X13865Y24530D01*
X13760Y24544D01*
D02*
G37*
G36*
X12760D02*
X12656Y24530D01*
X12558Y24490D01*
X12475Y24426D01*
X12411Y24342D01*
X12371Y24245D01*
X12357Y24140D01*
X12371Y24036D01*
X12411Y23939D01*
X12475Y23855D01*
X12558Y23791D01*
X12656Y23751D01*
X12760Y23737D01*
X12865Y23751D01*
X12962Y23791D01*
X13046Y23855D01*
X13110Y23939D01*
X13150Y24036D01*
X13164Y24140D01*
X13150Y24245D01*
X13110Y24342D01*
X13046Y24426D01*
X12962Y24490D01*
X12865Y24530D01*
X12760Y24544D01*
D02*
G37*
G36*
X24900Y21397D02*
Y21050D01*
X25247D01*
X25240Y21104D01*
X25199Y21202D01*
X25135Y21285D01*
X25052Y21349D01*
X24954Y21390D01*
X24900Y21397D01*
D02*
G37*
G36*
X24800D02*
X24746Y21390D01*
X24648Y21349D01*
X24565Y21285D01*
X24501Y21202D01*
X24460Y21104D01*
X24453Y21050D01*
X24800D01*
Y21397D01*
D02*
G37*
G36*
X25247Y20950D02*
X24900D01*
Y20603D01*
X24954Y20610D01*
X25052Y20651D01*
X25135Y20715D01*
X25199Y20798D01*
X25240Y20896D01*
X25247Y20950D01*
D02*
G37*
G36*
X24800D02*
X24453D01*
X24460Y20896D01*
X24501Y20798D01*
X24565Y20715D01*
X24648Y20651D01*
X24746Y20610D01*
X24800Y20603D01*
Y20950D01*
D02*
G37*
G36*
X27250Y21400D02*
X26450D01*
Y20600D01*
X27250D01*
Y21400D01*
D02*
G37*
G36*
X25850Y21403D02*
X25746Y21390D01*
X25648Y21349D01*
X25565Y21285D01*
X25501Y21202D01*
X25460Y21104D01*
X25447Y21000D01*
X25460Y20896D01*
X25501Y20798D01*
X25565Y20715D01*
X25648Y20651D01*
X25746Y20610D01*
X25850Y20597D01*
X25954Y20610D01*
X26052Y20651D01*
X26135Y20715D01*
X26199Y20798D01*
X26240Y20896D01*
X26253Y21000D01*
X26240Y21104D01*
X26199Y21202D01*
X26135Y21285D01*
X26052Y21349D01*
X25954Y21390D01*
X25850Y21403D01*
D02*
G37*
G36*
X23850D02*
X23746Y21390D01*
X23648Y21349D01*
X23565Y21285D01*
X23501Y21202D01*
X23460Y21104D01*
X23447Y21000D01*
X23460Y20896D01*
X23501Y20798D01*
X23565Y20715D01*
X23648Y20651D01*
X23746Y20610D01*
X23850Y20597D01*
X23954Y20610D01*
X24052Y20651D01*
X24135Y20715D01*
X24199Y20798D01*
X24240Y20896D01*
X24253Y21000D01*
X24240Y21104D01*
X24199Y21202D01*
X24135Y21285D01*
X24052Y21349D01*
X23954Y21390D01*
X23850Y21403D01*
D02*
G37*
G36*
X22850D02*
X22746Y21390D01*
X22648Y21349D01*
X22565Y21285D01*
X22501Y21202D01*
X22460Y21104D01*
X22447Y21000D01*
X22460Y20896D01*
X22501Y20798D01*
X22565Y20715D01*
X22648Y20651D01*
X22746Y20610D01*
X22850Y20597D01*
X22954Y20610D01*
X23052Y20651D01*
X23135Y20715D01*
X23199Y20798D01*
X23240Y20896D01*
X23253Y21000D01*
X23240Y21104D01*
X23199Y21202D01*
X23135Y21285D01*
X23052Y21349D01*
X22954Y21390D01*
X22850Y21403D01*
D02*
G37*
G36*
X21850D02*
X21746Y21390D01*
X21648Y21349D01*
X21565Y21285D01*
X21501Y21202D01*
X21460Y21104D01*
X21447Y21000D01*
X21460Y20896D01*
X21501Y20798D01*
X21565Y20715D01*
X21648Y20651D01*
X21746Y20610D01*
X21850Y20597D01*
X21954Y20610D01*
X22052Y20651D01*
X22135Y20715D01*
X22199Y20798D01*
X22240Y20896D01*
X22253Y21000D01*
X22240Y21104D01*
X22199Y21202D01*
X22135Y21285D01*
X22052Y21349D01*
X21954Y21390D01*
X21850Y21403D01*
D02*
G37*
G36*
X20850D02*
X20746Y21390D01*
X20648Y21349D01*
X20565Y21285D01*
X20501Y21202D01*
X20460Y21104D01*
X20447Y21000D01*
X20460Y20896D01*
X20501Y20798D01*
X20565Y20715D01*
X20648Y20651D01*
X20746Y20610D01*
X20850Y20597D01*
X20954Y20610D01*
X21052Y20651D01*
X21135Y20715D01*
X21199Y20798D01*
X21240Y20896D01*
X21253Y21000D01*
X21240Y21104D01*
X21199Y21202D01*
X21135Y21285D01*
X21052Y21349D01*
X20954Y21390D01*
X20850Y21403D01*
D02*
G37*
G36*
X16800Y20743D02*
X16645Y20728D01*
X16497Y20682D01*
X16360Y20609D01*
X16239Y20511D01*
X16141Y20390D01*
X16068Y20253D01*
X16022Y20105D01*
X16007Y19950D01*
X16022Y19795D01*
X16068Y19647D01*
X16141Y19510D01*
X16239Y19389D01*
X16360Y19291D01*
X16497Y19218D01*
X16645Y19172D01*
X16800Y19157D01*
X16955Y19172D01*
X17103Y19218D01*
X17240Y19291D01*
X17361Y19389D01*
X17459Y19510D01*
X17532Y19647D01*
X17578Y19795D01*
X17593Y19950D01*
X17578Y20105D01*
X17532Y20253D01*
X17459Y20390D01*
X17361Y20511D01*
X17240Y20609D01*
X17103Y20682D01*
X16955Y20728D01*
X16800Y20743D01*
D02*
G37*
G36*
X35543Y17965D02*
Y17543D01*
X35965D01*
X35955Y17617D01*
X35908Y17732D01*
X35831Y17831D01*
X35732Y17908D01*
X35617Y17955D01*
X35543Y17965D01*
D02*
G37*
G36*
X35443D02*
X35369Y17955D01*
X35253Y17908D01*
X35154Y17831D01*
X35078Y17732D01*
X35030Y17617D01*
X35020Y17543D01*
X35443D01*
Y17965D01*
D02*
G37*
G36*
X35965Y17443D02*
X35543D01*
Y17020D01*
X35617Y17030D01*
X35732Y17078D01*
X35831Y17154D01*
X35908Y17253D01*
X35955Y17369D01*
X35965Y17443D01*
D02*
G37*
G36*
X35443D02*
X35020D01*
X35030Y17369D01*
X35078Y17253D01*
X35154Y17154D01*
X35253Y17078D01*
X35369Y17030D01*
X35443Y17020D01*
Y17443D01*
D02*
G37*
G36*
X36957Y16551D02*
Y16128D01*
X37379D01*
X37370Y16202D01*
X37322Y16318D01*
X37246Y16417D01*
X37146Y16493D01*
X37031Y16541D01*
X36957Y16551D01*
D02*
G37*
G36*
X36857D02*
X36783Y16541D01*
X36667Y16493D01*
X36568Y16417D01*
X36492Y16318D01*
X36444Y16202D01*
X36434Y16128D01*
X36857D01*
Y16551D01*
D02*
G37*
G36*
X34128D02*
Y16128D01*
X34551D01*
X34541Y16202D01*
X34493Y16318D01*
X34417Y16417D01*
X34318Y16493D01*
X34202Y16541D01*
X34128Y16551D01*
D02*
G37*
G36*
X34028D02*
X33954Y16541D01*
X33839Y16493D01*
X33740Y16417D01*
X33664Y16318D01*
X33616Y16202D01*
X33606Y16128D01*
X34028D01*
Y16551D01*
D02*
G37*
G36*
X37379Y16028D02*
X36957D01*
Y15606D01*
X37031Y15616D01*
X37146Y15664D01*
X37246Y15740D01*
X37322Y15839D01*
X37370Y15954D01*
X37379Y16028D01*
D02*
G37*
G36*
X36857D02*
X36434D01*
X36444Y15954D01*
X36492Y15839D01*
X36568Y15740D01*
X36667Y15664D01*
X36783Y15616D01*
X36857Y15606D01*
Y16028D01*
D02*
G37*
G36*
X34551D02*
X34128D01*
Y15606D01*
X34202Y15616D01*
X34318Y15664D01*
X34417Y15740D01*
X34493Y15839D01*
X34541Y15954D01*
X34551Y16028D01*
D02*
G37*
G36*
X34028D02*
X33606D01*
X33616Y15954D01*
X33664Y15839D01*
X33740Y15740D01*
X33839Y15664D01*
X33954Y15616D01*
X34028Y15606D01*
Y16028D01*
D02*
G37*
G36*
X26350Y16030D02*
X26213Y16011D01*
X26085Y15959D01*
X25976Y15874D01*
X25891Y15765D01*
X25839Y15637D01*
X25820Y15500D01*
X25839Y15363D01*
X25891Y15235D01*
X25976Y15126D01*
X26085Y15041D01*
X26213Y14989D01*
X26350Y14970D01*
X26487Y14989D01*
X26615Y15041D01*
X26724Y15126D01*
X26809Y15235D01*
X26861Y15363D01*
X26880Y15500D01*
X26861Y15637D01*
X26809Y15765D01*
X26724Y15874D01*
X26615Y15959D01*
X26487Y16011D01*
X26350Y16030D01*
D02*
G37*
G36*
X21350D02*
X21213Y16011D01*
X21085Y15959D01*
X20976Y15874D01*
X20891Y15765D01*
X20839Y15637D01*
X20820Y15500D01*
X20839Y15363D01*
X20891Y15235D01*
X20976Y15126D01*
X21085Y15041D01*
X21213Y14989D01*
X21350Y14970D01*
X21487Y14989D01*
X21615Y15041D01*
X21724Y15126D01*
X21809Y15235D01*
X21861Y15363D01*
X21880Y15500D01*
X21861Y15637D01*
X21809Y15765D01*
X21724Y15874D01*
X21615Y15959D01*
X21487Y16011D01*
X21350Y16030D01*
D02*
G37*
G36*
X35543Y15137D02*
Y14714D01*
X35965D01*
X35955Y14788D01*
X35908Y14904D01*
X35831Y15003D01*
X35732Y15079D01*
X35617Y15127D01*
X35543Y15137D01*
D02*
G37*
G36*
X35443D02*
X35369Y15127D01*
X35253Y15079D01*
X35154Y15003D01*
X35078Y14904D01*
X35030Y14788D01*
X35020Y14714D01*
X35443D01*
Y15137D01*
D02*
G37*
G36*
X32714D02*
Y14714D01*
X33137D01*
X33127Y14788D01*
X33079Y14904D01*
X33003Y15003D01*
X32904Y15079D01*
X32788Y15127D01*
X32714Y15137D01*
D02*
G37*
G36*
X32614D02*
X32540Y15127D01*
X32425Y15079D01*
X32325Y15003D01*
X32249Y14904D01*
X32201Y14788D01*
X32192Y14714D01*
X32614D01*
Y15137D01*
D02*
G37*
G36*
X35965Y14614D02*
X35543D01*
Y14192D01*
X35617Y14201D01*
X35732Y14249D01*
X35831Y14325D01*
X35908Y14425D01*
X35955Y14540D01*
X35965Y14614D01*
D02*
G37*
G36*
X35443D02*
X35020D01*
X35030Y14540D01*
X35078Y14425D01*
X35154Y14325D01*
X35253Y14249D01*
X35369Y14201D01*
X35443Y14192D01*
Y14614D01*
D02*
G37*
G36*
X33137D02*
X32714D01*
Y14192D01*
X32788Y14201D01*
X32904Y14249D01*
X33003Y14325D01*
X33079Y14425D01*
X33127Y14540D01*
X33137Y14614D01*
D02*
G37*
G36*
X32614D02*
X32192D01*
X32201Y14540D01*
X32249Y14425D01*
X32325Y14325D01*
X32425Y14249D01*
X32540Y14201D01*
X32614Y14192D01*
Y14614D01*
D02*
G37*
G36*
X34128Y13723D02*
Y13300D01*
X34551D01*
X34541Y13374D01*
X34493Y13490D01*
X34417Y13589D01*
X34318Y13665D01*
X34202Y13713D01*
X34128Y13723D01*
D02*
G37*
G36*
X34028D02*
X33954Y13713D01*
X33839Y13665D01*
X33740Y13589D01*
X33664Y13490D01*
X33616Y13374D01*
X33606Y13300D01*
X34028D01*
Y13723D01*
D02*
G37*
G36*
X31300D02*
Y13300D01*
X31723D01*
X31713Y13374D01*
X31665Y13490D01*
X31589Y13589D01*
X31490Y13665D01*
X31374Y13713D01*
X31300Y13723D01*
D02*
G37*
G36*
X31200D02*
X31126Y13713D01*
X31010Y13665D01*
X30911Y13589D01*
X30835Y13490D01*
X30787Y13374D01*
X30777Y13300D01*
X31200D01*
Y13723D01*
D02*
G37*
G36*
X34551Y13200D02*
X34128D01*
Y12777D01*
X34202Y12787D01*
X34318Y12835D01*
X34417Y12911D01*
X34493Y13010D01*
X34541Y13126D01*
X34551Y13200D01*
D02*
G37*
G36*
X34028D02*
X33606D01*
X33616Y13126D01*
X33664Y13010D01*
X33740Y12911D01*
X33839Y12835D01*
X33954Y12787D01*
X34028Y12777D01*
Y13200D01*
D02*
G37*
G36*
X31723D02*
X31300D01*
Y12777D01*
X31374Y12787D01*
X31490Y12835D01*
X31589Y12911D01*
X31665Y13010D01*
X31713Y13126D01*
X31723Y13200D01*
D02*
G37*
G36*
X31200D02*
X30777D01*
X30787Y13126D01*
X30835Y13010D01*
X30911Y12911D01*
X31010Y12835D01*
X31126Y12787D01*
X31200Y12777D01*
Y13200D01*
D02*
G37*
G36*
X32714Y12308D02*
Y11886D01*
X33137D01*
X33127Y11960D01*
X33079Y12075D01*
X33003Y12175D01*
X32904Y12251D01*
X32788Y12299D01*
X32714Y12308D01*
D02*
G37*
G36*
X32614D02*
X32540Y12299D01*
X32425Y12251D01*
X32325Y12175D01*
X32249Y12075D01*
X32201Y11960D01*
X32192Y11886D01*
X32614D01*
Y12308D01*
D02*
G37*
G36*
X33137Y11786D02*
X32714D01*
Y11363D01*
X32788Y11373D01*
X32904Y11421D01*
X33003Y11497D01*
X33079Y11596D01*
X33127Y11712D01*
X33137Y11786D01*
D02*
G37*
G36*
X32614D02*
X32192D01*
X32201Y11712D01*
X32249Y11596D01*
X32325Y11497D01*
X32425Y11421D01*
X32540Y11373D01*
X32614Y11363D01*
Y11786D01*
D02*
G37*
%LPD*%
D10*
X21850Y21000D02*
Y21236D01*
X20850Y21000D02*
Y21236D01*
D32*
X26850Y21000D02*
D03*
X18550Y45050D02*
D03*
D33*
X25850Y21000D02*
D03*
X24850D02*
D03*
X23850D02*
D03*
X22850D02*
D03*
X21850D02*
D03*
X20850D02*
D03*
X20760Y24140D02*
D03*
X19760D02*
D03*
X18760D02*
D03*
X17760D02*
D03*
X16760D02*
D03*
X15760D02*
D03*
X14760D02*
D03*
X13760D02*
D03*
X12760D02*
D03*
X11760D02*
D03*
X10760D02*
D03*
X9760D02*
D03*
X8760D02*
D03*
X7760D02*
D03*
X6760D02*
D03*
X20800Y34100D02*
D03*
X19800D02*
D03*
X18800D02*
D03*
X17800D02*
D03*
X16800D02*
D03*
X15800D02*
D03*
X14800D02*
D03*
X13800D02*
D03*
X12800D02*
D03*
X11800D02*
D03*
X10800D02*
D03*
X9800D02*
D03*
X8800D02*
D03*
X7800D02*
D03*
X6800D02*
D03*
X18550Y44050D02*
D03*
Y43050D02*
D03*
Y42050D02*
D03*
Y41050D02*
D03*
Y40050D02*
D03*
X11200Y15250D02*
D03*
X12200D02*
D03*
X13200D02*
D03*
X14200D02*
D03*
X15200D02*
D03*
X16200D02*
D03*
X17200D02*
D03*
D34*
X5760Y24140D02*
D03*
X5800Y34100D02*
D03*
X10200Y15250D02*
D03*
D35*
X5800Y32400D02*
D03*
Y26400D02*
D03*
D36*
X6800Y32400D02*
D03*
X7800D02*
D03*
X8800D02*
D03*
X9800D02*
D03*
X10800D02*
D03*
X11800D02*
D03*
X12800D02*
D03*
X13800D02*
D03*
X14800D02*
D03*
X15800D02*
D03*
X16800D02*
D03*
X17800D02*
D03*
X18800D02*
D03*
X19800D02*
D03*
X6800Y26400D02*
D03*
X7800D02*
D03*
X8800D02*
D03*
X9800D02*
D03*
X10800D02*
D03*
X11800D02*
D03*
X12800D02*
D03*
X13800D02*
D03*
X14800D02*
D03*
X15800D02*
D03*
X16800D02*
D03*
X17800D02*
D03*
X18800D02*
D03*
X19800D02*
D03*
D37*
X21350Y15500D02*
D03*
X26350D02*
D03*
D38*
X5500Y35600D02*
D03*
X8500D02*
D03*
X5500Y37100D02*
D03*
X8500D02*
D03*
X4000Y35600D02*
D03*
X7000D02*
D03*
X4000Y37100D02*
D03*
X7000D02*
D03*
X19000Y14200D02*
D03*
X20300Y11900D02*
D03*
X19800Y45000D02*
D03*
X15400Y45900D02*
D03*
X11000Y13500D02*
D03*
X11500Y29500D02*
D03*
Y28000D02*
D03*
Y31100D02*
D03*
X35493Y17493D02*
D03*
X34078Y16078D02*
D03*
Y13250D02*
D03*
X36907Y16078D02*
D03*
X35493Y14664D02*
D03*
X32664Y11836D02*
D03*
X31250Y13250D02*
D03*
X32664Y14664D02*
D03*
D39*
X18050Y39050D02*
D03*
Y46050D02*
D03*
X32814D02*
D03*
Y39050D02*
D03*
D40*
X20000Y6500D02*
D03*
X41000D02*
D03*
Y54000D02*
D03*
X20000D02*
D03*
D41*
X37934Y53813D02*
D03*
X52862Y24114D02*
D03*
D42*
X10600Y19950D02*
D03*
X16800D02*
D03*
M02*
