M48
;Layer_Color=9474304
;FILE_FORMAT=2:4
INCH,LZ
;TYPE=PLATED
T1F00S00C0.0300
T2F00S00C0.0402
T3F00S00C0.0500
T4F00S00C0.0800
T5F00S00C0.0846
T6F00S00C0.1181
T7F00S00C0.1339
%
T01
X0102Y01525
X0112
X0122
X0132
X0142
X0152
X0162
X0172
X02085Y021
X02185
X02285
X02385
X02485
X02585
X02685
X01855Y04005
Y04105
Y04205
Y04305
Y04405
Y04505
T02
X01576Y02414
X01676
X01776
X01876
X01976
X02076
X0198Y0264
X0188
X0178
X0168
X0158
X0148
X0138
X0128
X0118
X0108
X0098
X0088
X0078
X0068
X0058
X00576Y02414
X00676
X00776
X00876
X00976
X01076
X01176
X01276
X01376
X01476
X0148Y0324
X0138
X0128
X0118
X0108
X0098
X0088
X0078
X0068
X0058
Y0341
X0068
X0078
X0088
X0098
X0108
X0118
X0128
X0138
X0148
X0158
X0168
X0178
X0188
X0198
X0208
X0198Y0324
X0188
X0178
X0168
X0158
T03
X011Y0135
X019Y0142
X0203Y0119
X03125Y01325
X034078
X032664Y011836
Y014664
X035493
X036907Y016078
X035493Y017493
X034078Y016078
X0115Y028
Y0295
Y0311
X0085Y0356
Y0371
X007
X0055
Y0356
X004
Y0371
X007Y0356
X0154Y0459
X0198Y045
T04
X02135Y0155
X02635
X052862Y024114
X037934Y053813
T05
X01805Y03905
Y04605
X032814
Y03905
T06
X0168Y01995
X0106
T07
X02Y0065
X041
Y054
X02
M30
