G04*
G04 #@! TF.GenerationSoftware,Altium Limited,Altium Designer,20.1.14 (287)*
G04*
G04 Layer_Color=2752767*
%FSLAX24Y24*%
%MOIN*%
G70*
G04*
G04 #@! TF.SameCoordinates,B8CB9E98-002D-4190-A2A2-B4F4F07DE0F0*
G04*
G04*
G04 #@! TF.FilePolarity,Positive*
G04*
G01*
G75*
%ADD43C,0.0020*%
%ADD44C,0.0027*%
D43*
X26770Y20920D02*
Y21080D01*
X26930D01*
Y20920D01*
X26770D01*
X25770D02*
Y21080D01*
X25930D01*
Y20920D01*
X25770D01*
X24770D02*
Y21080D01*
X24930D01*
Y20920D01*
X24770D01*
X23770D02*
Y21080D01*
X23930D01*
Y20920D01*
X23770D01*
X22770D02*
Y21080D01*
X22930D01*
Y20920D01*
X22770D01*
X21770D02*
Y21080D01*
X21930D01*
Y20920D01*
X21770D01*
X20770D02*
Y21080D01*
X20930D01*
Y20920D01*
X20770D01*
X18470Y44970D02*
Y45130D01*
X18630D01*
Y44970D01*
X18470D01*
Y43970D02*
Y44130D01*
X18630D01*
Y43970D01*
X18470D01*
Y42970D02*
Y43130D01*
X18630D01*
Y42970D01*
X18470D01*
Y41970D02*
Y42130D01*
X18630D01*
Y41970D01*
X18470D01*
Y40970D02*
Y41130D01*
X18630D01*
Y40970D01*
X18470D01*
Y39970D02*
Y40130D01*
X18630D01*
Y39970D01*
X18470D01*
X10120Y15170D02*
Y15330D01*
X10280D01*
Y15170D01*
X10120D01*
X11120D02*
Y15330D01*
X11280D01*
Y15170D01*
X11120D01*
X12120D02*
Y15330D01*
X12280D01*
Y15170D01*
X12120D01*
X13120D02*
Y15330D01*
X13280D01*
Y15170D01*
X13120D01*
X14120D02*
Y15330D01*
X14280D01*
Y15170D01*
X14120D01*
X15120D02*
Y15330D01*
X15280D01*
Y15170D01*
X15120D01*
X16120D02*
Y15330D01*
X16280D01*
Y15170D01*
X16120D01*
X17120D02*
Y15330D01*
X17280D01*
Y15170D01*
X17120D01*
X21350Y15420D02*
X21270Y15580D01*
X21430D01*
X21350Y15420D01*
X26350D02*
X26270Y15580D01*
X26430D01*
X26350Y15420D01*
X5500Y35520D02*
X5540Y35560D01*
X5580D01*
X5540Y35600D01*
X5580Y35640D01*
X5540D01*
X5500Y35680D01*
X5460Y35640D01*
X5420D01*
X5460Y35600D01*
X5420Y35560D01*
X5460D01*
X5500Y35520D01*
X8500D02*
X8540Y35560D01*
X8580D01*
X8540Y35600D01*
X8580Y35640D01*
X8540D01*
X8500Y35680D01*
X8460Y35640D01*
X8420D01*
X8460Y35600D01*
X8420Y35560D01*
X8460D01*
X8500Y35520D01*
X5500Y37020D02*
X5540Y37060D01*
X5580D01*
X5540Y37100D01*
X5580Y37140D01*
X5540D01*
X5500Y37180D01*
X5460Y37140D01*
X5420D01*
X5460Y37100D01*
X5420Y37060D01*
X5460D01*
X5500Y37020D01*
X8500D02*
X8540Y37060D01*
X8580D01*
X8540Y37100D01*
X8580Y37140D01*
X8540D01*
X8500Y37180D01*
X8460Y37140D01*
X8420D01*
X8460Y37100D01*
X8420Y37060D01*
X8460D01*
X8500Y37020D01*
X4000Y35520D02*
X4040Y35560D01*
X4080D01*
X4040Y35600D01*
X4080Y35640D01*
X4040D01*
X4000Y35680D01*
X3960Y35640D01*
X3920D01*
X3960Y35600D01*
X3920Y35560D01*
X3960D01*
X4000Y35520D01*
X7000D02*
X7040Y35560D01*
X7080D01*
X7040Y35600D01*
X7080Y35640D01*
X7040D01*
X7000Y35680D01*
X6960Y35640D01*
X6920D01*
X6960Y35600D01*
X6920Y35560D01*
X6960D01*
X7000Y35520D01*
X4000Y37020D02*
X4040Y37060D01*
X4080D01*
X4040Y37100D01*
X4080Y37140D01*
X4040D01*
X4000Y37180D01*
X3960Y37140D01*
X3920D01*
X3960Y37100D01*
X3920Y37060D01*
X3960D01*
X4000Y37020D01*
X7000D02*
X7040Y37060D01*
X7080D01*
X7040Y37100D01*
X7080Y37140D01*
X7040D01*
X7000Y37180D01*
X6960Y37140D01*
X6920D01*
X6960Y37100D01*
X6920Y37060D01*
X6960D01*
X7000Y37020D01*
X17970Y38970D02*
X18010Y39050D01*
X17970Y39130D01*
X18050Y39090D01*
X18130Y39130D01*
X18090Y39050D01*
X18130Y38970D01*
X18050Y39010D01*
X17970Y38970D01*
Y45970D02*
X18010Y46050D01*
X17970Y46130D01*
X18050Y46090D01*
X18130Y46130D01*
X18090Y46050D01*
X18130Y45970D01*
X18050Y46010D01*
X17970Y45970D01*
X32734D02*
X32774Y46050D01*
X32734Y46130D01*
X32814Y46090D01*
X32894Y46130D01*
X32854Y46050D01*
X32894Y45970D01*
X32814Y46010D01*
X32734Y45970D01*
Y38970D02*
X32774Y39050D01*
X32734Y39130D01*
X32814Y39090D01*
X32894Y39130D01*
X32854Y39050D01*
X32894Y38970D01*
X32814Y39010D01*
X32734Y38970D01*
X19960Y6460D02*
Y6420D01*
X20040D01*
Y6460D01*
X20080D01*
Y6540D01*
X20040D01*
Y6580D01*
X19960D01*
Y6540D01*
X19920D01*
Y6460D01*
X19960D01*
X40960D02*
Y6420D01*
X41040D01*
Y6460D01*
X41080D01*
Y6540D01*
X41040D01*
Y6580D01*
X40960D01*
Y6540D01*
X40920D01*
Y6460D01*
X40960D01*
Y53960D02*
Y53920D01*
X41040D01*
Y53960D01*
X41080D01*
Y54040D01*
X41040D01*
Y54080D01*
X40960D01*
Y54040D01*
X40920D01*
Y53960D01*
X40960D01*
X19960D02*
Y53920D01*
X20040D01*
Y53960D01*
X20080D01*
Y54040D01*
X20040D01*
Y54080D01*
X19960D01*
Y54040D01*
X19920D01*
Y53960D01*
X19960D01*
X37934Y53733D02*
X37854Y53893D01*
X38014D01*
X37934Y53733D01*
X52862Y24034D02*
X52782Y24194D01*
X52942D01*
X52862Y24034D01*
X19000Y14120D02*
X19040Y14160D01*
X19080D01*
X19040Y14200D01*
X19080Y14240D01*
X19040D01*
X19000Y14280D01*
X18960Y14240D01*
X18920D01*
X18960Y14200D01*
X18920Y14160D01*
X18960D01*
X19000Y14120D01*
X20300Y11820D02*
X20340Y11860D01*
X20380D01*
X20340Y11900D01*
X20380Y11940D01*
X20340D01*
X20300Y11980D01*
X20260Y11940D01*
X20220D01*
X20260Y11900D01*
X20220Y11860D01*
X20260D01*
X20300Y11820D01*
X19800Y44920D02*
X19840Y44960D01*
X19880D01*
X19840Y45000D01*
X19880Y45040D01*
X19840D01*
X19800Y45080D01*
X19760Y45040D01*
X19720D01*
X19760Y45000D01*
X19720Y44960D01*
X19760D01*
X19800Y44920D01*
X15400Y45820D02*
X15440Y45860D01*
X15480D01*
X15440Y45900D01*
X15480Y45940D01*
X15440D01*
X15400Y45980D01*
X15360Y45940D01*
X15320D01*
X15360Y45900D01*
X15320Y45860D01*
X15360D01*
X15400Y45820D01*
X11000Y13420D02*
X11040Y13460D01*
X11080D01*
X11040Y13500D01*
X11080Y13540D01*
X11040D01*
X11000Y13580D01*
X10960Y13540D01*
X10920D01*
X10960Y13500D01*
X10920Y13460D01*
X10960D01*
X11000Y13420D01*
X11500Y29420D02*
X11540Y29460D01*
X11580D01*
X11540Y29500D01*
X11580Y29540D01*
X11540D01*
X11500Y29580D01*
X11460Y29540D01*
X11420D01*
X11460Y29500D01*
X11420Y29460D01*
X11460D01*
X11500Y29420D01*
Y27920D02*
X11540Y27960D01*
X11580D01*
X11540Y28000D01*
X11580Y28040D01*
X11540D01*
X11500Y28080D01*
X11460Y28040D01*
X11420D01*
X11460Y28000D01*
X11420Y27960D01*
X11460D01*
X11500Y27920D01*
Y31020D02*
X11540Y31060D01*
X11580D01*
X11540Y31100D01*
X11580Y31140D01*
X11540D01*
X11500Y31180D01*
X11460Y31140D01*
X11420D01*
X11460Y31100D01*
X11420Y31060D01*
X11460D01*
X11500Y31020D01*
X35493Y17413D02*
X35533Y17453D01*
X35573D01*
X35533Y17493D01*
X35573Y17533D01*
X35533D01*
X35493Y17573D01*
X35453Y17533D01*
X35413D01*
X35453Y17493D01*
X35413Y17453D01*
X35453D01*
X35493Y17413D01*
X34078Y15998D02*
X34118Y16038D01*
X34158D01*
X34118Y16078D01*
X34158Y16118D01*
X34118D01*
X34078Y16158D01*
X34038Y16118D01*
X33998D01*
X34038Y16078D01*
X33998Y16038D01*
X34038D01*
X34078Y15998D01*
Y13170D02*
X34118Y13210D01*
X34158D01*
X34118Y13250D01*
X34158Y13290D01*
X34118D01*
X34078Y13330D01*
X34038Y13290D01*
X33998D01*
X34038Y13250D01*
X33998Y13210D01*
X34038D01*
X34078Y13170D01*
X36907Y15998D02*
X36947Y16038D01*
X36987D01*
X36947Y16078D01*
X36987Y16118D01*
X36947D01*
X36907Y16158D01*
X36867Y16118D01*
X36827D01*
X36867Y16078D01*
X36827Y16038D01*
X36867D01*
X36907Y15998D01*
X35493Y14584D02*
X35533Y14624D01*
X35573D01*
X35533Y14664D01*
X35573Y14704D01*
X35533D01*
X35493Y14744D01*
X35453Y14704D01*
X35413D01*
X35453Y14664D01*
X35413Y14624D01*
X35453D01*
X35493Y14584D01*
X32664Y11756D02*
X32704Y11796D01*
X32744D01*
X32704Y11836D01*
X32744Y11876D01*
X32704D01*
X32664Y11916D01*
X32624Y11876D01*
X32584D01*
X32624Y11836D01*
X32584Y11796D01*
X32624D01*
X32664Y11756D01*
X31250Y13170D02*
X31290Y13210D01*
X31330D01*
X31290Y13250D01*
X31330Y13290D01*
X31290D01*
X31250Y13330D01*
X31210Y13290D01*
X31170D01*
X31210Y13250D01*
X31170Y13210D01*
X31210D01*
X31250Y13170D01*
X32664Y14584D02*
X32704Y14624D01*
X32744D01*
X32704Y14664D01*
X32744Y14704D01*
X32704D01*
X32664Y14744D01*
X32624Y14704D01*
X32584D01*
X32624Y14664D01*
X32584Y14624D01*
X32624D01*
X32664Y14584D01*
X10520Y19870D02*
X10560D01*
X10600Y19910D01*
X10640Y19870D01*
X10680D01*
Y19910D01*
X10640Y19950D01*
X10680Y19990D01*
Y20030D01*
X10640D01*
X10600Y19990D01*
X10560Y20030D01*
X10520D01*
Y19990D01*
X10560Y19950D01*
X10520Y19910D01*
Y19870D01*
X16720D02*
X16760D01*
X16800Y19910D01*
X16840Y19870D01*
X16880D01*
Y19910D01*
X16840Y19950D01*
X16880Y19990D01*
Y20030D01*
X16840D01*
X16800Y19990D01*
X16760Y20030D01*
X16720D01*
Y19990D01*
X16760Y19950D01*
X16720Y19910D01*
Y19870D01*
D44*
X20840Y24140D02*
G03*
X20840Y24140I-80J0D01*
G01*
X19840D02*
G03*
X19840Y24140I-80J0D01*
G01*
X18840D02*
G03*
X18840Y24140I-80J0D01*
G01*
X17840D02*
G03*
X17840Y24140I-80J0D01*
G01*
X16840D02*
G03*
X16840Y24140I-80J0D01*
G01*
X15840D02*
G03*
X15840Y24140I-80J0D01*
G01*
X14840D02*
G03*
X14840Y24140I-80J0D01*
G01*
X13840D02*
G03*
X13840Y24140I-80J0D01*
G01*
X12840D02*
G03*
X12840Y24140I-80J0D01*
G01*
X11840D02*
G03*
X11840Y24140I-80J0D01*
G01*
X10840D02*
G03*
X10840Y24140I-80J0D01*
G01*
X9840D02*
G03*
X9840Y24140I-80J0D01*
G01*
X8840D02*
G03*
X8840Y24140I-80J0D01*
G01*
X7840D02*
G03*
X7840Y24140I-80J0D01*
G01*
X6840D02*
G03*
X6840Y24140I-80J0D01*
G01*
X5840D02*
G03*
X5840Y24140I-80J0D01*
G01*
X20880Y34100D02*
G03*
X20880Y34100I-80J0D01*
G01*
X19880D02*
G03*
X19880Y34100I-80J0D01*
G01*
X18880D02*
G03*
X18880Y34100I-80J0D01*
G01*
X17880D02*
G03*
X17880Y34100I-80J0D01*
G01*
X16880D02*
G03*
X16880Y34100I-80J0D01*
G01*
X15880D02*
G03*
X15880Y34100I-80J0D01*
G01*
X14880D02*
G03*
X14880Y34100I-80J0D01*
G01*
X13880D02*
G03*
X13880Y34100I-80J0D01*
G01*
X12880D02*
G03*
X12880Y34100I-80J0D01*
G01*
X11880D02*
G03*
X11880Y34100I-80J0D01*
G01*
X10880D02*
G03*
X10880Y34100I-80J0D01*
G01*
X9880D02*
G03*
X9880Y34100I-80J0D01*
G01*
X8880D02*
G03*
X8880Y34100I-80J0D01*
G01*
X7880D02*
G03*
X7880Y34100I-80J0D01*
G01*
X6880D02*
G03*
X6880Y34100I-80J0D01*
G01*
X5880D02*
G03*
X5880Y34100I-80J0D01*
G01*
Y32400D02*
G03*
X5880Y32400I-80J0D01*
G01*
X6880D02*
G03*
X6880Y32400I-80J0D01*
G01*
X7880D02*
G03*
X7880Y32400I-80J0D01*
G01*
X8880D02*
G03*
X8880Y32400I-80J0D01*
G01*
X9880D02*
G03*
X9880Y32400I-80J0D01*
G01*
X10880D02*
G03*
X10880Y32400I-80J0D01*
G01*
X11880D02*
G03*
X11880Y32400I-80J0D01*
G01*
X12880D02*
G03*
X12880Y32400I-80J0D01*
G01*
X13880D02*
G03*
X13880Y32400I-80J0D01*
G01*
X14880D02*
G03*
X14880Y32400I-80J0D01*
G01*
X15880D02*
G03*
X15880Y32400I-80J0D01*
G01*
X16880D02*
G03*
X16880Y32400I-80J0D01*
G01*
X17880D02*
G03*
X17880Y32400I-80J0D01*
G01*
X18880D02*
G03*
X18880Y32400I-80J0D01*
G01*
X19880D02*
G03*
X19880Y32400I-80J0D01*
G01*
X5880Y26400D02*
G03*
X5880Y26400I-80J0D01*
G01*
X6880D02*
G03*
X6880Y26400I-80J0D01*
G01*
X7880D02*
G03*
X7880Y26400I-80J0D01*
G01*
X8880D02*
G03*
X8880Y26400I-80J0D01*
G01*
X9880D02*
G03*
X9880Y26400I-80J0D01*
G01*
X10880D02*
G03*
X10880Y26400I-80J0D01*
G01*
X11880D02*
G03*
X11880Y26400I-80J0D01*
G01*
X12880D02*
G03*
X12880Y26400I-80J0D01*
G01*
X13880D02*
G03*
X13880Y26400I-80J0D01*
G01*
X14880D02*
G03*
X14880Y26400I-80J0D01*
G01*
X15880D02*
G03*
X15880Y26400I-80J0D01*
G01*
X16880D02*
G03*
X16880Y26400I-80J0D01*
G01*
X17880D02*
G03*
X17880Y26400I-80J0D01*
G01*
X18880D02*
G03*
X18880Y26400I-80J0D01*
G01*
X19880D02*
G03*
X19880Y26400I-80J0D01*
G01*
M02*
