G04*
G04 #@! TF.GenerationSoftware,Altium Limited,Altium Designer,20.1.14 (287)*
G04*
G04 Layer_Color=8388736*
%FSLAX24Y24*%
%MOIN*%
G70*
G04*
G04 #@! TF.SameCoordinates,B8CB9E98-002D-4190-A2A2-B4F4F07DE0F0*
G04*
G04*
G04 #@! TF.FilePolarity,Negative*
G04*
G01*
G75*
G04:AMPARAMS|DCode=18|XSize=308mil|YSize=408mil|CornerRadius=0mil|HoleSize=0mil|Usage=FLASHONLY|Rotation=315.000|XOffset=0mil|YOffset=0mil|HoleType=Round|Shape=Rectangle|*
%AMROTATEDRECTD18*
4,1,4,-0.2531,-0.0354,0.0354,0.2531,0.2531,0.0354,-0.0354,-0.2531,-0.2531,-0.0354,0.0*
%
%ADD18ROTATEDRECTD18*%

G04:AMPARAMS|DCode=19|XSize=308mil|YSize=408mil|CornerRadius=0mil|HoleSize=0mil|Usage=FLASHONLY|Rotation=225.000|XOffset=0mil|YOffset=0mil|HoleType=Round|Shape=Rectangle|*
%AMROTATEDRECTD19*
4,1,4,-0.0354,0.2531,0.2531,-0.0354,0.0354,-0.2531,-0.2531,0.0354,-0.0354,0.2531,0.0*
%
%ADD19ROTATEDRECTD19*%

%ADD20R,0.4017X0.2049*%
%ADD21R,0.0680X0.0680*%
%ADD22C,0.0680*%
%ADD23R,0.0680X0.0680*%
%ADD24R,0.0682X0.0682*%
%ADD25C,0.0682*%
%ADD26C,0.0930*%
%ADD27C,0.0830*%
%ADD28C,0.1045*%
%ADD29C,0.1580*%
%ADD30C,0.0880*%
%ADD31C,0.1458*%
D18*
X52048Y35952D02*
D03*
X35000Y53000D02*
D03*
D19*
X52048Y27048D02*
D03*
X35000Y10000D02*
D03*
D20*
X26950Y49650D02*
D03*
Y52650D02*
D03*
Y55650D02*
D03*
D21*
X26850Y21000D02*
D03*
X18550Y45050D02*
D03*
D22*
X25850Y21000D02*
D03*
X24850D02*
D03*
X23850D02*
D03*
X22850D02*
D03*
X21850D02*
D03*
X20850D02*
D03*
X20760Y24140D02*
D03*
X19760D02*
D03*
X18760D02*
D03*
X17760D02*
D03*
X16760D02*
D03*
X15760D02*
D03*
X14760D02*
D03*
X13760D02*
D03*
X12760D02*
D03*
X11760D02*
D03*
X10760D02*
D03*
X9760D02*
D03*
X8760D02*
D03*
X7760D02*
D03*
X6760D02*
D03*
X20800Y34100D02*
D03*
X19800D02*
D03*
X18800D02*
D03*
X17800D02*
D03*
X16800D02*
D03*
X15800D02*
D03*
X14800D02*
D03*
X13800D02*
D03*
X12800D02*
D03*
X11800D02*
D03*
X10800D02*
D03*
X9800D02*
D03*
X8800D02*
D03*
X7800D02*
D03*
X6800D02*
D03*
X18550Y44050D02*
D03*
Y43050D02*
D03*
Y42050D02*
D03*
Y41050D02*
D03*
Y40050D02*
D03*
X11200Y15250D02*
D03*
X12200D02*
D03*
X13200D02*
D03*
X14200D02*
D03*
X15200D02*
D03*
X16200D02*
D03*
X17200D02*
D03*
D23*
X5760Y24140D02*
D03*
X5800Y34100D02*
D03*
X10200Y15250D02*
D03*
D24*
X5800Y32400D02*
D03*
Y26400D02*
D03*
D25*
X6800Y32400D02*
D03*
X7800D02*
D03*
X8800D02*
D03*
X9800D02*
D03*
X10800D02*
D03*
X11800D02*
D03*
X12800D02*
D03*
X13800D02*
D03*
X14800D02*
D03*
X15800D02*
D03*
X16800D02*
D03*
X17800D02*
D03*
X18800D02*
D03*
X19800D02*
D03*
X6800Y26400D02*
D03*
X7800D02*
D03*
X8800D02*
D03*
X9800D02*
D03*
X10800D02*
D03*
X11800D02*
D03*
X12800D02*
D03*
X13800D02*
D03*
X14800D02*
D03*
X15800D02*
D03*
X16800D02*
D03*
X17800D02*
D03*
X18800D02*
D03*
X19800D02*
D03*
D26*
X21350Y15500D02*
D03*
X26350D02*
D03*
D27*
X5500Y35600D02*
D03*
X8500D02*
D03*
X5500Y37100D02*
D03*
X8500D02*
D03*
X4000Y35600D02*
D03*
X7000D02*
D03*
X4000Y37100D02*
D03*
X7000D02*
D03*
X19000Y14200D02*
D03*
X20300Y11900D02*
D03*
X19800Y45000D02*
D03*
X15400Y45900D02*
D03*
X11000Y13500D02*
D03*
X11500Y29500D02*
D03*
Y28000D02*
D03*
Y31100D02*
D03*
X35493Y17493D02*
D03*
X34078Y16078D02*
D03*
Y13250D02*
D03*
X36907Y16078D02*
D03*
X35493Y14664D02*
D03*
X32664Y11836D02*
D03*
X31250Y13250D02*
D03*
X32664Y14664D02*
D03*
D28*
X18050Y39050D02*
D03*
Y46050D02*
D03*
X32814D02*
D03*
Y39050D02*
D03*
D29*
X20000Y6500D02*
D03*
X41000D02*
D03*
Y54000D02*
D03*
X20000D02*
D03*
D30*
X37934Y53813D02*
D03*
X52862Y24114D02*
D03*
D31*
X10600Y19950D02*
D03*
X16800D02*
D03*
M02*
