G04*
G04 #@! TF.GenerationSoftware,Altium Limited,Altium Designer,20.1.14 (287)*
G04*
G04 Layer_Color=128*
%FSLAX24Y24*%
%MOIN*%
G70*
G04*
G04 #@! TF.SameCoordinates,B8CB9E98-002D-4190-A2A2-B4F4F07DE0F0*
G04*
G04*
G04 #@! TF.FilePolarity,Positive*
G04*
G01*
G75*
%ADD43C,0.0020*%
D43*
X26700Y21000D02*
X27000D01*
X26850Y20850D02*
Y21150D01*
X25700Y21000D02*
X26000D01*
X25850Y20850D02*
Y21150D01*
X24700Y21000D02*
X25000D01*
X24850Y20850D02*
Y21150D01*
X23700Y21000D02*
X24000D01*
X23850Y20850D02*
Y21150D01*
X22700Y21000D02*
X23000D01*
X22850Y20850D02*
Y21150D01*
X21700Y21000D02*
X22000D01*
X21850Y20850D02*
Y21150D01*
X20700Y21000D02*
X21000D01*
X20850Y20850D02*
Y21150D01*
X20559Y24140D02*
X20961D01*
X20760Y23939D02*
Y24341D01*
X19559Y24140D02*
X19961D01*
X19760Y23939D02*
Y24341D01*
X18559Y24140D02*
X18961D01*
X18760Y23939D02*
Y24341D01*
X17559Y24140D02*
X17961D01*
X17760Y23939D02*
Y24341D01*
X16559Y24140D02*
X16961D01*
X16760Y23939D02*
Y24341D01*
X15559Y24140D02*
X15961D01*
X15760Y23939D02*
Y24341D01*
X14559Y24140D02*
X14961D01*
X14760Y23939D02*
Y24341D01*
X13559Y24140D02*
X13961D01*
X13760Y23939D02*
Y24341D01*
X12559Y24140D02*
X12961D01*
X12760Y23939D02*
Y24341D01*
X11559Y24140D02*
X11961D01*
X11760Y23939D02*
Y24341D01*
X10559Y24140D02*
X10961D01*
X10760Y23939D02*
Y24341D01*
X9559Y24140D02*
X9961D01*
X9760Y23939D02*
Y24341D01*
X8559Y24140D02*
X8961D01*
X8760Y23939D02*
Y24341D01*
X7559Y24140D02*
X7961D01*
X7760Y23939D02*
Y24341D01*
X6559Y24140D02*
X6961D01*
X6760Y23939D02*
Y24341D01*
X5559Y24140D02*
X5961D01*
X5760Y23939D02*
Y24341D01*
X20599Y34100D02*
X21001D01*
X20800Y33899D02*
Y34301D01*
X19599Y34100D02*
X20001D01*
X19800Y33899D02*
Y34301D01*
X18599Y34100D02*
X19001D01*
X18800Y33899D02*
Y34301D01*
X17599Y34100D02*
X18001D01*
X17800Y33899D02*
Y34301D01*
X16599Y34100D02*
X17001D01*
X16800Y33899D02*
Y34301D01*
X15599Y34100D02*
X16001D01*
X15800Y33899D02*
Y34301D01*
X14599Y34100D02*
X15001D01*
X14800Y33899D02*
Y34301D01*
X13599Y34100D02*
X14001D01*
X13800Y33899D02*
Y34301D01*
X12599Y34100D02*
X13001D01*
X12800Y33899D02*
Y34301D01*
X11599Y34100D02*
X12001D01*
X11800Y33899D02*
Y34301D01*
X10599Y34100D02*
X11001D01*
X10800Y33899D02*
Y34301D01*
X9599Y34100D02*
X10001D01*
X9800Y33899D02*
Y34301D01*
X8599Y34100D02*
X9001D01*
X8800Y33899D02*
Y34301D01*
X7599Y34100D02*
X8001D01*
X7800Y33899D02*
Y34301D01*
X6599Y34100D02*
X7001D01*
X6800Y33899D02*
Y34301D01*
X5599Y34100D02*
X6001D01*
X5800Y33899D02*
Y34301D01*
X5599Y32400D02*
X6001D01*
X5800Y32199D02*
Y32601D01*
X6599Y32400D02*
X7001D01*
X6800Y32199D02*
Y32601D01*
X7599Y32400D02*
X8001D01*
X7800Y32199D02*
Y32601D01*
X8599Y32400D02*
X9001D01*
X8800Y32199D02*
Y32601D01*
X9599Y32400D02*
X10001D01*
X9800Y32199D02*
Y32601D01*
X10599Y32400D02*
X11001D01*
X10800Y32199D02*
Y32601D01*
X11599Y32400D02*
X12001D01*
X11800Y32199D02*
Y32601D01*
X12599Y32400D02*
X13001D01*
X12800Y32199D02*
Y32601D01*
X13599Y32400D02*
X14001D01*
X13800Y32199D02*
Y32601D01*
X14599Y32400D02*
X15001D01*
X14800Y32199D02*
Y32601D01*
X15599Y32400D02*
X16001D01*
X15800Y32199D02*
Y32601D01*
X16599Y32400D02*
X17001D01*
X16800Y32199D02*
Y32601D01*
X17599Y32400D02*
X18001D01*
X17800Y32199D02*
Y32601D01*
X18599Y32400D02*
X19001D01*
X18800Y32199D02*
Y32601D01*
X19599Y32400D02*
X20001D01*
X19800Y32199D02*
Y32601D01*
X5599Y26400D02*
X6001D01*
X5800Y26199D02*
Y26601D01*
X6599Y26400D02*
X7001D01*
X6800Y26199D02*
Y26601D01*
X7599Y26400D02*
X8001D01*
X7800Y26199D02*
Y26601D01*
X8599Y26400D02*
X9001D01*
X8800Y26199D02*
Y26601D01*
X9599Y26400D02*
X10001D01*
X9800Y26199D02*
Y26601D01*
X10599Y26400D02*
X11001D01*
X10800Y26199D02*
Y26601D01*
X11599Y26400D02*
X12001D01*
X11800Y26199D02*
Y26601D01*
X12599Y26400D02*
X13001D01*
X12800Y26199D02*
Y26601D01*
X13599Y26400D02*
X14001D01*
X13800Y26199D02*
Y26601D01*
X14599Y26400D02*
X15001D01*
X14800Y26199D02*
Y26601D01*
X15599Y26400D02*
X16001D01*
X15800Y26199D02*
Y26601D01*
X16599Y26400D02*
X17001D01*
X16800Y26199D02*
Y26601D01*
X17599Y26400D02*
X18001D01*
X17800Y26199D02*
Y26601D01*
X18599Y26400D02*
X19001D01*
X18800Y26199D02*
Y26601D01*
X19599Y26400D02*
X20001D01*
X19800Y26199D02*
Y26601D01*
X18400Y45050D02*
X18700D01*
X18550Y44900D02*
Y45200D01*
X18400Y44050D02*
X18700D01*
X18550Y43900D02*
Y44200D01*
X18400Y43050D02*
X18700D01*
X18550Y42900D02*
Y43200D01*
X18400Y42050D02*
X18700D01*
X18550Y41900D02*
Y42200D01*
X18400Y41050D02*
X18700D01*
X18550Y40900D02*
Y41200D01*
X18400Y40050D02*
X18700D01*
X18550Y39900D02*
Y40200D01*
X10050Y15250D02*
X10350D01*
X10200Y15100D02*
Y15400D01*
X11050Y15250D02*
X11350D01*
X11200Y15100D02*
Y15400D01*
X12050Y15250D02*
X12350D01*
X12200Y15100D02*
Y15400D01*
X13050Y15250D02*
X13350D01*
X13200Y15100D02*
Y15400D01*
X14050Y15250D02*
X14350D01*
X14200Y15100D02*
Y15400D01*
X15050Y15250D02*
X15350D01*
X15200Y15100D02*
Y15400D01*
X16050Y15250D02*
X16350D01*
X16200Y15100D02*
Y15400D01*
X17050Y15250D02*
X17350D01*
X17200Y15100D02*
Y15400D01*
X20950Y15500D02*
X21750D01*
X21350Y15100D02*
Y15900D01*
X25950Y15500D02*
X26750D01*
X26350Y15100D02*
Y15900D01*
X5250Y35600D02*
X5750D01*
X5500Y35350D02*
Y35850D01*
X8250Y35600D02*
X8750D01*
X8500Y35350D02*
Y35850D01*
X5250Y37100D02*
X5750D01*
X5500Y36850D02*
Y37350D01*
X8250Y37100D02*
X8750D01*
X8500Y36850D02*
Y37350D01*
X3750Y35600D02*
X4250D01*
X4000Y35350D02*
Y35850D01*
X6750Y35600D02*
X7250D01*
X7000Y35350D02*
Y35850D01*
X3750Y37100D02*
X4250D01*
X4000Y36850D02*
Y37350D01*
X6750Y37100D02*
X7250D01*
X7000Y36850D02*
Y37350D01*
X17627Y39050D02*
X18473D01*
X18050Y38627D02*
Y39473D01*
X17627Y46050D02*
X18473D01*
X18050Y45627D02*
Y46473D01*
X32391Y46050D02*
X33237D01*
X32814Y45627D02*
Y46473D01*
X32391Y39050D02*
X33237D01*
X32814Y38627D02*
Y39473D01*
X19331Y6500D02*
X20669D01*
X20000Y5831D02*
Y7169D01*
X40331Y6500D02*
X41669D01*
X41000Y5831D02*
Y7169D01*
X40331Y54000D02*
X41669D01*
X41000Y53331D02*
Y54669D01*
X19331Y54000D02*
X20669D01*
X20000Y53331D02*
Y54669D01*
X37534Y53813D02*
X38334D01*
X37934Y53413D02*
Y54213D01*
X52462Y24114D02*
X53262D01*
X52862Y23714D02*
Y24514D01*
X18750Y14200D02*
X19250D01*
X19000Y13950D02*
Y14450D01*
X20050Y11900D02*
X20550D01*
X20300Y11650D02*
Y12150D01*
X19550Y45000D02*
X20050D01*
X19800Y44750D02*
Y45250D01*
X15150Y45900D02*
X15650D01*
X15400Y45650D02*
Y46150D01*
X10750Y13500D02*
X11250D01*
X11000Y13250D02*
Y13750D01*
X11250Y29500D02*
X11750D01*
X11500Y29250D02*
Y29750D01*
X11250Y28000D02*
X11750D01*
X11500Y27750D02*
Y28250D01*
X11250Y31100D02*
X11750D01*
X11500Y30850D02*
Y31350D01*
X35243Y17493D02*
X35743D01*
X35493Y17243D02*
Y17743D01*
X33828Y16078D02*
X34328D01*
X34078Y15828D02*
Y16328D01*
X33828Y13250D02*
X34328D01*
X34078Y13000D02*
Y13500D01*
X36657Y16078D02*
X37157D01*
X36907Y15828D02*
Y16328D01*
X35243Y14664D02*
X35743D01*
X35493Y14414D02*
Y14914D01*
X32414Y11836D02*
X32914D01*
X32664Y11586D02*
Y12086D01*
X31000Y13250D02*
X31500D01*
X31250Y13000D02*
Y13500D01*
X32414Y14664D02*
X32914D01*
X32664Y14414D02*
Y14914D01*
X10009Y19950D02*
X11191D01*
X10600Y19359D02*
Y20541D01*
X16209Y19950D02*
X17391D01*
X16800Y19359D02*
Y20541D01*
M02*
