G04*
G04 #@! TF.GenerationSoftware,Altium Limited,Altium Designer,20.2.8 (258)*
G04*
G04 Layer_Color=8388736*
%FSLAX24Y24*%
%MOIN*%
G70*
G04*
G04 #@! TF.SameCoordinates,38B3CD4D-B414-478E-BCC0-3ABEE8A09775*
G04*
G04*
G04 #@! TF.FilePolarity,Negative*
G04*
G01*
G75*
%ADD10C,0.0100*%
G04:AMPARAMS|DCode=15|XSize=308mil|YSize=408mil|CornerRadius=0mil|HoleSize=0mil|Usage=FLASHONLY|Rotation=315.000|XOffset=0mil|YOffset=0mil|HoleType=Round|Shape=Rectangle|*
%AMROTATEDRECTD15*
4,1,4,-0.2531,-0.0354,0.0354,0.2531,0.2531,0.0354,-0.0354,-0.2531,-0.2531,-0.0354,0.0*
%
%ADD15ROTATEDRECTD15*%

G04:AMPARAMS|DCode=16|XSize=308mil|YSize=408mil|CornerRadius=0mil|HoleSize=0mil|Usage=FLASHONLY|Rotation=225.000|XOffset=0mil|YOffset=0mil|HoleType=Round|Shape=Rectangle|*
%AMROTATEDRECTD16*
4,1,4,-0.0354,0.2531,0.2531,-0.0354,0.0354,-0.2531,-0.2531,0.0354,-0.0354,0.2531,0.0*
%
%ADD16ROTATEDRECTD16*%

%ADD17R,0.4017X0.2049*%
%ADD18R,0.0680X0.0680*%
%ADD19C,0.0680*%
%ADD20R,0.0682X0.0682*%
%ADD21C,0.0682*%
%ADD22R,0.0680X0.0680*%
%ADD23C,0.0880*%
%ADD24C,0.1045*%
%ADD25C,0.1458*%
%ADD26C,0.0930*%
%ADD27C,0.0830*%
%ADD28C,0.1580*%
D10*
X7350Y38750D02*
G03*
X13300Y44700I0J5950D01*
G01*
X40000Y24094D02*
G03*
X40000Y35906I0J5906D01*
G01*
X30000D02*
G03*
X30000Y24094I0J-5906D01*
G01*
X1287Y38779D02*
G03*
X13276Y54936I28713J-8779D01*
G01*
X1300Y38750D02*
X7500D01*
X13306Y44700D02*
Y54900D01*
X30000Y24094D02*
X40232D01*
X30000Y35906D02*
X40232D01*
D15*
X35000Y53000D02*
D03*
X52048Y35952D02*
D03*
D16*
Y27048D02*
D03*
X35000Y10000D02*
D03*
D17*
X26950Y49650D02*
D03*
Y52650D02*
D03*
Y55650D02*
D03*
D18*
X5760Y24140D02*
D03*
X5800Y34100D02*
D03*
X10250Y15250D02*
D03*
D19*
X6760Y24140D02*
D03*
X7760D02*
D03*
X8760D02*
D03*
X9760D02*
D03*
X10760D02*
D03*
X11760D02*
D03*
X12760D02*
D03*
X13760D02*
D03*
X14760D02*
D03*
X15760D02*
D03*
X16760D02*
D03*
X17760D02*
D03*
X18760D02*
D03*
X19760D02*
D03*
X20760D02*
D03*
X6800Y34100D02*
D03*
X7800D02*
D03*
X8800D02*
D03*
X9800D02*
D03*
X10800D02*
D03*
X11800D02*
D03*
X12800D02*
D03*
X13800D02*
D03*
X14800D02*
D03*
X15800D02*
D03*
X16800D02*
D03*
X17800D02*
D03*
X18800D02*
D03*
X19800D02*
D03*
X20800D02*
D03*
X18500Y40000D02*
D03*
Y41000D02*
D03*
Y42000D02*
D03*
Y43000D02*
D03*
Y44000D02*
D03*
X11250Y15250D02*
D03*
X12250D02*
D03*
X13250D02*
D03*
X14250D02*
D03*
X15250D02*
D03*
X16250D02*
D03*
X17250D02*
D03*
X20750Y21000D02*
D03*
X21750D02*
D03*
X22750D02*
D03*
X23750D02*
D03*
X24750D02*
D03*
X25750D02*
D03*
D20*
X5800Y32400D02*
D03*
Y26400D02*
D03*
D21*
X6800Y32400D02*
D03*
X7800D02*
D03*
X8800D02*
D03*
X9800D02*
D03*
X10800D02*
D03*
X11800D02*
D03*
X12800D02*
D03*
X13800D02*
D03*
X14800D02*
D03*
X15800D02*
D03*
X16800D02*
D03*
X17800D02*
D03*
X18800D02*
D03*
X19800D02*
D03*
X6800Y26400D02*
D03*
X7800D02*
D03*
X8800D02*
D03*
X9800D02*
D03*
X10800D02*
D03*
X11800D02*
D03*
X12800D02*
D03*
X13800D02*
D03*
X14800D02*
D03*
X15800D02*
D03*
X16800D02*
D03*
X17800D02*
D03*
X18800D02*
D03*
X19800D02*
D03*
D22*
X18500Y45000D02*
D03*
X26750Y21000D02*
D03*
D23*
X37934Y53813D02*
D03*
X52862Y24114D02*
D03*
D24*
X32764Y39000D02*
D03*
Y46000D02*
D03*
X18000D02*
D03*
Y39000D02*
D03*
D25*
X10650Y19950D02*
D03*
X16850D02*
D03*
D26*
X26250Y15500D02*
D03*
X21250D02*
D03*
D27*
X11250Y13750D02*
D03*
X19875Y43975D02*
D03*
X19800Y45800D02*
D03*
X8600Y15300D02*
D03*
X28400Y21000D02*
D03*
X5500Y35600D02*
D03*
X8500D02*
D03*
X5500Y37100D02*
D03*
X8500D02*
D03*
X4000Y35600D02*
D03*
X7000D02*
D03*
X4000Y37100D02*
D03*
X7000D02*
D03*
Y30500D02*
D03*
X9000D02*
D03*
X5000D02*
D03*
X35493Y17493D02*
D03*
X34078Y16078D02*
D03*
Y13250D02*
D03*
X36907Y16078D02*
D03*
X35493Y14664D02*
D03*
X32664Y11836D02*
D03*
X31250Y13250D02*
D03*
X32664Y14664D02*
D03*
D28*
X20000Y6500D02*
D03*
X41000D02*
D03*
Y54000D02*
D03*
X20000D02*
D03*
M02*
