G04*
G04 #@! TF.GenerationSoftware,Altium Limited,Altium Designer,20.2.8 (258)*
G04*
G04 Layer_Physical_Order=2*
G04 Layer_Color=32768*
%FSLAX24Y24*%
%MOIN*%
G70*
G04*
G04 #@! TF.SameCoordinates,38B3CD4D-B414-478E-BCC0-3ABEE8A09775*
G04*
G04*
G04 #@! TF.FilePolarity,Negative*
G04*
G01*
G75*
%ADD10C,0.0100*%
%ADD14C,0.0400*%
%ADD43C,0.0802*%
G04:AMPARAMS|DCode=44|XSize=100.157mil|YSize=100.157mil|CornerRadius=0mil|HoleSize=0mil|Usage=FLASHONLY|Rotation=0.000|XOffset=0mil|YOffset=0mil|HoleType=Round|Shape=Relief|Width=10mil|Gap=10mil|Entries=4|*
%AMTHD44*
7,0,0,0.1002,0.0802,0.0100,45*
%
%ADD44THD44*%
%ADD45C,0.0700*%
G04:AMPARAMS|DCode=46|XSize=90mil|YSize=90mil|CornerRadius=0mil|HoleSize=0mil|Usage=FLASHONLY|Rotation=0.000|XOffset=0mil|YOffset=0mil|HoleType=Round|Shape=Relief|Width=10mil|Gap=10mil|Entries=4|*
%AMTHD46*
7,0,0,0.0900,0.0700,0.0100,45*
%
%ADD46THD46*%
%ADD47C,0.1200*%
%ADD48C,0.1246*%
%ADD49C,0.1581*%
G04:AMPARAMS|DCode=50|XSize=110mil|YSize=110mil|CornerRadius=0mil|HoleSize=0mil|Usage=FLASHONLY|Rotation=0.000|XOffset=0mil|YOffset=0mil|HoleType=Round|Shape=Relief|Width=10mil|Gap=10mil|Entries=4|*
%AMTHD50*
7,0,0,0.1100,0.0900,0.0100,45*
%
%ADD50THD50*%
%ADD51C,0.0900*%
%ADD52C,0.1739*%
G36*
X13428Y55043D02*
X13443Y55028D01*
X13450Y55010D01*
Y55000D01*
Y54990D01*
X13443Y54972D01*
X13428Y54957D01*
X13410Y54950D01*
X13311D01*
X13320Y54949D01*
X13337Y54940D01*
X13349Y54927D01*
X13356Y54909D01*
Y54900D01*
Y44700D01*
Y44697D01*
X13355Y44691D01*
X13354Y44685D01*
X13351Y44680D01*
X13350Y44677D01*
X13349Y44446D01*
X13312Y43985D01*
X13239Y43529D01*
X13132Y43080D01*
X12990Y42640D01*
X12815Y42212D01*
X12608Y41799D01*
X12369Y41404D01*
X12101Y41027D01*
X11804Y40673D01*
X11481Y40342D01*
X11134Y40038D01*
X10764Y39760D01*
X10374Y39513D01*
X9966Y39295D01*
X9543Y39110D01*
X9107Y38958D01*
X8660Y38840D01*
X8205Y38757D01*
X7746Y38708D01*
X7515Y38702D01*
X7515Y38702D01*
X7513Y38702D01*
X7509Y38701D01*
X7506Y38700D01*
X7502Y38700D01*
X1297D01*
X1290Y38701D01*
X1284Y38702D01*
X1278Y38705D01*
X1275Y38707D01*
X1263Y38700D01*
X1237Y38700D01*
X1213Y38713D01*
X1200Y38737D01*
Y38750D01*
Y44250D01*
Y44255D01*
X1202Y44265D01*
X1206Y44274D01*
X1211Y44282D01*
X1215Y44286D01*
X11964Y55035D01*
X11968Y55039D01*
X11976Y55044D01*
X11985Y55048D01*
X11995Y55050D01*
X13410D01*
X13428Y55043D01*
D02*
G37*
G36*
X30000Y35855D02*
X40001D01*
X40231Y35855D01*
X40689Y35819D01*
X41144Y35747D01*
X41591Y35640D01*
X42029Y35498D01*
X42454Y35321D01*
X42864Y35113D01*
X43256Y34872D01*
X43628Y34602D01*
X43978Y34303D01*
X44303Y33978D01*
X44602Y33628D01*
X44872Y33255D01*
X45113Y32863D01*
X45322Y32453D01*
X45498Y32028D01*
X45640Y31591D01*
X45747Y31143D01*
X45819Y30689D01*
X45855Y30230D01*
Y30000D01*
Y29770D01*
X45819Y29311D01*
X45747Y28857D01*
X45640Y28410D01*
X45498Y27973D01*
X45322Y27548D01*
X45113Y27138D01*
X44873Y26745D01*
X44603Y26373D01*
X44304Y26023D01*
X43979Y25698D01*
X43629Y25399D01*
X43257Y25129D01*
X42865Y24888D01*
X42456Y24679D01*
X42031Y24503D01*
X41593Y24361D01*
X41146Y24253D01*
X40692Y24181D01*
X40233Y24145D01*
X40003Y24145D01*
X40000D01*
X40003Y24145D01*
X30000Y24145D01*
X29770D01*
X29311Y24181D01*
X28857Y24253D01*
X28409Y24360D01*
X27972Y24502D01*
X27547Y24678D01*
X27137Y24887D01*
X26744Y25128D01*
X26372Y25398D01*
X26022Y25697D01*
X25697Y26022D01*
X25398Y26372D01*
X25128Y26744D01*
X24887Y27137D01*
X24678Y27547D01*
X24502Y27972D01*
X24360Y28409D01*
X24253Y28857D01*
X24181Y29311D01*
X24145Y29770D01*
X24145Y30230D01*
X24181Y30689D01*
X24253Y31143D01*
X24360Y31590D01*
X24502Y32028D01*
X24678Y32453D01*
X24887Y32863D01*
X25128Y33255D01*
X25398Y33628D01*
X25697Y33978D01*
X26022Y34303D01*
X26372Y34602D01*
X26744Y34872D01*
X27137Y35113D01*
X27546Y35321D01*
X27972Y35498D01*
X28409Y35640D01*
X28856Y35747D01*
X29311Y35819D01*
X29770Y35855D01*
X30000Y35855D01*
X30000D01*
X30000Y35855D01*
Y35855D01*
D02*
G37*
D10*
X7350Y38750D02*
G03*
X13300Y44700I0J5950D01*
G01*
X40000Y24094D02*
G03*
X40000Y35906I0J5906D01*
G01*
X30000D02*
G03*
X30000Y24094I0J-5906D01*
G01*
X1287Y38779D02*
G03*
X13276Y54936I28713J-8779D01*
G01*
X1300Y38750D02*
X7500D01*
X13306Y44700D02*
Y54900D01*
X30000Y24094D02*
X40232D01*
X30000Y35906D02*
X40232D01*
D14*
X31193Y60057D02*
X32275Y59994D01*
X33354Y59893D01*
X34428Y59752D01*
X35497Y59574D01*
X36559Y59356D01*
X37612Y59101D01*
X38655Y58808D01*
X39687Y58478D01*
X40707Y58110D01*
X41712Y57706D01*
X42703Y57267D01*
X43676Y56791D01*
X44633Y56281D01*
X45570Y55737D01*
X46487Y55160D01*
X47382Y54550D01*
X48255Y53908D01*
X49104Y53235D01*
X49929Y52531D01*
X50727Y51799D01*
X51499Y51038D01*
X52243Y50250D01*
X52958Y49436D01*
X53643Y48596D01*
X54297Y47733D01*
X54920Y46846D01*
X55511Y45938D01*
X56069Y45008D01*
X56592Y44060D01*
X57081Y43093D01*
X57535Y42109D01*
X57954Y41109D01*
X58336Y40095D01*
X58681Y39068D01*
X58989Y38029D01*
X59259Y36980D01*
X59492Y35921D01*
X59686Y34855D01*
X59841Y33783D01*
X59958Y32706D01*
X60036Y31625D01*
X60075Y30542D01*
Y30000D02*
Y30542D01*
Y29461D02*
Y30000D01*
X60037Y28385D02*
X60075Y29461D01*
X59960Y27310D02*
X60037Y28385D01*
X59844Y26239D02*
X59960Y27310D01*
X59690Y25173D02*
X59844Y26239D01*
X59498Y24113D02*
X59690Y25173D01*
X59269Y23060D02*
X59498Y24113D01*
X59001Y22017D02*
X59269Y23060D01*
X58697Y20983D02*
X59001Y22017D01*
X58356Y19962D02*
X58697Y20983D01*
X57978Y18953D02*
X58356Y19962D01*
X57565Y17958D02*
X57978Y18953D01*
X57116Y16979D02*
X57565Y17958D01*
X56632Y16016D02*
X57116Y16979D01*
X56114Y15071D02*
X56632Y16016D01*
X55563Y14146D02*
X56114Y15071D01*
X54979Y13241D02*
X55563Y14146D01*
X54363Y12357D02*
X54979Y13241D01*
X53715Y11496D02*
X54363Y12357D01*
X53037Y10659D02*
X53715Y11496D01*
X52330Y9846D02*
X53037Y10659D01*
X51594Y9059D02*
X52330Y9846D01*
X50830Y8300D02*
X51594Y9059D01*
X50040Y7568D02*
X50830Y8300D01*
X49224Y6864D02*
X50040Y7568D01*
X48383Y6191D02*
X49224Y6864D01*
X47519Y5548D02*
X48383Y6191D01*
X46632Y4936D02*
X47519Y5548D01*
X45724Y4357D02*
X46632Y4936D01*
X44795Y3810D02*
X45724Y4357D01*
X43848Y3297D02*
X44795Y3810D01*
X42883Y2818D02*
X43848Y3297D01*
X41902Y2375D02*
X42883Y2818D01*
X40905Y1966D02*
X41902Y2375D01*
X39894Y1594D02*
X40905Y1966D01*
X38870Y1258D02*
X39894Y1594D01*
X37835Y958D02*
X38870Y1258D01*
X36791Y696D02*
X37835Y958D01*
X35737Y472D02*
X36791Y696D01*
X34676Y286D02*
X35737Y472D01*
X33609Y137D02*
X34676Y286D01*
X32537Y27D02*
X33609Y137D01*
X31462Y-45D02*
X32537Y27D01*
X30386Y-78D02*
X31462Y-45D01*
X29308Y-72D02*
X30386Y-78D01*
X28232Y-28D02*
X29308Y-72D01*
X27158Y54D02*
X28232Y-28D01*
X26087Y175D02*
X27158Y54D01*
X25022Y335D02*
X26087Y175D01*
X23963Y532D02*
X25022Y335D01*
X22911Y767D02*
X23963Y532D01*
X21869Y1040D02*
X22911Y767D01*
X20837Y1349D02*
X21869Y1040D01*
X19817Y1696D02*
X20837Y1349D01*
X18810Y2079D02*
X19817Y1696D01*
X17818Y2497D02*
X18810Y2079D01*
X16841Y2951D02*
X17818Y2497D01*
X15881Y3440D02*
X16841Y2951D01*
X14939Y3962D02*
X15881Y3440D01*
X14016Y4518D02*
X14939Y3962D01*
X13114Y5107D02*
X14016Y4518D01*
X12233Y5727D02*
X13114Y5107D01*
X11375Y6379D02*
X12233Y5727D01*
X10542Y7061D02*
X11375Y6379D01*
X9733Y7773D02*
X10542Y7061D01*
X8950Y8513D02*
X9733Y7773D01*
X8194Y9280D02*
X8950Y8513D01*
X7466Y10074D02*
X8194Y9280D01*
X6767Y10894D02*
X7466Y10074D01*
X6098Y11738D02*
X6767Y10894D01*
X5459Y12606D02*
X6098Y11738D01*
X4852Y13496D02*
X5459Y12606D01*
X4277Y14407D02*
X4852Y13496D01*
X3735Y15338D02*
X4277Y14407D01*
X3227Y16288D02*
X3735Y15338D01*
X2753Y17255D02*
X3227Y16288D01*
X2314Y18239D02*
X2753Y17255D01*
X1911Y19238D02*
X2314Y18239D01*
X1544Y20251D02*
X1911Y19238D01*
X1213Y21276D02*
X1544Y20251D01*
X919Y22312D02*
X1213Y21276D01*
X662Y23359D02*
X919Y22312D01*
X443Y24414D02*
X662Y23359D01*
X262Y25475D02*
X443Y24414D01*
X119Y26543D02*
X262Y25475D01*
X15Y27615D02*
X119Y26543D01*
X-52Y28691D02*
X15Y27615D01*
X-79Y29768D02*
X-52Y28691D01*
X-79Y29768D02*
X-68Y30845D01*
X-19Y31921D01*
X69Y32995D01*
X196Y34064D01*
X360Y35129D01*
X563Y36187D01*
X803Y37237D01*
X1081Y38278D01*
X1214Y38713D01*
X1237Y38700D01*
X1263Y38700D01*
X1275Y38707D01*
X1278Y38705D01*
X1284Y38702D01*
X1290Y38701D01*
X1297Y38700D01*
X7502D01*
X7506Y38700D01*
X7509Y38701D01*
X7513Y38702D01*
X7515Y38702D01*
X7515Y38702D02*
X7515Y38702D01*
X7515Y38702D02*
X7746Y38708D01*
X8205Y38757D01*
X8660Y38840D01*
X9107Y38958D01*
X9543Y39110D01*
X9966Y39295D01*
X10374Y39513D01*
X10764Y39760D01*
X11134Y40038D01*
X11481Y40342D01*
X11804Y40673D01*
X12101Y41027D01*
X12369Y41404D01*
X12608Y41799D01*
X12815Y42212D01*
X12990Y42640D01*
X13132Y43080D01*
X13239Y43529D01*
X13312Y43985D01*
X13349Y44446D01*
X13350Y44677D01*
X13351Y44680D01*
X13354Y44685D01*
X13355Y44691D01*
X13356Y44697D01*
Y44700D01*
Y54900D01*
Y54909D01*
X13349Y54927D02*
X13356Y54909D01*
X13337Y54940D02*
X13349Y54927D01*
X13320Y54949D02*
X13337Y54940D01*
X13311Y54950D02*
X13320Y54949D01*
X13311Y54950D02*
X13410D01*
X13428Y54957D01*
X13443Y54972D01*
X13450Y54990D01*
Y55000D01*
Y55010D01*
X13443Y55028D02*
X13450Y55010D01*
X13428Y55043D02*
X13443Y55028D01*
X13410Y55050D02*
X13428Y55043D01*
X13356Y55050D02*
X13410D01*
X13356D02*
X13698Y55280D01*
X14619Y55850D01*
X15560Y56388D01*
X16520Y56891D01*
X17497Y57359D01*
X18491Y57791D01*
X19499Y58188D01*
X20521Y58548D01*
X21556Y58871D01*
X22601Y59156D01*
X23656Y59404D01*
X24719Y59613D01*
X25789Y59784D01*
X26865Y59916D01*
X27944Y60010D01*
X29026Y60064D01*
X30110Y60080D01*
X31193Y60057D01*
X30000Y35855D02*
X30000Y35855D01*
X30000Y35855D02*
X30000D01*
X29770Y35855D02*
X30000Y35855D01*
X29311Y35819D02*
X29770Y35855D01*
X28856Y35747D02*
X29311Y35819D01*
X28409Y35640D02*
X28856Y35747D01*
X27972Y35498D02*
X28409Y35640D01*
X27546Y35321D02*
X27972Y35498D01*
X27137Y35113D02*
X27546Y35321D01*
X26744Y34872D02*
X27137Y35113D01*
X26372Y34602D02*
X26744Y34872D01*
X26022Y34303D02*
X26372Y34602D01*
X25697Y33978D02*
X26022Y34303D01*
X25398Y33628D02*
X25697Y33978D01*
X25128Y33255D02*
X25398Y33628D01*
X24887Y32863D02*
X25128Y33255D01*
X24678Y32453D02*
X24887Y32863D01*
X24502Y32028D02*
X24678Y32453D01*
X24360Y31590D02*
X24502Y32028D01*
X24253Y31143D02*
X24360Y31590D01*
X24181Y30689D02*
X24253Y31143D01*
X24145Y30230D02*
X24181Y30689D01*
X24145Y30230D02*
X24145Y29770D01*
X24181Y29311D01*
X24253Y28857D01*
X24360Y28409D01*
X24502Y27972D01*
X24678Y27547D01*
X24887Y27137D01*
X25128Y26744D01*
X25398Y26372D01*
X25697Y26022D01*
X26022Y25697D01*
X26372Y25398D01*
X26744Y25128D01*
X27137Y24887D01*
X27547Y24678D01*
X27972Y24502D01*
X28409Y24360D01*
X28857Y24253D01*
X29311Y24181D01*
X29770Y24145D01*
X30000D01*
X40003Y24145D01*
X40000Y24145D02*
X40003Y24145D01*
X40000Y24145D02*
X40003D01*
X40233Y24145D01*
X40692Y24181D01*
X41146Y24253D01*
X41593Y24361D01*
X42031Y24503D01*
X42456Y24679D01*
X42865Y24888D01*
X43257Y25129D01*
X43629Y25399D01*
X43979Y25698D01*
X44304Y26023D01*
X44603Y26373D01*
X44873Y26745D01*
X45113Y27138D01*
X45322Y27548D01*
X45498Y27973D01*
X45640Y28410D01*
X45747Y28857D01*
X45819Y29311D01*
X45855Y29770D01*
Y30000D01*
Y30230D01*
X45819Y30689D02*
X45855Y30230D01*
X45747Y31143D02*
X45819Y30689D01*
X45640Y31591D02*
X45747Y31143D01*
X45498Y32028D02*
X45640Y31591D01*
X45322Y32453D02*
X45498Y32028D01*
X45113Y32863D02*
X45322Y32453D01*
X44872Y33255D02*
X45113Y32863D01*
X44602Y33628D02*
X44872Y33255D01*
X44303Y33978D02*
X44602Y33628D01*
X43978Y34303D02*
X44303Y33978D01*
X43628Y34602D02*
X43978Y34303D01*
X43256Y34872D02*
X43628Y34602D01*
X42864Y35113D02*
X43256Y34872D01*
X42454Y35321D02*
X42864Y35113D01*
X42029Y35498D02*
X42454Y35321D01*
X41591Y35640D02*
X42029Y35498D01*
X41144Y35747D02*
X41591Y35640D01*
X40689Y35819D02*
X41144Y35747D01*
X40231Y35855D02*
X40689Y35819D01*
X40001Y35855D02*
X40231Y35855D01*
X30000Y35855D02*
X40001D01*
X30000D02*
Y35855D01*
D43*
X5760Y24140D02*
D03*
X6760D02*
D03*
X7760D02*
D03*
X9760D02*
D03*
X10760D02*
D03*
X11760D02*
D03*
X12760D02*
D03*
X13760D02*
D03*
X14760D02*
D03*
X15760D02*
D03*
X16760D02*
D03*
X17760D02*
D03*
X18760D02*
D03*
X19760D02*
D03*
X20760D02*
D03*
X5800Y34100D02*
D03*
X7800D02*
D03*
X8800D02*
D03*
X9800D02*
D03*
X10800D02*
D03*
X11800D02*
D03*
X12800D02*
D03*
X13800D02*
D03*
X14800D02*
D03*
X15800D02*
D03*
X16800D02*
D03*
X17800D02*
D03*
X18800D02*
D03*
X19800D02*
D03*
X20800D02*
D03*
X5800Y32400D02*
D03*
X7800D02*
D03*
X8800D02*
D03*
X9800D02*
D03*
X10800D02*
D03*
X11800D02*
D03*
X12800D02*
D03*
X13800D02*
D03*
X14800D02*
D03*
X15800D02*
D03*
X16800D02*
D03*
X17800D02*
D03*
X18800D02*
D03*
X19800D02*
D03*
X5800Y26400D02*
D03*
X6800D02*
D03*
X7800D02*
D03*
X9800D02*
D03*
X10800D02*
D03*
X11800D02*
D03*
X12800D02*
D03*
X13800D02*
D03*
X14800D02*
D03*
X15800D02*
D03*
X16800D02*
D03*
X17800D02*
D03*
X18800D02*
D03*
X19800D02*
D03*
D44*
X8760Y24140D02*
D03*
X6800Y34100D02*
D03*
Y32400D02*
D03*
X8800Y26400D02*
D03*
D45*
X18500Y40000D02*
D03*
Y41000D02*
D03*
Y42000D02*
D03*
Y43000D02*
D03*
Y44000D02*
D03*
X10250Y15250D02*
D03*
X12250D02*
D03*
X13250D02*
D03*
X14250D02*
D03*
X15250D02*
D03*
X16250D02*
D03*
X17250D02*
D03*
X20750Y21000D02*
D03*
X21750D02*
D03*
X22750D02*
D03*
X23750D02*
D03*
X25750D02*
D03*
X26750D02*
D03*
D46*
X18500Y45000D02*
D03*
X11250Y15250D02*
D03*
X24750Y21000D02*
D03*
D47*
X37934Y53813D02*
D03*
X52862Y24114D02*
D03*
X26250Y15500D02*
D03*
X21250D02*
D03*
D48*
X32764Y39000D02*
D03*
Y46000D02*
D03*
X18000D02*
D03*
Y39000D02*
D03*
D49*
X10650Y19950D02*
D03*
X16850D02*
D03*
D50*
X11250Y13750D02*
D03*
X19800Y45800D02*
D03*
X7000Y30500D02*
D03*
X9000D02*
D03*
X5000D02*
D03*
X35493Y17493D02*
D03*
X34078Y16078D02*
D03*
Y13250D02*
D03*
X36907Y16078D02*
D03*
X35493Y14664D02*
D03*
X32664Y11836D02*
D03*
X31250Y13250D02*
D03*
X32664Y14664D02*
D03*
D51*
X19875Y43975D02*
D03*
X8600Y15300D02*
D03*
X28400Y21000D02*
D03*
X5500Y35600D02*
D03*
X8500D02*
D03*
X5500Y37100D02*
D03*
X8500D02*
D03*
X4000Y35600D02*
D03*
X7000D02*
D03*
X4000Y37100D02*
D03*
X7000D02*
D03*
D52*
X20000Y6500D02*
D03*
X41000D02*
D03*
Y54000D02*
D03*
X20000D02*
D03*
M02*
