G04*
G04 #@! TF.GenerationSoftware,Altium Limited,Altium Designer,20.2.8 (258)*
G04*
G04 Layer_Color=128*
%FSLAX24Y24*%
%MOIN*%
G70*
G04*
G04 #@! TF.SameCoordinates,38B3CD4D-B414-478E-BCC0-3ABEE8A09775*
G04*
G04*
G04 #@! TF.FilePolarity,Positive*
G04*
G01*
G75*
%ADD10C,0.0100*%
%ADD53C,0.0020*%
D10*
X7350Y38750D02*
G03*
X13300Y44700I0J5950D01*
G01*
X40000Y24094D02*
G03*
X40000Y35906I0J5906D01*
G01*
X30000D02*
G03*
X30000Y24094I0J-5906D01*
G01*
X1287Y38779D02*
G03*
X13276Y54936I28713J-8779D01*
G01*
X1300Y38750D02*
X7500D01*
X13306Y44700D02*
Y54900D01*
X30000Y24094D02*
X40232D01*
X30000Y35906D02*
X40232D01*
D53*
X5559Y24140D02*
X5961D01*
X5760Y23939D02*
Y24341D01*
X6559Y24140D02*
X6961D01*
X6760Y23939D02*
Y24341D01*
X7559Y24140D02*
X7961D01*
X7760Y23939D02*
Y24341D01*
X8559Y24140D02*
X8961D01*
X8760Y23939D02*
Y24341D01*
X9559Y24140D02*
X9961D01*
X9760Y23939D02*
Y24341D01*
X10559Y24140D02*
X10961D01*
X10760Y23939D02*
Y24341D01*
X11559Y24140D02*
X11961D01*
X11760Y23939D02*
Y24341D01*
X12559Y24140D02*
X12961D01*
X12760Y23939D02*
Y24341D01*
X13559Y24140D02*
X13961D01*
X13760Y23939D02*
Y24341D01*
X14559Y24140D02*
X14961D01*
X14760Y23939D02*
Y24341D01*
X15559Y24140D02*
X15961D01*
X15760Y23939D02*
Y24341D01*
X16559Y24140D02*
X16961D01*
X16760Y23939D02*
Y24341D01*
X17559Y24140D02*
X17961D01*
X17760Y23939D02*
Y24341D01*
X18559Y24140D02*
X18961D01*
X18760Y23939D02*
Y24341D01*
X19559Y24140D02*
X19961D01*
X19760Y23939D02*
Y24341D01*
X20559Y24140D02*
X20961D01*
X20760Y23939D02*
Y24341D01*
X5599Y34100D02*
X6001D01*
X5800Y33899D02*
Y34301D01*
X6599Y34100D02*
X7001D01*
X6800Y33899D02*
Y34301D01*
X7599Y34100D02*
X8001D01*
X7800Y33899D02*
Y34301D01*
X8599Y34100D02*
X9001D01*
X8800Y33899D02*
Y34301D01*
X9599Y34100D02*
X10001D01*
X9800Y33899D02*
Y34301D01*
X10599Y34100D02*
X11001D01*
X10800Y33899D02*
Y34301D01*
X11599Y34100D02*
X12001D01*
X11800Y33899D02*
Y34301D01*
X12599Y34100D02*
X13001D01*
X12800Y33899D02*
Y34301D01*
X13599Y34100D02*
X14001D01*
X13800Y33899D02*
Y34301D01*
X14599Y34100D02*
X15001D01*
X14800Y33899D02*
Y34301D01*
X15599Y34100D02*
X16001D01*
X15800Y33899D02*
Y34301D01*
X16599Y34100D02*
X17001D01*
X16800Y33899D02*
Y34301D01*
X17599Y34100D02*
X18001D01*
X17800Y33899D02*
Y34301D01*
X18599Y34100D02*
X19001D01*
X18800Y33899D02*
Y34301D01*
X19599Y34100D02*
X20001D01*
X19800Y33899D02*
Y34301D01*
X20599Y34100D02*
X21001D01*
X20800Y33899D02*
Y34301D01*
X5599Y32400D02*
X6001D01*
X5800Y32199D02*
Y32601D01*
X6599Y32400D02*
X7001D01*
X6800Y32199D02*
Y32601D01*
X7599Y32400D02*
X8001D01*
X7800Y32199D02*
Y32601D01*
X8599Y32400D02*
X9001D01*
X8800Y32199D02*
Y32601D01*
X9599Y32400D02*
X10001D01*
X9800Y32199D02*
Y32601D01*
X10599Y32400D02*
X11001D01*
X10800Y32199D02*
Y32601D01*
X11599Y32400D02*
X12001D01*
X11800Y32199D02*
Y32601D01*
X12599Y32400D02*
X13001D01*
X12800Y32199D02*
Y32601D01*
X13599Y32400D02*
X14001D01*
X13800Y32199D02*
Y32601D01*
X14599Y32400D02*
X15001D01*
X14800Y32199D02*
Y32601D01*
X15599Y32400D02*
X16001D01*
X15800Y32199D02*
Y32601D01*
X16599Y32400D02*
X17001D01*
X16800Y32199D02*
Y32601D01*
X17599Y32400D02*
X18001D01*
X17800Y32199D02*
Y32601D01*
X18599Y32400D02*
X19001D01*
X18800Y32199D02*
Y32601D01*
X19599Y32400D02*
X20001D01*
X19800Y32199D02*
Y32601D01*
X5599Y26400D02*
X6001D01*
X5800Y26199D02*
Y26601D01*
X6599Y26400D02*
X7001D01*
X6800Y26199D02*
Y26601D01*
X7599Y26400D02*
X8001D01*
X7800Y26199D02*
Y26601D01*
X8599Y26400D02*
X9001D01*
X8800Y26199D02*
Y26601D01*
X9599Y26400D02*
X10001D01*
X9800Y26199D02*
Y26601D01*
X10599Y26400D02*
X11001D01*
X10800Y26199D02*
Y26601D01*
X11599Y26400D02*
X12001D01*
X11800Y26199D02*
Y26601D01*
X12599Y26400D02*
X13001D01*
X12800Y26199D02*
Y26601D01*
X13599Y26400D02*
X14001D01*
X13800Y26199D02*
Y26601D01*
X14599Y26400D02*
X15001D01*
X14800Y26199D02*
Y26601D01*
X15599Y26400D02*
X16001D01*
X15800Y26199D02*
Y26601D01*
X16599Y26400D02*
X17001D01*
X16800Y26199D02*
Y26601D01*
X17599Y26400D02*
X18001D01*
X17800Y26199D02*
Y26601D01*
X18599Y26400D02*
X19001D01*
X18800Y26199D02*
Y26601D01*
X19599Y26400D02*
X20001D01*
X19800Y26199D02*
Y26601D01*
X18350Y40000D02*
X18650D01*
X18500Y39850D02*
Y40150D01*
X18350Y41000D02*
X18650D01*
X18500Y40850D02*
Y41150D01*
X18350Y42000D02*
X18650D01*
X18500Y41850D02*
Y42150D01*
X18350Y43000D02*
X18650D01*
X18500Y42850D02*
Y43150D01*
X18350Y44000D02*
X18650D01*
X18500Y43850D02*
Y44150D01*
X18350Y45000D02*
X18650D01*
X18500Y44850D02*
Y45150D01*
X10100Y15250D02*
X10400D01*
X10250Y15100D02*
Y15400D01*
X11100Y15250D02*
X11400D01*
X11250Y15100D02*
Y15400D01*
X12100Y15250D02*
X12400D01*
X12250Y15100D02*
Y15400D01*
X13100Y15250D02*
X13400D01*
X13250Y15100D02*
Y15400D01*
X14100Y15250D02*
X14400D01*
X14250Y15100D02*
Y15400D01*
X15100Y15250D02*
X15400D01*
X15250Y15100D02*
Y15400D01*
X16100Y15250D02*
X16400D01*
X16250Y15100D02*
Y15400D01*
X17100Y15250D02*
X17400D01*
X17250Y15100D02*
Y15400D01*
X20600Y21000D02*
X20900D01*
X20750Y20850D02*
Y21150D01*
X21600Y21000D02*
X21900D01*
X21750Y20850D02*
Y21150D01*
X22600Y21000D02*
X22900D01*
X22750Y20850D02*
Y21150D01*
X23600Y21000D02*
X23900D01*
X23750Y20850D02*
Y21150D01*
X24600Y21000D02*
X24900D01*
X24750Y20850D02*
Y21150D01*
X25600Y21000D02*
X25900D01*
X25750Y20850D02*
Y21150D01*
X26600Y21000D02*
X26900D01*
X26750Y20850D02*
Y21150D01*
X37534Y53813D02*
X38334D01*
X37934Y53413D02*
Y54213D01*
X52462Y24114D02*
X53262D01*
X52862Y23714D02*
Y24514D01*
X32341Y39000D02*
X33187D01*
X32764Y38577D02*
Y39423D01*
X32341Y46000D02*
X33187D01*
X32764Y45577D02*
Y46423D01*
X17577Y46000D02*
X18423D01*
X18000Y45577D02*
Y46423D01*
X17577Y39000D02*
X18423D01*
X18000Y38577D02*
Y39423D01*
X10059Y19950D02*
X11241D01*
X10650Y19359D02*
Y20541D01*
X16259Y19950D02*
X17441D01*
X16850Y19359D02*
Y20541D01*
X25850Y15500D02*
X26650D01*
X26250Y15100D02*
Y15900D01*
X20850Y15500D02*
X21650D01*
X21250Y15100D02*
Y15900D01*
X11000Y13750D02*
X11500D01*
X11250Y13500D02*
Y14000D01*
X19625Y43975D02*
X20125D01*
X19875Y43725D02*
Y44225D01*
X19550Y45800D02*
X20050D01*
X19800Y45550D02*
Y46050D01*
X8350Y15300D02*
X8850D01*
X8600Y15050D02*
Y15550D01*
X28150Y21000D02*
X28650D01*
X28400Y20750D02*
Y21250D01*
X5250Y35600D02*
X5750D01*
X5500Y35350D02*
Y35850D01*
X8250Y35600D02*
X8750D01*
X8500Y35350D02*
Y35850D01*
X5250Y37100D02*
X5750D01*
X5500Y36850D02*
Y37350D01*
X8250Y37100D02*
X8750D01*
X8500Y36850D02*
Y37350D01*
X3750Y35600D02*
X4250D01*
X4000Y35350D02*
Y35850D01*
X6750Y35600D02*
X7250D01*
X7000Y35350D02*
Y35850D01*
X3750Y37100D02*
X4250D01*
X4000Y36850D02*
Y37350D01*
X6750Y37100D02*
X7250D01*
X7000Y36850D02*
Y37350D01*
X6750Y30500D02*
X7250D01*
X7000Y30250D02*
Y30750D01*
X8750Y30500D02*
X9250D01*
X9000Y30250D02*
Y30750D01*
X4750Y30500D02*
X5250D01*
X5000Y30250D02*
Y30750D01*
X35243Y17493D02*
X35743D01*
X35493Y17243D02*
Y17743D01*
X33828Y16078D02*
X34328D01*
X34078Y15828D02*
Y16328D01*
X33828Y13250D02*
X34328D01*
X34078Y13000D02*
Y13500D01*
X36657Y16078D02*
X37157D01*
X36907Y15828D02*
Y16328D01*
X35243Y14664D02*
X35743D01*
X35493Y14414D02*
Y14914D01*
X32414Y11836D02*
X32914D01*
X32664Y11586D02*
Y12086D01*
X31000Y13250D02*
X31500D01*
X31250Y13000D02*
Y13500D01*
X32414Y14664D02*
X32914D01*
X32664Y14414D02*
Y14914D01*
X19331Y6500D02*
X20669D01*
X20000Y5831D02*
Y7169D01*
X40331Y6500D02*
X41669D01*
X41000Y5831D02*
Y7169D01*
X40331Y54000D02*
X41669D01*
X41000Y53331D02*
Y54669D01*
X19331Y54000D02*
X20669D01*
X20000Y53331D02*
Y54669D01*
M02*
