G04*
G04 #@! TF.GenerationSoftware,Altium Limited,Altium Designer,20.2.8 (258)*
G04*
G04 Layer_Color=65280*
%FSLAX24Y24*%
%MOIN*%
G70*
G04*
G04 #@! TF.SameCoordinates,38B3CD4D-B414-478E-BCC0-3ABEE8A09775*
G04*
G04*
G04 #@! TF.FilePolarity,Positive*
G04*
G01*
G75*
%ADD10C,0.0100*%
%ADD11C,0.0079*%
%ADD12C,0.0200*%
%ADD13C,0.0050*%
D10*
X5260Y23640D02*
X21260D01*
X5260D02*
Y24640D01*
X21260D01*
Y23640D02*
Y24640D01*
X5300Y33600D02*
X21300D01*
X5300D02*
Y34600D01*
X21300D01*
Y33600D02*
Y34600D01*
X24450Y48150D02*
X29450D01*
Y57150D01*
X24450D02*
X29450D01*
X24450Y48150D02*
Y57150D01*
X17100Y38200D02*
Y46800D01*
Y38200D02*
X33500D01*
Y46800D01*
X17100D02*
X33500D01*
X9750Y14750D02*
X17750D01*
Y20850D01*
X9750D02*
X17750D01*
X9750Y14750D02*
Y20850D01*
X20250Y22000D02*
X27250D01*
X20250Y14500D02*
Y22000D01*
Y14500D02*
X27250D01*
Y22000D01*
X7228Y38800D02*
X7234Y38794D01*
X7350Y38750D02*
G03*
X13300Y44700I0J5950D01*
G01*
X40000Y24094D02*
G03*
X40000Y35906I0J5906D01*
G01*
X30000D02*
G03*
X30000Y24094I0J-5906D01*
G01*
X1287Y38779D02*
G03*
X13276Y54936I28713J-8779D01*
G01*
X1300Y38750D02*
X7500D01*
X13306Y44700D02*
Y54900D01*
X30000Y24094D02*
X40232D01*
X30000Y35906D02*
X40232D01*
D11*
X5727Y25463D02*
G03*
X5727Y25463I-39J0D01*
G01*
D12*
X35707Y56536D02*
X55506Y36737D01*
X51263Y32494D02*
X55506Y36737D01*
X31464Y52293D02*
X51263Y32494D01*
X31464Y52293D02*
X35707Y56536D01*
X35785Y6542D02*
X55584Y26341D01*
X31542Y10785D02*
X35785Y6542D01*
X31542Y10785D02*
X51341Y30584D01*
X55584Y26341D01*
D13*
X2284Y25750D02*
X22083D01*
Y33050D01*
X2284D02*
X22083D01*
X2284Y25750D02*
Y33050D01*
M02*
