M48
;Layer_Color=9474304
;FILE_FORMAT=2:4
INCH,LZ
;TYPE=PLATED
T1F00S00C0.0300
T2F00S00C0.0402
T3F00S00C0.0500
T4F00S00C0.0800
T5F00S00C0.0846
T6F00S00C0.1181
T7F00S00C0.1339
%
T01
X01025Y01525
X01125
X01225
X01325
X01425
X01525
X01625
X01725
X02075Y021
X02175
X02275
X02375
X02475
X02575
X02675
X0185Y04
Y041
Y042
Y043
Y044
Y045
T02
X01576Y02414
X01676
X01776
X01876
X01976
X02076
X0198Y0264
X0188
X0178
X0168
X0158
X0148
X0138
X0128
X0118
X0108
X0098
X0088
X0078
X0068
X0058
X00576Y02414
X00676
X00776
X00876
X00976
X01076
X01176
X01276
X01376
X01476
X0148Y0324
X0138
X0128
X0118
X0108
X0098
X0088
X0078
X0068
X0058
Y0341
X0068
X0078
X0088
X0098
X0108
X0118
X0128
X0138
X0148
X0158
X0168
X0178
X0188
X0198
X0208
X0198Y0324
X0188
X0178
X0168
X0158
T03
X0086Y0153
X01125Y01375
X03125Y01325
X034078
X032664Y011836
Y014664
X035493
Y017493
X034078Y016078
X036907
X0284Y021
X009Y0305
X007
X005
X0055Y0356
Y0371
X004
Y0356
X007
X0085
Y0371
X007
X019875Y043975
X0198Y0458
T04
X02125Y0155
X02625
X052862Y024114
X037934Y053813
T05
X018Y039
Y046
X032764
Y039
T06
X01685Y01995
X01065
T07
X02Y0065
X041
Y054
X02
M30
