G04*
G04 #@! TF.GenerationSoftware,Altium Limited,Altium Designer,20.2.8 (258)*
G04*
G04 Layer_Color=32896*
%FSLAX24Y24*%
%MOIN*%
G70*
G04*
G04 #@! TF.SameCoordinates,457248F5-DA73-466C-AE77-A18651DC037B*
G04*
G04*
G04 #@! TF.FilePolarity,Positive*
G04*
G01*
G75*
%ADD10C,0.0100*%
%ADD57C,0.0200*%
D10*
X2500Y19800D02*
Y19200D01*
X2200D01*
X2100Y19300D01*
Y19400D01*
X2200Y19500D01*
X2500D01*
X2200D01*
X2100Y19600D01*
Y19700D01*
X2200Y19800D01*
X2500D01*
X1500Y19200D02*
X1900D01*
X1500Y19600D01*
Y19700D01*
X1600Y19800D01*
X1800D01*
X1900Y19700D01*
X11830Y23510D02*
X12003Y22867D01*
X12411Y22631D01*
X12646Y23039D01*
X12474Y23683D01*
X12603Y23200D01*
X11959Y23028D01*
X12796Y23769D02*
X12968Y23125D01*
X13376Y22890D01*
X13612Y23298D01*
X13439Y23942D01*
X13569Y23459D01*
X12925Y23286D01*
X14986Y23321D02*
X14727Y24287D01*
X15210Y24416D01*
X15414Y24298D01*
X15457Y24137D01*
X15339Y23933D01*
X14856Y23804D01*
X15339Y23933D01*
X15543Y23815D01*
X15586Y23654D01*
X15468Y23450D01*
X14986Y23321D01*
X16026Y23945D02*
X16348Y24031D01*
X16466Y24235D01*
X16336Y24718D01*
X15854Y24589D01*
X15736Y24384D01*
X15940Y24267D01*
X16423Y24396D01*
X17035Y24043D02*
X16992Y24204D01*
X16831Y24160D01*
X17153Y24247D01*
X16992Y24204D01*
X16862Y24686D01*
X16980Y24890D01*
X17839Y24258D02*
X17796Y24419D01*
X17635Y24376D01*
X17957Y24462D01*
X17796Y24419D01*
X17667Y24902D01*
X17785Y25106D01*
X18750Y25365D02*
X18428Y25278D01*
X18311Y25074D01*
X18397Y24753D01*
X18601Y24635D01*
X18923Y24721D01*
X19041Y24925D01*
X18998Y25086D01*
X18354Y24913D01*
X19406Y24850D02*
X19233Y25494D01*
X19319Y25172D01*
X19523Y25054D01*
X19728Y24937D01*
X19888Y24980D01*
X20371Y25109D02*
X20242Y25592D01*
X20360Y25796D01*
X20843Y25925D01*
X20799Y26086D01*
X20595Y26204D01*
X20434Y26161D01*
X20843Y25925D02*
X21015Y25282D01*
X2900Y13800D02*
Y13200D01*
X2600D01*
X2500Y13300D01*
Y13400D01*
X2600Y13500D01*
X2900D01*
X2600D01*
X2500Y13600D01*
Y13700D01*
X2600Y13800D01*
X2900D01*
X2300Y13200D02*
X2100D01*
X2200D01*
Y13800D01*
X2300Y13700D01*
X21159Y8584D02*
X21275Y9241D01*
X21005Y9627D01*
X20619Y9356D01*
X20503Y8700D01*
X20590Y9192D01*
X21246Y9076D01*
X20175Y8758D02*
X20290Y9414D01*
X20020Y9800D01*
X19634Y9530D01*
X19518Y8874D01*
X19605Y9366D01*
X20261Y9250D01*
X18379Y10089D02*
X18206Y9105D01*
X17713Y9192D01*
X17578Y9385D01*
X17607Y9549D01*
X17800Y9684D01*
X18292Y9597D01*
X17800Y9684D01*
X17665Y9877D01*
X17694Y10041D01*
X17887Y10176D01*
X18379Y10089D01*
X17173Y9964D02*
X16845Y10022D01*
X16652Y9887D01*
X16565Y9394D01*
X17057Y9308D01*
X17250Y9443D01*
X17115Y9636D01*
X16623Y9722D01*
X16217Y10302D02*
X16188Y10137D01*
X16352Y10109D01*
X16024Y10166D01*
X16188Y10137D01*
X16102Y9645D01*
X15909Y9510D01*
X15397Y10446D02*
X15368Y10282D01*
X15532Y10253D01*
X15204Y10311D01*
X15368Y10282D01*
X15281Y9790D01*
X15088Y9655D01*
X14104Y9828D02*
X14432Y9770D01*
X14625Y9906D01*
X14683Y10234D01*
X14548Y10427D01*
X14219Y10485D01*
X14026Y10349D01*
X13997Y10185D01*
X14654Y10070D01*
X13727Y10571D02*
X13611Y9915D01*
X13669Y10243D01*
X13534Y10436D01*
X13399Y10629D01*
X13235Y10658D01*
X12743Y10745D02*
X12656Y10253D01*
X12463Y10118D01*
X11971Y10204D01*
X11942Y10040D01*
X12077Y9847D01*
X12241Y9818D01*
X11971Y10204D02*
X12086Y10861D01*
X33638Y9050D02*
G03*
X24795Y15065I-5660J1187D01*
G01*
X25050Y21050D02*
G03*
X33638Y27050I2891J5008D01*
G01*
X18050Y21050D02*
G03*
X18050Y15050I0J-3000D01*
G01*
X33638Y27050D02*
G03*
X33638Y9050I-15588J-9000D01*
G01*
X18100Y15050D02*
X24805D01*
X18050Y21050D02*
X25050D01*
D57*
X1727Y23737D02*
X28880Y31012D01*
X2530Y20742D02*
X3322Y17787D01*
X1727Y23737D02*
X2530Y20742D01*
X3322Y17787D02*
X30474Y25062D01*
X29682Y28018D02*
X30474Y25062D01*
X28880Y31012D02*
X29682Y28018D01*
X2537Y8991D02*
X30220Y4110D01*
X30758Y7163D02*
X31289Y10176D01*
X30220Y4110D02*
X30758Y7163D01*
X3607Y15057D02*
X31289Y10176D01*
X3075Y12044D02*
X3607Y15057D01*
X2537Y8991D02*
X3075Y12044D01*
M02*
