G04*
G04 #@! TF.GenerationSoftware,Altium Limited,Altium Designer,20.2.8 (258)*
G04*
G04 Layer_Physical_Order=2*
G04 Layer_Color=32768*
%FSLAX24Y24*%
%MOIN*%
G70*
G04*
G04 #@! TF.SameCoordinates,457248F5-DA73-466C-AE77-A18651DC037B*
G04*
G04*
G04 #@! TF.FilePolarity,Negative*
G04*
G01*
G75*
%ADD10C,0.0100*%
%ADD42C,0.0400*%
%ADD43C,0.0802*%
G04:AMPARAMS|DCode=44|XSize=100.157mil|YSize=100.157mil|CornerRadius=0mil|HoleSize=0mil|Usage=FLASHONLY|Rotation=0.000|XOffset=0mil|YOffset=0mil|HoleType=Round|Shape=Relief|Width=10mil|Gap=10mil|Entries=4|*
%AMTHD44*
7,0,0,0.1002,0.0802,0.0100,45*
%
%ADD44THD44*%
%ADD45C,0.0700*%
G04:AMPARAMS|DCode=46|XSize=90mil|YSize=90mil|CornerRadius=0mil|HoleSize=0mil|Usage=FLASHONLY|Rotation=0.000|XOffset=0mil|YOffset=0mil|HoleType=Round|Shape=Relief|Width=10mil|Gap=10mil|Entries=4|*
%AMTHD46*
7,0,0,0.0900,0.0700,0.0100,45*
%
%ADD46THD46*%
%ADD47C,0.1200*%
%ADD48C,0.1739*%
G04:AMPARAMS|DCode=49|XSize=87.992mil|YSize=87.992mil|CornerRadius=0mil|HoleSize=0mil|Usage=FLASHONLY|Rotation=0.000|XOffset=0mil|YOffset=0mil|HoleType=Round|Shape=Relief|Width=10mil|Gap=10mil|Entries=4|*
%AMTHD49*
7,0,0,0.0880,0.0680,0.0100,45*
%
%ADD49THD49*%
%ADD50C,0.0680*%
%ADD51C,0.1581*%
%ADD52C,0.1246*%
D10*
X33638Y9050D02*
G03*
X24795Y15065I-5660J1187D01*
G01*
X25050Y21050D02*
G03*
X33638Y27050I2891J5008D01*
G01*
X18050Y21050D02*
G03*
X18050Y15050I0J-3000D01*
G01*
X33638Y27050D02*
G03*
X33638Y9050I-15588J-9000D01*
G01*
X18100Y15050D02*
X24805D01*
X18050Y21050D02*
X25050D01*
D42*
X33638Y9050D02*
G03*
X24795Y15065I-5660J1187D01*
G01*
X18050Y21050D02*
G03*
X18050Y15050I0J-3000D01*
G01*
X25050Y21050D02*
G03*
X33638Y27050I2891J5008D01*
G01*
D02*
G03*
X33638Y9050I-15588J-9000D01*
G01*
X24795Y15065D02*
X24805Y15050D01*
X18050D02*
X24805D01*
X18050Y21050D02*
X25050D01*
D43*
X23383Y5230D02*
D03*
X24683Y12840D02*
D03*
X23698Y13014D02*
D03*
X22713Y13187D02*
D03*
X20744Y13534D02*
D03*
X19759Y13708D02*
D03*
X18774Y13882D02*
D03*
X17789Y14055D02*
D03*
X16804Y14229D02*
D03*
X15820Y14403D02*
D03*
X14835Y14576D02*
D03*
X13850Y14750D02*
D03*
X12865Y14924D02*
D03*
X11880Y15097D02*
D03*
X10896Y15271D02*
D03*
X9911Y15445D02*
D03*
X22987Y3269D02*
D03*
X21018Y3616D02*
D03*
X20033Y3790D02*
D03*
X19048Y3964D02*
D03*
X18063Y4137D02*
D03*
X17078Y4311D02*
D03*
X16094Y4484D02*
D03*
X15109Y4658D02*
D03*
X14124Y4832D02*
D03*
X13139Y5005D02*
D03*
X12154Y5179D02*
D03*
X11170Y5353D02*
D03*
X10185Y5526D02*
D03*
X9200Y5700D02*
D03*
X8215Y5874D02*
D03*
X21413Y5578D02*
D03*
X20428Y5751D02*
D03*
X19444Y5925D02*
D03*
X18459Y6099D02*
D03*
X17474Y6272D02*
D03*
X16489Y6446D02*
D03*
X15504Y6620D02*
D03*
X14520Y6793D02*
D03*
X13535Y6967D02*
D03*
X12550Y7141D02*
D03*
X11565Y7314D02*
D03*
X10580Y7488D02*
D03*
X9596Y7662D02*
D03*
X24425Y11139D02*
D03*
X23440Y11313D02*
D03*
X22455Y11487D02*
D03*
X20485Y11834D02*
D03*
X19501Y12008D02*
D03*
X18516Y12181D02*
D03*
X17531Y12355D02*
D03*
X16546Y12529D02*
D03*
X15561Y12702D02*
D03*
X14577Y12876D02*
D03*
X13592Y13049D02*
D03*
X12607Y13223D02*
D03*
X11622Y13397D02*
D03*
X10637Y13570D02*
D03*
D44*
X21728Y13361D02*
D03*
X22002Y3443D02*
D03*
X22398Y5404D02*
D03*
X21470Y11660D02*
D03*
D45*
X7452Y25924D02*
D03*
X9384Y26441D02*
D03*
X10350Y26700D02*
D03*
X11316Y26959D02*
D03*
X12282Y27218D02*
D03*
X13248Y27476D02*
D03*
X14214Y27735D02*
D03*
X8582Y17118D02*
D03*
X7616Y16859D02*
D03*
X6650Y16600D02*
D03*
X5684Y16341D02*
D03*
X3752Y15824D02*
D03*
X2786Y15565D02*
D03*
X16777Y29757D02*
D03*
X17321Y30595D02*
D03*
X17866Y31434D02*
D03*
X18411Y32273D02*
D03*
X18955Y33111D02*
D03*
D46*
X8418Y26182D02*
D03*
X4718Y16082D02*
D03*
X19500Y33950D02*
D03*
D47*
X6596Y19088D02*
D03*
X27771Y10380D02*
D03*
X1846Y21007D02*
D03*
X6675Y22301D02*
D03*
D48*
X31500Y23500D02*
D03*
X3500Y26000D02*
D03*
X6000Y7000D02*
D03*
X30000Y13000D02*
D03*
D49*
X27500Y30250D02*
D03*
X26000Y29750D02*
D03*
X25000Y29000D02*
D03*
X25250Y27750D02*
D03*
X25500Y26500D02*
D03*
X25750Y25250D02*
D03*
X18700Y34300D02*
D03*
X8200Y27000D02*
D03*
X4450Y17050D02*
D03*
D50*
X20650Y6900D02*
D03*
X8100Y18650D02*
D03*
X7800Y17750D02*
D03*
X17450Y9350D02*
D03*
X18450Y9850D02*
D03*
X13500Y10700D02*
D03*
X16500Y10450D02*
D03*
X18100Y33450D02*
D03*
X7200Y26800D02*
D03*
X2500Y16500D02*
D03*
D51*
X6622Y30567D02*
D03*
X12611Y32172D02*
D03*
D52*
X28195Y21149D02*
D03*
X32007Y27020D02*
D03*
X19625Y35061D02*
D03*
X15813Y29190D02*
D03*
M02*
