M48
;Layer_Color=9474304
;FILE_FORMAT=2:4
INCH,LZ
;TYPE=PLATED
T1F00S00C0.0280
T2F00S00C0.0300
T3F00S00C0.0402
T4F00S00C0.0800
T5F00S00C0.0846
T6F00S00C0.1181
T7F00S00C0.1339
%
T01
X0135Y0107
X0165Y01045
X01745Y00935
X01845Y00985
X02065Y0069
X02575Y02525
X0255Y0265
X02525Y02775
X025Y029
X026Y02975
X0275Y03025
X0082Y027
X0072Y0268
X0081Y01865
X0078Y01775
X00445Y01705
X0025Y0165
X0181Y03345
X0187Y0343
T02
X002786Y015565
X016777Y029757
X017321Y030595
X014214Y027735
X013248Y027476
X012282Y027218
X011316Y026959
X01035Y0267
X009384Y026441
X008418Y026182
X007452Y025924
X007616Y016859
X008582Y017118
X00665Y0166
X005684Y016341
X004718Y016082
X003752Y015824
X017866Y031434
X018411Y032273
X018955Y033111
X0195Y03395
T03
X008215Y005874
X0092Y0057
X010185Y005526
X01117Y005353
X012154Y005179
X013139Y005005
X014124Y004832
X015109Y004658
X015504Y00662
X01452Y006793
X013535Y006967
X01255Y007141
X011565Y007314
X01058Y007488
X009596Y007662
X010637Y01357
X011622Y013397
X012607Y013223
X013592Y013049
X014577Y012876
X015561Y012702
X014835Y014576
X01385Y01475
X012865Y014924
X01188Y015097
X010896Y015271
X009911Y015445
X01582Y014403
X016804Y014229
X017789Y014055
X018774Y013882
X019759Y013708
X020744Y013534
X021728Y013361
X022713Y013187
X023698Y013014
X024683Y01284
X024425Y011139
X02344Y011313
X022455Y011487
X02147Y01166
X020485Y011834
X019501Y012008
X018516Y012181
X017531Y012355
X016546Y012529
X016489Y006446
X017474Y006272
X018459Y006099
X019444Y005925
X020428Y005751
X021413Y005578
X022398Y005404
X023383Y00523
X022987Y003269
X022002Y003443
X021018Y003616
X020033Y00379
X019048Y003964
X018063Y004137
X017078Y004311
X016094Y004484
T04
X027771Y01038
X006596Y019088
X006675Y022301
X001846Y021007
T05
X032007Y02702
X028195Y021149
X015813Y02919
X019625Y035061
T06
X006622Y030567
X012611Y032172
T07
X006Y007
X03Y013
X0315Y0235
X0035Y026
M30
