G04*
G04 #@! TF.GenerationSoftware,Altium Limited,Altium Designer,20.2.8 (258)*
G04*
G04 Layer_Color=2752767*
%FSLAX24Y24*%
%MOIN*%
G70*
G04*
G04 #@! TF.SameCoordinates,457248F5-DA73-466C-AE77-A18651DC037B*
G04*
G04*
G04 #@! TF.FilePolarity,Positive*
G04*
G01*
G75*
%ADD10C,0.0100*%
%ADD58C,0.0020*%
%ADD59C,0.0027*%
D10*
X33638Y9050D02*
G03*
X24795Y15065I-5660J1187D01*
G01*
X25050Y21050D02*
G03*
X33638Y27050I2891J5008D01*
G01*
X18050Y21050D02*
G03*
X18050Y15050I0J-3000D01*
G01*
X33638Y27050D02*
G03*
X33638Y9050I-15588J-9000D01*
G01*
X18100Y15050D02*
X24805D01*
X18050Y21050D02*
X25050D01*
D58*
X23303Y5150D02*
Y5310D01*
X23463D01*
Y5150D01*
X23303D01*
X24603Y12760D02*
Y12920D01*
X24763D01*
Y12760D01*
X24603D01*
X23618Y12934D02*
Y13094D01*
X23778D01*
Y12934D01*
X23618D01*
X22633Y13107D02*
Y13267D01*
X22793D01*
Y13107D01*
X22633D01*
X21648Y13281D02*
Y13441D01*
X21808D01*
Y13281D01*
X21648D01*
X20664Y13454D02*
Y13614D01*
X20824D01*
Y13454D01*
X20664D01*
X19679Y13628D02*
Y13788D01*
X19839D01*
Y13628D01*
X19679D01*
X18694Y13802D02*
Y13962D01*
X18854D01*
Y13802D01*
X18694D01*
X17709Y13975D02*
Y14135D01*
X17869D01*
Y13975D01*
X17709D01*
X16724Y14149D02*
Y14309D01*
X16884D01*
Y14149D01*
X16724D01*
X15740Y14323D02*
Y14483D01*
X15900D01*
Y14323D01*
X15740D01*
X14755Y14496D02*
Y14656D01*
X14915D01*
Y14496D01*
X14755D01*
X13770Y14670D02*
Y14830D01*
X13930D01*
Y14670D01*
X13770D01*
X12785Y14844D02*
Y15004D01*
X12945D01*
Y14844D01*
X12785D01*
X11800Y15017D02*
Y15177D01*
X11960D01*
Y15017D01*
X11800D01*
X10816Y15191D02*
Y15351D01*
X10976D01*
Y15191D01*
X10816D01*
X9831Y15365D02*
Y15525D01*
X9991D01*
Y15365D01*
X9831D01*
X22907Y3189D02*
Y3349D01*
X23067D01*
Y3189D01*
X22907D01*
X21923Y3363D02*
Y3523D01*
X22083D01*
Y3363D01*
X21923D01*
X20938Y3536D02*
Y3696D01*
X21098D01*
Y3536D01*
X20938D01*
X19953Y3710D02*
Y3870D01*
X20113D01*
Y3710D01*
X19953D01*
X18968Y3884D02*
Y4044D01*
X19128D01*
Y3884D01*
X18968D01*
X17983Y4057D02*
Y4217D01*
X18143D01*
Y4057D01*
X17983D01*
X16998Y4231D02*
Y4391D01*
X17158D01*
Y4231D01*
X16998D01*
X16014Y4404D02*
Y4564D01*
X16174D01*
Y4404D01*
X16014D01*
X15029Y4578D02*
Y4738D01*
X15189D01*
Y4578D01*
X15029D01*
X14044Y4752D02*
Y4912D01*
X14204D01*
Y4752D01*
X14044D01*
X13059Y4925D02*
Y5085D01*
X13219D01*
Y4925D01*
X13059D01*
X12074Y5099D02*
Y5259D01*
X12234D01*
Y5099D01*
X12074D01*
X11090Y5273D02*
Y5433D01*
X11250D01*
Y5273D01*
X11090D01*
X10105Y5446D02*
Y5606D01*
X10265D01*
Y5446D01*
X10105D01*
X9120Y5620D02*
Y5780D01*
X9280D01*
Y5620D01*
X9120D01*
X8135Y5794D02*
Y5954D01*
X8295D01*
Y5794D01*
X8135D01*
X22318Y5324D02*
Y5484D01*
X22478D01*
Y5324D01*
X22318D01*
X21333Y5498D02*
Y5658D01*
X21493D01*
Y5498D01*
X21333D01*
X20348Y5671D02*
Y5831D01*
X20508D01*
Y5671D01*
X20348D01*
X19364Y5845D02*
Y6005D01*
X19524D01*
Y5845D01*
X19364D01*
X18379Y6019D02*
Y6179D01*
X18539D01*
Y6019D01*
X18379D01*
X17394Y6192D02*
Y6352D01*
X17554D01*
Y6192D01*
X17394D01*
X16409Y6366D02*
Y6526D01*
X16569D01*
Y6366D01*
X16409D01*
X15424Y6540D02*
Y6700D01*
X15584D01*
Y6540D01*
X15424D01*
X14440Y6713D02*
Y6873D01*
X14600D01*
Y6713D01*
X14440D01*
X13455Y6887D02*
Y7047D01*
X13615D01*
Y6887D01*
X13455D01*
X12470Y7061D02*
Y7221D01*
X12630D01*
Y7061D01*
X12470D01*
X11485Y7234D02*
Y7394D01*
X11645D01*
Y7234D01*
X11485D01*
X10500Y7408D02*
Y7568D01*
X10660D01*
Y7408D01*
X10500D01*
X9516Y7582D02*
Y7742D01*
X9675D01*
Y7582D01*
X9516D01*
X24345Y11059D02*
Y11219D01*
X24505D01*
Y11059D01*
X24345D01*
X23360Y11233D02*
Y11393D01*
X23520D01*
Y11233D01*
X23360D01*
X22375Y11407D02*
Y11567D01*
X22535D01*
Y11407D01*
X22375D01*
X21390Y11580D02*
Y11740D01*
X21550D01*
Y11580D01*
X21390D01*
X20405Y11754D02*
Y11914D01*
X20565D01*
Y11754D01*
X20405D01*
X19421Y11928D02*
Y12088D01*
X19581D01*
Y11928D01*
X19421D01*
X18436Y12101D02*
Y12261D01*
X18596D01*
Y12101D01*
X18436D01*
X17451Y12275D02*
Y12435D01*
X17611D01*
Y12275D01*
X17451D01*
X16466Y12449D02*
Y12609D01*
X16626D01*
Y12449D01*
X16466D01*
X15481Y12622D02*
Y12782D01*
X15641D01*
Y12622D01*
X15481D01*
X14497Y12796D02*
Y12956D01*
X14657D01*
Y12796D01*
X14497D01*
X13512Y12969D02*
Y13129D01*
X13672D01*
Y12969D01*
X13512D01*
X12527Y13143D02*
Y13303D01*
X12687D01*
Y13143D01*
X12527D01*
X11542Y13317D02*
Y13477D01*
X11702D01*
Y13317D01*
X11542D01*
X10557Y13490D02*
Y13650D01*
X10717D01*
Y13490D01*
X10557D01*
X6596Y19008D02*
X6516Y19168D01*
X6676D01*
X6596Y19008D01*
X27771Y10300D02*
X27691Y10460D01*
X27851D01*
X27771Y10300D01*
X31500Y23420D02*
X31540Y23460D01*
X31580D01*
X31540Y23500D01*
X31580Y23540D01*
X31540D01*
X31500Y23580D01*
X31460Y23540D01*
X31420D01*
X31460Y23500D01*
X31420Y23460D01*
X31460D01*
X31500Y23420D01*
X3500Y25920D02*
X3540Y25960D01*
X3580D01*
X3540Y26000D01*
X3580Y26040D01*
X3540D01*
X3500Y26080D01*
X3460Y26040D01*
X3420D01*
X3460Y26000D01*
X3420Y25960D01*
X3460D01*
X3500Y25920D01*
X6000Y6920D02*
X6040Y6960D01*
X6080D01*
X6040Y7000D01*
X6080Y7040D01*
X6040D01*
X6000Y7080D01*
X5960Y7040D01*
X5920D01*
X5960Y7000D01*
X5920Y6960D01*
X5960D01*
X6000Y6920D01*
X30000Y12920D02*
X30040Y12960D01*
X30080D01*
X30040Y13000D01*
X30080Y13040D01*
X30040D01*
X30000Y13080D01*
X29960Y13040D01*
X29920D01*
X29960Y13000D01*
X29920Y12960D01*
X29960D01*
X30000Y12920D01*
X27420Y30170D02*
X27460Y30250D01*
X27420Y30330D01*
X27500Y30290D01*
X27580Y30330D01*
X27540Y30250D01*
X27580Y30170D01*
X27500Y30210D01*
X27420Y30170D01*
X25920Y29670D02*
X25960Y29750D01*
X25920Y29830D01*
X26000Y29790D01*
X26080Y29830D01*
X26040Y29750D01*
X26080Y29670D01*
X26000Y29710D01*
X25920Y29670D01*
X24920Y28920D02*
X24960Y29000D01*
X24920Y29080D01*
X25000Y29040D01*
X25080Y29080D01*
X25040Y29000D01*
X25080Y28920D01*
X25000Y28960D01*
X24920Y28920D01*
X25170Y27670D02*
X25210Y27750D01*
X25170Y27830D01*
X25250Y27790D01*
X25330Y27830D01*
X25290Y27750D01*
X25330Y27670D01*
X25250Y27710D01*
X25170Y27670D01*
X25420Y26420D02*
X25460Y26500D01*
X25420Y26580D01*
X25500Y26540D01*
X25580Y26580D01*
X25540Y26500D01*
X25580Y26420D01*
X25500Y26460D01*
X25420Y26420D01*
X25670Y25170D02*
X25710Y25250D01*
X25670Y25330D01*
X25750Y25290D01*
X25830Y25330D01*
X25790Y25250D01*
X25830Y25170D01*
X25750Y25210D01*
X25670Y25170D01*
X20570Y6820D02*
X20610Y6900D01*
X20570Y6980D01*
X20650Y6940D01*
X20730Y6980D01*
X20690Y6900D01*
X20730Y6820D01*
X20650Y6860D01*
X20570Y6820D01*
X8020Y18570D02*
X8060Y18650D01*
X8020Y18730D01*
X8100Y18690D01*
X8180Y18730D01*
X8140Y18650D01*
X8180Y18570D01*
X8100Y18610D01*
X8020Y18570D01*
X7720Y17670D02*
X7760Y17750D01*
X7720Y17830D01*
X7800Y17790D01*
X7880Y17830D01*
X7840Y17750D01*
X7880Y17670D01*
X7800Y17710D01*
X7720Y17670D01*
X17370Y9270D02*
X17410Y9350D01*
X17370Y9430D01*
X17450Y9390D01*
X17530Y9430D01*
X17490Y9350D01*
X17530Y9270D01*
X17450Y9310D01*
X17370Y9270D01*
X18370Y9770D02*
X18410Y9850D01*
X18370Y9930D01*
X18450Y9890D01*
X18530Y9930D01*
X18490Y9850D01*
X18530Y9770D01*
X18450Y9810D01*
X18370Y9770D01*
X13420Y10620D02*
X13460Y10700D01*
X13420Y10780D01*
X13500Y10740D01*
X13580Y10780D01*
X13540Y10700D01*
X13580Y10620D01*
X13500Y10660D01*
X13420Y10620D01*
X16420Y10370D02*
X16460Y10450D01*
X16420Y10530D01*
X16500Y10490D01*
X16580Y10530D01*
X16540Y10450D01*
X16580Y10370D01*
X16500Y10410D01*
X16420Y10370D01*
X18620Y34220D02*
X18660Y34300D01*
X18620Y34380D01*
X18700Y34340D01*
X18780Y34380D01*
X18740Y34300D01*
X18780Y34220D01*
X18700Y34260D01*
X18620Y34220D01*
X18020Y33370D02*
X18060Y33450D01*
X18020Y33530D01*
X18100Y33490D01*
X18180Y33530D01*
X18140Y33450D01*
X18180Y33370D01*
X18100Y33410D01*
X18020Y33370D01*
X7120Y26720D02*
X7160Y26800D01*
X7120Y26880D01*
X7200Y26840D01*
X7280Y26880D01*
X7240Y26800D01*
X7280Y26720D01*
X7200Y26760D01*
X7120Y26720D01*
X8120Y26920D02*
X8160Y27000D01*
X8120Y27080D01*
X8200Y27040D01*
X8280Y27080D01*
X8240Y27000D01*
X8280Y26920D01*
X8200Y26960D01*
X8120Y26920D01*
X4370Y16970D02*
X4410Y17050D01*
X4370Y17130D01*
X4450Y17090D01*
X4530Y17130D01*
X4490Y17050D01*
X4530Y16970D01*
X4450Y17010D01*
X4370Y16970D01*
X2420Y16420D02*
X2460Y16500D01*
X2420Y16580D01*
X2500Y16540D01*
X2580Y16580D01*
X2540Y16500D01*
X2580Y16420D01*
X2500Y16460D01*
X2420Y16420D01*
X6582Y30527D02*
Y30487D01*
X6662D01*
Y30527D01*
X6702D01*
Y30607D01*
X6662D01*
Y30647D01*
X6582D01*
Y30607D01*
X6542D01*
Y30527D01*
X6582D01*
X12571Y32132D02*
Y32092D01*
X12651D01*
Y32132D01*
X12691D01*
Y32212D01*
X12651D01*
Y32252D01*
X12571D01*
Y32212D01*
X12531D01*
Y32132D01*
X12571D01*
X1846Y20927D02*
X1766Y21087D01*
X1926D01*
X1846Y20927D01*
X6675Y22221D02*
X6595Y22381D01*
X6755D01*
X6675Y22221D01*
X28115Y21069D02*
X28155D01*
X28195Y21109D01*
X28235Y21069D01*
X28275D01*
Y21109D01*
X28235Y21149D01*
X28275Y21189D01*
Y21229D01*
X28235D01*
X28195Y21189D01*
X28155Y21229D01*
X28115D01*
Y21189D01*
X28155Y21149D01*
X28115Y21109D01*
Y21069D01*
X31927Y26940D02*
X31967D01*
X32007Y26980D01*
X32047Y26940D01*
X32087D01*
Y26980D01*
X32047Y27020D01*
X32087Y27060D01*
Y27100D01*
X32047D01*
X32007Y27060D01*
X31967Y27100D01*
X31927D01*
Y27060D01*
X31967Y27020D01*
X31927Y26980D01*
Y26940D01*
X19545Y34981D02*
X19585D01*
X19625Y35021D01*
X19665Y34981D01*
X19705D01*
Y35021D01*
X19665Y35061D01*
X19705Y35101D01*
Y35141D01*
X19665D01*
X19625Y35101D01*
X19585Y35141D01*
X19545D01*
Y35101D01*
X19585Y35061D01*
X19545Y35021D01*
Y34981D01*
X15733Y29110D02*
X15773D01*
X15813Y29150D01*
X15853Y29110D01*
X15893D01*
Y29150D01*
X15853Y29190D01*
X15893Y29230D01*
Y29270D01*
X15853D01*
X15813Y29230D01*
X15773Y29270D01*
X15733D01*
Y29230D01*
X15773Y29190D01*
X15733Y29150D01*
Y29110D01*
D59*
X7532Y25924D02*
G03*
X7532Y25924I-80J0D01*
G01*
X8498Y26182D02*
G03*
X8498Y26182I-80J0D01*
G01*
X9464Y26441D02*
G03*
X9464Y26441I-80J0D01*
G01*
X10430Y26700D02*
G03*
X10430Y26700I-80J0D01*
G01*
X11396Y26959D02*
G03*
X11396Y26959I-80J0D01*
G01*
X12362Y27218D02*
G03*
X12362Y27218I-80J0D01*
G01*
X13328Y27476D02*
G03*
X13328Y27476I-80J0D01*
G01*
X14294Y27735D02*
G03*
X14294Y27735I-80J0D01*
G01*
X8662Y17118D02*
G03*
X8662Y17118I-80J0D01*
G01*
X7696Y16859D02*
G03*
X7696Y16859I-80J0D01*
G01*
X6730Y16600D02*
G03*
X6730Y16600I-80J0D01*
G01*
X5764Y16341D02*
G03*
X5764Y16341I-80J0D01*
G01*
X4798Y16082D02*
G03*
X4798Y16082I-80J0D01*
G01*
X3832Y15824D02*
G03*
X3832Y15824I-80J0D01*
G01*
X2866Y15565D02*
G03*
X2866Y15565I-80J0D01*
G01*
X16857Y29757D02*
G03*
X16857Y29757I-80J0D01*
G01*
X17401Y30595D02*
G03*
X17401Y30595I-80J0D01*
G01*
X17946Y31434D02*
G03*
X17946Y31434I-80J0D01*
G01*
X18491Y32273D02*
G03*
X18491Y32273I-80J0D01*
G01*
X19035Y33111D02*
G03*
X19035Y33111I-80J0D01*
G01*
X19580Y33950D02*
G03*
X19580Y33950I-80J0D01*
G01*
M02*
