G04*
G04 #@! TF.GenerationSoftware,Altium Limited,Altium Designer,20.2.8 (258)*
G04*
G04 Layer_Color=128*
%FSLAX24Y24*%
%MOIN*%
G70*
G04*
G04 #@! TF.SameCoordinates,457248F5-DA73-466C-AE77-A18651DC037B*
G04*
G04*
G04 #@! TF.FilePolarity,Positive*
G04*
G01*
G75*
%ADD10C,0.0100*%
%ADD58C,0.0020*%
D10*
X33638Y9050D02*
G03*
X24795Y15065I-5660J1187D01*
G01*
X25050Y21050D02*
G03*
X33638Y27050I2891J5008D01*
G01*
X18050Y21050D02*
G03*
X18050Y15050I0J-3000D01*
G01*
X33638Y27050D02*
G03*
X33638Y9050I-15588J-9000D01*
G01*
X18100Y15050D02*
X24805D01*
X18050Y21050D02*
X25050D01*
D58*
X23182Y5230D02*
X23584D01*
X23383Y5030D02*
Y5431D01*
X24482Y12840D02*
X24884D01*
X24683Y12639D02*
Y13041D01*
X23497Y13014D02*
X23899D01*
X23698Y12813D02*
Y13214D01*
X22512Y13187D02*
X22914D01*
X22713Y12986D02*
Y13388D01*
X21528Y13361D02*
X21929D01*
X21728Y13160D02*
Y13562D01*
X20543Y13534D02*
X20944D01*
X20744Y13334D02*
Y13735D01*
X19558Y13708D02*
X19960D01*
X19759Y13507D02*
Y13909D01*
X18573Y13882D02*
X18975D01*
X18774Y13681D02*
Y14083D01*
X17588Y14055D02*
X17990D01*
X17789Y13855D02*
Y14256D01*
X16604Y14229D02*
X17005D01*
X16804Y14028D02*
Y14430D01*
X15619Y14403D02*
X16020D01*
X15820Y14202D02*
Y14603D01*
X14634Y14576D02*
X15036D01*
X14835Y14376D02*
Y14777D01*
X13649Y14750D02*
X14051D01*
X13850Y14549D02*
Y14951D01*
X12664Y14924D02*
X13066D01*
X12865Y14723D02*
Y15124D01*
X11680Y15097D02*
X12081D01*
X11880Y14897D02*
Y15298D01*
X10695Y15271D02*
X11096D01*
X10896Y15070D02*
Y15472D01*
X9710Y15445D02*
X10112D01*
X9911Y15244D02*
Y15645D01*
X22787Y3269D02*
X23188D01*
X22987Y3068D02*
Y3470D01*
X21802Y3443D02*
X22203D01*
X22002Y3242D02*
Y3643D01*
X20817Y3616D02*
X21218D01*
X21018Y3415D02*
Y3817D01*
X19832Y3790D02*
X20234D01*
X20033Y3589D02*
Y3991D01*
X18847Y3964D02*
X19249D01*
X19048Y3763D02*
Y4164D01*
X17862Y4137D02*
X18264D01*
X18063Y3936D02*
Y4338D01*
X16878Y4311D02*
X17279D01*
X17078Y4110D02*
Y4512D01*
X15893Y4484D02*
X16294D01*
X16094Y4284D02*
Y4685D01*
X14908Y4658D02*
X15310D01*
X15109Y4457D02*
Y4859D01*
X13923Y4832D02*
X14325D01*
X14124Y4631D02*
Y5033D01*
X12938Y5005D02*
X13340D01*
X13139Y4805D02*
Y5206D01*
X11954Y5179D02*
X12355D01*
X12154Y4978D02*
Y5380D01*
X10969Y5353D02*
X11370D01*
X11170Y5152D02*
Y5554D01*
X9984Y5526D02*
X10386D01*
X10185Y5326D02*
Y5727D01*
X8999Y5700D02*
X9401D01*
X9200Y5499D02*
Y5901D01*
X8014Y5874D02*
X8416D01*
X8215Y5673D02*
Y6074D01*
X22197Y5404D02*
X22599D01*
X22398Y5203D02*
Y5605D01*
X21212Y5578D02*
X21614D01*
X21413Y5377D02*
Y5779D01*
X20228Y5751D02*
X20629D01*
X20428Y5551D02*
Y5952D01*
X19243Y5925D02*
X19644D01*
X19444Y5724D02*
Y6126D01*
X18258Y6099D02*
X18660D01*
X18459Y5898D02*
Y6300D01*
X17273Y6272D02*
X17675D01*
X17474Y6072D02*
Y6473D01*
X16288Y6446D02*
X16690D01*
X16489Y6245D02*
Y6647D01*
X15304Y6620D02*
X15705D01*
X15504Y6419D02*
Y6820D01*
X14319Y6793D02*
X14720D01*
X14520Y6593D02*
Y6994D01*
X13334Y6967D02*
X13736D01*
X13535Y6766D02*
Y7168D01*
X12349Y7141D02*
X12751D01*
X12550Y6940D02*
Y7341D01*
X11364Y7314D02*
X11766D01*
X11565Y7113D02*
Y7515D01*
X10380Y7488D02*
X10781D01*
X10580Y7287D02*
Y7689D01*
X9395Y7662D02*
X9796D01*
X9596Y7461D02*
Y7862D01*
X24224Y11139D02*
X24625D01*
X24425Y10939D02*
Y11340D01*
X23239Y11313D02*
X23641D01*
X23440Y11112D02*
Y11514D01*
X22254Y11487D02*
X22656D01*
X22455Y11286D02*
Y11687D01*
X21269Y11660D02*
X21671D01*
X21470Y11459D02*
Y11861D01*
X20285Y11834D02*
X20686D01*
X20485Y11633D02*
Y12035D01*
X19300Y12008D02*
X19701D01*
X19501Y11807D02*
Y12208D01*
X18315Y12181D02*
X18717D01*
X18516Y11980D02*
Y12382D01*
X17330Y12355D02*
X17732D01*
X17531Y12154D02*
Y12556D01*
X16345Y12529D02*
X16747D01*
X16546Y12328D02*
Y12729D01*
X15361Y12702D02*
X15762D01*
X15561Y12501D02*
Y12903D01*
X14376Y12876D02*
X14777D01*
X14577Y12675D02*
Y13077D01*
X13391Y13049D02*
X13793D01*
X13592Y12849D02*
Y13250D01*
X12406Y13223D02*
X12808D01*
X12607Y13022D02*
Y13424D01*
X11421Y13397D02*
X11823D01*
X11622Y13196D02*
Y13598D01*
X10437Y13570D02*
X10838D01*
X10637Y13370D02*
Y13771D01*
X7302Y25924D02*
X7602D01*
X7452Y25774D02*
Y26074D01*
X8268Y26182D02*
X8568D01*
X8418Y26032D02*
Y26332D01*
X9234Y26441D02*
X9534D01*
X9384Y26291D02*
Y26591D01*
X10200Y26700D02*
X10500D01*
X10350Y26550D02*
Y26850D01*
X11166Y26959D02*
X11466D01*
X11316Y26809D02*
Y27109D01*
X12132Y27218D02*
X12432D01*
X12282Y27068D02*
Y27368D01*
X13098Y27476D02*
X13398D01*
X13248Y27326D02*
Y27626D01*
X14064Y27735D02*
X14364D01*
X14214Y27585D02*
Y27885D01*
X8432Y17118D02*
X8732D01*
X8582Y16968D02*
Y17268D01*
X7466Y16859D02*
X7766D01*
X7616Y16709D02*
Y17009D01*
X6500Y16600D02*
X6800D01*
X6650Y16450D02*
Y16750D01*
X5534Y16341D02*
X5834D01*
X5684Y16191D02*
Y16491D01*
X4568Y16082D02*
X4868D01*
X4718Y15932D02*
Y16232D01*
X3602Y15824D02*
X3902D01*
X3752Y15674D02*
Y15974D01*
X2636Y15565D02*
X2936D01*
X2786Y15415D02*
Y15715D01*
X16627Y29757D02*
X16927D01*
X16777Y29607D02*
Y29907D01*
X17171Y30595D02*
X17471D01*
X17321Y30445D02*
Y30745D01*
X17716Y31434D02*
X18016D01*
X17866Y31284D02*
Y31584D01*
X18261Y32273D02*
X18561D01*
X18411Y32123D02*
Y32423D01*
X18805Y33111D02*
X19105D01*
X18955Y32961D02*
Y33261D01*
X19350Y33950D02*
X19650D01*
X19500Y33800D02*
Y34100D01*
X6196Y19088D02*
X6996D01*
X6596Y18688D02*
Y19488D01*
X27371Y10380D02*
X28171D01*
X27771Y9980D02*
Y10780D01*
X30831Y23500D02*
X32169D01*
X31500Y22831D02*
Y24169D01*
X2831Y26000D02*
X4169D01*
X3500Y25331D02*
Y26669D01*
X5331Y7000D02*
X6669D01*
X6000Y6331D02*
Y7669D01*
X29331Y13000D02*
X30669D01*
X30000Y12331D02*
Y13669D01*
X27360Y30250D02*
X27640D01*
X27500Y30110D02*
Y30390D01*
X25860Y29750D02*
X26140D01*
X26000Y29610D02*
Y29890D01*
X24860Y29000D02*
X25140D01*
X25000Y28860D02*
Y29140D01*
X25110Y27750D02*
X25390D01*
X25250Y27610D02*
Y27890D01*
X25360Y26500D02*
X25640D01*
X25500Y26360D02*
Y26640D01*
X25610Y25250D02*
X25890D01*
X25750Y25110D02*
Y25390D01*
X20510Y6900D02*
X20790D01*
X20650Y6760D02*
Y7040D01*
X7960Y18650D02*
X8240D01*
X8100Y18510D02*
Y18790D01*
X7660Y17750D02*
X7940D01*
X7800Y17610D02*
Y17890D01*
X17310Y9350D02*
X17590D01*
X17450Y9210D02*
Y9490D01*
X18310Y9850D02*
X18590D01*
X18450Y9710D02*
Y9990D01*
X13360Y10700D02*
X13640D01*
X13500Y10560D02*
Y10840D01*
X16360Y10450D02*
X16640D01*
X16500Y10310D02*
Y10590D01*
X18560Y34300D02*
X18840D01*
X18700Y34160D02*
Y34440D01*
X17960Y33450D02*
X18240D01*
X18100Y33310D02*
Y33590D01*
X7060Y26800D02*
X7340D01*
X7200Y26660D02*
Y26940D01*
X8060Y27000D02*
X8340D01*
X8200Y26860D02*
Y27140D01*
X4310Y17050D02*
X4590D01*
X4450Y16910D02*
Y17190D01*
X2360Y16500D02*
X2640D01*
X2500Y16360D02*
Y16640D01*
X6032Y30567D02*
X7213D01*
X6622Y29976D02*
Y31157D01*
X12020Y32172D02*
X13201D01*
X12611Y31581D02*
Y32762D01*
X1446Y21007D02*
X2246D01*
X1846Y20607D02*
Y21407D01*
X6275Y22301D02*
X7075D01*
X6675Y21901D02*
Y22701D01*
X27772Y21149D02*
X28618D01*
X28195Y20726D02*
Y21573D01*
X31584Y27020D02*
X32430D01*
X32007Y26597D02*
Y27443D01*
X19202Y35061D02*
X20049D01*
X19625Y34638D02*
Y35484D01*
X15390Y29190D02*
X16236D01*
X15813Y28767D02*
Y29614D01*
M02*
