G04*
G04 #@! TF.GenerationSoftware,Altium Limited,Altium Designer,20.2.8 (258)*
G04*
G04 Layer_Physical_Order=1*
G04 Layer_Color=255*
%FSLAX24Y24*%
%MOIN*%
G70*
G04*
G04 #@! TF.SameCoordinates,457248F5-DA73-466C-AE77-A18651DC037B*
G04*
G04*
G04 #@! TF.FilePolarity,Positive*
G04*
G01*
G75*
%ADD10C,0.0100*%
G04:AMPARAMS|DCode=28|XSize=196.9mil|YSize=393.7mil|CornerRadius=0mil|HoleSize=0mil|Usage=FLASHONLY|Rotation=230.000|XOffset=0mil|YOffset=0mil|HoleType=Round|Shape=Rectangle|*
%AMROTATEDRECTD28*
4,1,4,-0.0875,0.2019,0.2141,-0.0511,0.0875,-0.2019,-0.2141,0.0511,-0.0875,0.2019,0.0*
%
%ADD28ROTATEDRECTD28*%

%ADD29P,0.0852X4X305.0*%
%ADD30P,0.0849X4X305.0*%
%ADD31C,0.0600*%
%ADD32C,0.0602*%
%ADD33P,0.0849X4X150.0*%
%ADD34P,0.0849X4X60.0*%
%ADD35P,0.0849X4X372.0*%
%ADD36C,0.0800*%
%ADD37C,0.1500*%
%ADD38C,0.0500*%
%ADD39C,0.1378*%
%ADD40C,0.0850*%
%ADD41C,0.0965*%
D10*
X10475Y16053D02*
G03*
X10398Y16106I-88J-47D01*
G01*
X7524Y16418D02*
G03*
X7568Y16411I92J441D01*
G01*
X10977Y16411D02*
G03*
X10903Y16454I-83J-56D01*
G01*
X8490Y16677D02*
G03*
X8541Y16669I92J441D01*
G01*
X14377Y16976D02*
G03*
X14314Y17001I-65J-76D01*
G01*
X20428Y5751D02*
X20650Y6900D01*
X8100Y18650D02*
Y20441D01*
X7800Y17750D02*
X11600Y19350D01*
X8100Y20441D02*
X12309Y24650D01*
X14753D01*
X15457Y23946D01*
X17450Y9350D02*
X17474Y6272D01*
X18450Y9850D02*
X18459Y6099D01*
X16500Y6457D02*
Y10450D01*
X16489Y6446D02*
X16500Y6457D01*
X13500Y10700D02*
X13535Y6967D01*
X13139Y5005D02*
X13535Y6967D01*
X16094Y4484D02*
X16489Y6446D01*
X18063Y4137D02*
X18459Y6099D01*
X17078Y4311D02*
X17474Y6272D01*
X23712Y13011D02*
X23750Y13250D01*
X23440Y11313D02*
X23712Y13011D01*
X24697Y12838D02*
X24735Y13076D01*
X24425Y11139D02*
X24697Y12838D01*
X7443Y25929D02*
X7452Y25924D01*
X7201Y26769D02*
X7443Y25929D01*
X18100Y33450D02*
X18955Y33111D01*
X18700Y34300D02*
X19500Y33950D01*
X8200Y27000D02*
X8418Y26182D01*
X4450Y17050D02*
X4718Y16082D01*
X2500Y16500D02*
X2786Y15565D01*
X5684Y16341D02*
X9596Y7662D01*
X10909Y15269D02*
X10948Y15507D01*
X10637Y13570D02*
X10909Y15269D01*
X10398Y16106D02*
X10398Y16106D01*
X7568Y16411D02*
X10398Y16106D01*
X6650Y16600D02*
X7524Y16418D01*
X10475Y16053D02*
X10896Y15271D01*
X11894Y15095D02*
X11932Y15334D01*
X11622Y13397D02*
X11894Y15095D01*
X10903Y16454D02*
X10903Y16454D01*
X8541Y16669D02*
X10903Y16454D01*
X7616Y16859D02*
X8490Y16677D01*
X10977Y16411D02*
X11880Y15097D01*
X17803Y14053D02*
X17841Y14292D01*
X17531Y12355D02*
X17803Y14053D01*
X14314Y17001D02*
X14314Y17001D01*
X8582Y17118D02*
X14314Y17001D01*
X14377Y16976D02*
X17789Y14055D01*
X12607Y13223D02*
X12917Y15160D01*
X13592Y13049D02*
X13902Y14986D01*
X14577Y12876D02*
X14887Y14813D01*
X15561Y12702D02*
X15872Y14639D01*
X16546Y12529D02*
X16856Y14466D01*
X18516Y12181D02*
X18826Y14118D01*
X19501Y12008D02*
X19811Y13945D01*
X20485Y11834D02*
X20796Y13771D01*
X21470Y11660D02*
X21780Y13597D01*
X22455Y11487D02*
X22765Y13424D01*
X22987Y3269D02*
X23383Y5230D01*
X22002Y3443D02*
X22398Y5404D01*
X21018Y3616D02*
X21413Y5578D01*
X20033Y3790D02*
X20428Y5751D01*
X19048Y3964D02*
X19444Y5925D01*
X15109Y4658D02*
X15504Y6620D01*
X14124Y4832D02*
X14520Y6793D01*
X12154Y5179D02*
X12550Y7141D01*
X11170Y5353D02*
X11565Y7314D01*
X10185Y5526D02*
X10580Y7488D01*
X9200Y5700D02*
X9596Y7662D01*
X33638Y9050D02*
G03*
X24795Y15065I-5660J1187D01*
G01*
X25050Y21050D02*
G03*
X33638Y27050I2891J5008D01*
G01*
X18050Y21050D02*
G03*
X18050Y15050I0J-3000D01*
G01*
X33638Y27050D02*
G03*
X33638Y9050I-15588J-9000D01*
G01*
X18100Y15050D02*
X24805D01*
X18050Y21050D02*
X25050D01*
D28*
X11600Y19350D02*
D03*
X13528Y21648D02*
D03*
X15457Y23946D02*
D03*
D29*
X23383Y5230D02*
D03*
X24425Y11139D02*
D03*
D30*
X24683Y12840D02*
D03*
X22987Y3269D02*
D03*
D31*
X23698Y13014D02*
D03*
X22713Y13187D02*
D03*
X21728Y13361D02*
D03*
X20744Y13534D02*
D03*
X19759Y13708D02*
D03*
X18774Y13882D02*
D03*
X17789Y14055D02*
D03*
X16804Y14229D02*
D03*
X15820Y14403D02*
D03*
X14835Y14576D02*
D03*
X13850Y14750D02*
D03*
X12865Y14924D02*
D03*
X11880Y15097D02*
D03*
X10896Y15271D02*
D03*
X9911Y15445D02*
D03*
X22002Y3443D02*
D03*
X21018Y3616D02*
D03*
X20033Y3790D02*
D03*
X19048Y3964D02*
D03*
X18063Y4137D02*
D03*
X17078Y4311D02*
D03*
X16094Y4484D02*
D03*
X15109Y4658D02*
D03*
X14124Y4832D02*
D03*
X13139Y5005D02*
D03*
X12154Y5179D02*
D03*
X11170Y5353D02*
D03*
X10185Y5526D02*
D03*
X9200Y5700D02*
D03*
X8215Y5874D02*
D03*
X8418Y26182D02*
D03*
X9384Y26441D02*
D03*
X10350Y26700D02*
D03*
X11316Y26959D02*
D03*
X12282Y27218D02*
D03*
X13248Y27476D02*
D03*
X14214Y27735D02*
D03*
X8582Y17118D02*
D03*
X7616Y16859D02*
D03*
X6650Y16600D02*
D03*
X5684Y16341D02*
D03*
X4718Y16082D02*
D03*
X3752Y15824D02*
D03*
X16777Y29757D02*
D03*
X17321Y30595D02*
D03*
X17866Y31434D02*
D03*
X18411Y32273D02*
D03*
X18955Y33111D02*
D03*
D32*
X22398Y5404D02*
D03*
X21413Y5578D02*
D03*
X20428Y5751D02*
D03*
X19444Y5925D02*
D03*
X18459Y6099D02*
D03*
X17474Y6272D02*
D03*
X16489Y6446D02*
D03*
X15504Y6620D02*
D03*
X14520Y6793D02*
D03*
X13535Y6967D02*
D03*
X12550Y7141D02*
D03*
X11565Y7314D02*
D03*
X10580Y7488D02*
D03*
X9596Y7662D02*
D03*
X23440Y11313D02*
D03*
X22455Y11487D02*
D03*
X21470Y11660D02*
D03*
X20485Y11834D02*
D03*
X19501Y12008D02*
D03*
X18516Y12181D02*
D03*
X17531Y12355D02*
D03*
X16546Y12529D02*
D03*
X15561Y12702D02*
D03*
X14577Y12876D02*
D03*
X13592Y13049D02*
D03*
X12607Y13223D02*
D03*
X11622Y13397D02*
D03*
X10637Y13570D02*
D03*
D33*
X7452Y25924D02*
D03*
D34*
X2786Y15565D02*
D03*
D35*
X19500Y33950D02*
D03*
D36*
X6596Y19088D02*
D03*
X27771Y10380D02*
D03*
D37*
X31500Y23500D02*
D03*
X3500Y26000D02*
D03*
X6000Y7000D02*
D03*
X30000Y13000D02*
D03*
D38*
X27500Y30250D02*
D03*
X26000Y29750D02*
D03*
X25000Y29000D02*
D03*
X25250Y27750D02*
D03*
X25500Y26500D02*
D03*
X25750Y25250D02*
D03*
X20650Y6900D02*
D03*
X8100Y18650D02*
D03*
X7800Y17750D02*
D03*
X17450Y9350D02*
D03*
X18450Y9850D02*
D03*
X13500Y10700D02*
D03*
X16500Y10450D02*
D03*
X18700Y34300D02*
D03*
X18100Y33450D02*
D03*
X7200Y26800D02*
D03*
X8200Y27000D02*
D03*
X4450Y17050D02*
D03*
X2500Y16500D02*
D03*
D39*
X6622Y30567D02*
D03*
X12611Y32172D02*
D03*
D40*
X1846Y21007D02*
D03*
X6675Y22301D02*
D03*
D41*
X28195Y21149D02*
D03*
X32007Y27020D02*
D03*
X19625Y35061D02*
D03*
X15813Y29190D02*
D03*
M02*
