G04*
G04 #@! TF.GenerationSoftware,Altium Limited,Altium Designer,20.2.8 (258)*
G04*
G04 Layer_Color=65535*
%FSLAX24Y24*%
%MOIN*%
G70*
G04*
G04 #@! TF.SameCoordinates,457248F5-DA73-466C-AE77-A18651DC037B*
G04*
G04*
G04 #@! TF.FilePolarity,Positive*
G04*
G01*
G75*
%ADD10C,0.0100*%
%ADD11C,0.0079*%
%ADD12C,0.0050*%
%ADD13C,0.0100*%
D10*
X25499Y13738D02*
G03*
X25499Y13738I-150J0D01*
G01*
X23803Y4167D02*
G03*
X23803Y4167I-150J0D01*
G01*
X3030Y14257D02*
G03*
X3030Y14257I-100J0D01*
G01*
X25088Y12261D02*
X25262Y13245D01*
X9332Y15039D02*
X25088Y12261D01*
X9332Y15039D02*
X9505Y16024D01*
X25262Y13245D01*
X23393Y2690D02*
X23567Y3675D01*
X7636Y5468D02*
X23393Y2690D01*
X7636Y5468D02*
X7810Y6453D01*
X23567Y3675D01*
X8721Y19808D02*
X14506Y26702D01*
X8721Y19808D02*
X12551Y16594D01*
X18336Y23488D01*
X14506Y26702D02*
X18336Y23488D01*
X7099Y25311D02*
X14804Y27376D01*
X5513Y31228D02*
X7099Y25311D01*
X5507Y31252D02*
X13212Y33316D01*
X13218Y33293D02*
X14804Y27376D01*
X621Y21714D02*
X7382Y23526D01*
X621Y21714D02*
X2562Y14469D01*
X7382Y23526D02*
X9324Y16281D01*
X2562Y14469D02*
X9324Y16281D01*
X19306Y36222D02*
X19474Y36113D01*
X14622Y29010D02*
X19306Y36222D01*
X14622Y29010D02*
X28377Y20077D01*
X33060Y27290D01*
X19474Y36113D02*
X33060Y27290D01*
X7645Y4245D02*
X7732Y4737D01*
X7978Y4694D01*
X8045Y4598D01*
X8016Y4433D01*
X7920Y4366D01*
X7674Y4409D01*
X8538Y4511D02*
X8470Y4607D01*
X8306Y4636D01*
X8209Y4569D01*
X8151Y4240D01*
X8219Y4144D01*
X8383Y4115D01*
X8480Y4183D01*
X8716Y4564D02*
X8629Y4072D01*
X8875Y4028D01*
X8972Y4096D01*
X8986Y4178D01*
X8919Y4274D01*
X8673Y4318D01*
X8919Y4274D01*
X9015Y4342D01*
X9030Y4424D01*
X8962Y4520D01*
X8716Y4564D01*
X10029Y4332D02*
X9942Y3840D01*
X9696Y3884D01*
X9628Y3980D01*
X9657Y4144D01*
X9754Y4212D01*
X10000Y4168D01*
X10352Y3768D02*
X10188Y3797D01*
X10120Y3893D01*
X10149Y4057D01*
X10246Y4125D01*
X10410Y4096D01*
X10478Y3999D01*
X10463Y3917D01*
X10135Y3975D01*
X10598Y3724D02*
X10844Y3681D01*
X10941Y3749D01*
X10873Y3845D01*
X10709Y3874D01*
X10642Y3971D01*
X10738Y4038D01*
X10984Y3995D01*
X11090Y3638D02*
X11255Y3609D01*
X11173Y3623D01*
X11230Y3951D01*
X11148Y3966D01*
X11636Y3372D02*
X11718Y3358D01*
X11814Y3425D01*
X11887Y3836D01*
X11641Y3879D01*
X11544Y3811D01*
X11515Y3647D01*
X11583Y3551D01*
X11829Y3507D01*
X11993Y3478D02*
X12051Y3807D01*
X12297Y3763D01*
X12364Y3667D01*
X12321Y3421D01*
X12731Y3348D02*
X12567Y3377D01*
X12500Y3474D01*
X12529Y3638D01*
X12625Y3705D01*
X12789Y3676D01*
X12857Y3580D01*
X12842Y3498D01*
X12514Y3556D01*
X13035Y3633D02*
X12977Y3305D01*
X13006Y3469D01*
X13103Y3537D01*
X13199Y3604D01*
X13281Y3590D01*
X13528Y3546D02*
X13610Y3532D01*
X13595Y3450D01*
X13513Y3464D01*
X13528Y3546D01*
X13484Y3300D02*
X13566Y3286D01*
X13552Y3204D01*
X13470Y3218D01*
X13484Y3300D01*
X14773Y3411D02*
X14705Y3508D01*
X14541Y3537D01*
X14444Y3469D01*
X14387Y3141D01*
X14454Y3045D01*
X14618Y3016D01*
X14715Y3083D01*
X14951Y3464D02*
X14864Y2972D01*
X14908Y3218D01*
X15004Y3286D01*
X15168Y3257D01*
X15236Y3160D01*
X15193Y2914D01*
X15497Y3199D02*
X15661Y3170D01*
X15728Y3074D01*
X15685Y2828D01*
X15439Y2871D01*
X15371Y2967D01*
X15468Y3035D01*
X15714Y2992D01*
X15907Y3127D02*
X15849Y2799D01*
X15878Y2963D01*
X15974Y3030D01*
X16071Y3098D01*
X16153Y3083D01*
X16341Y2712D02*
X16505Y2683D01*
X16423Y2697D01*
X16510Y3190D01*
X16428Y3204D01*
X16997Y2596D02*
X16833Y2625D01*
X16766Y2722D01*
X16795Y2886D01*
X16891Y2953D01*
X17055Y2924D01*
X17123Y2828D01*
X17108Y2746D01*
X16780Y2804D01*
X17244Y2553D02*
X17490Y2509D01*
X17586Y2577D01*
X17519Y2673D01*
X17355Y2702D01*
X17287Y2799D01*
X17383Y2866D01*
X17630Y2823D01*
X17779Y2712D02*
X18107Y2654D01*
X18643Y2813D02*
X18315Y2871D01*
X18271Y2625D01*
X18436Y2596D01*
X18271Y2625D01*
X18228Y2379D01*
X18720Y2292D02*
X18735Y2374D01*
X18817Y2360D01*
X18802Y2278D01*
X18720Y2292D01*
X20023Y2485D02*
X19956Y2582D01*
X19792Y2611D01*
X19695Y2543D01*
X19637Y2215D01*
X19705Y2119D01*
X19869Y2090D01*
X19965Y2157D01*
X19994Y2321D01*
X19830Y2350D01*
X20255Y2360D02*
X20419Y2331D01*
X20487Y2235D01*
X20443Y1989D01*
X20197Y2032D01*
X20129Y2128D01*
X20226Y2196D01*
X20472Y2153D01*
X20665Y2288D02*
X20622Y2042D01*
X20689Y1945D01*
X20935Y1902D01*
X20993Y2230D01*
X21254Y2269D02*
X21239Y2186D01*
X21157Y2201D01*
X21321Y2172D01*
X21239Y2186D01*
X21196Y1940D01*
X21264Y1844D01*
X21596Y2293D02*
X21510Y1800D01*
X21553Y2047D01*
X21650Y2114D01*
X21814Y2085D01*
X21881Y1989D01*
X21838Y1743D01*
X22002Y1714D02*
X22166Y1685D01*
X22084Y1699D01*
X22142Y2027D01*
X22060Y2042D01*
X22658Y1598D02*
X22494Y1627D01*
X22427Y1723D01*
X22456Y1887D01*
X22552Y1955D01*
X22716Y1926D01*
X22784Y1830D01*
X22769Y1748D01*
X22441Y1805D01*
X22962Y1883D02*
X22904Y1555D01*
X22933Y1719D01*
X23030Y1786D01*
X23126Y1854D01*
X23208Y1839D01*
X11116Y2581D02*
X11203Y3073D01*
X11449Y3030D01*
X11516Y2933D01*
X11487Y2769D01*
X11391Y2702D01*
X11145Y2745D01*
X12009Y2847D02*
X11941Y2943D01*
X11777Y2972D01*
X11680Y2905D01*
X11623Y2576D01*
X11690Y2480D01*
X11854Y2451D01*
X11951Y2519D01*
X12187Y2900D02*
X12100Y2408D01*
X12346Y2364D01*
X12443Y2432D01*
X12457Y2514D01*
X12390Y2610D01*
X12144Y2654D01*
X12390Y2610D01*
X12486Y2678D01*
X12501Y2760D01*
X12433Y2856D01*
X12187Y2900D01*
X13143Y2562D02*
X13249Y2205D01*
X13471Y2504D01*
X13823Y2104D02*
X13659Y2133D01*
X13592Y2229D01*
X13620Y2393D01*
X13717Y2461D01*
X13881Y2432D01*
X13949Y2335D01*
X13934Y2253D01*
X13606Y2311D01*
X14127Y2388D02*
X14069Y2060D01*
X14098Y2224D01*
X14195Y2292D01*
X14291Y2360D01*
X14373Y2345D01*
X14562Y1974D02*
X14808Y1930D01*
X14904Y1998D01*
X14837Y2094D01*
X14673Y2123D01*
X14605Y2220D01*
X14701Y2287D01*
X14948Y2244D01*
X15054Y1887D02*
X15218Y1858D01*
X15136Y1872D01*
X15194Y2200D01*
X15112Y2215D01*
X15546Y1800D02*
X15710Y1771D01*
X15807Y1839D01*
X15836Y2003D01*
X15768Y2099D01*
X15604Y2128D01*
X15507Y2061D01*
X15478Y1896D01*
X15546Y1800D01*
X15956Y1728D02*
X16014Y2056D01*
X16260Y2012D01*
X16328Y1916D01*
X16284Y1670D01*
X16506Y1969D02*
X16588Y1955D01*
X16574Y1872D01*
X16492Y1887D01*
X16506Y1969D01*
X16463Y1723D02*
X16545Y1708D01*
X16531Y1626D01*
X16448Y1641D01*
X16463Y1723D01*
X17351Y1482D02*
X17515Y1453D01*
X17433Y1467D01*
X17520Y1959D01*
X17423Y1892D01*
X17761Y1409D02*
X17776Y1491D01*
X17858Y1477D01*
X17843Y1395D01*
X17761Y1409D01*
X18244Y1747D02*
X18340Y1815D01*
X18504Y1786D01*
X18572Y1689D01*
X18514Y1361D01*
X18417Y1294D01*
X18253Y1323D01*
X18186Y1419D01*
X18244Y1747D01*
X24247Y33697D02*
X24574Y34200D01*
X24633Y33924D01*
X24909Y33982D01*
X24583Y33479D01*
X24750Y33370D02*
X24918Y33262D01*
X24834Y33316D01*
X25052Y33651D01*
X24968Y33706D01*
X25723Y33216D02*
X25471Y33379D01*
X25333Y33350D01*
X25224Y33182D01*
X25253Y33044D01*
X25505Y32880D01*
X25890Y33107D02*
X25673Y32771D01*
X25781Y32939D01*
X25920Y32969D01*
X26058Y32998D01*
X26142Y32944D01*
X26259Y32390D02*
X26427Y32281D01*
X26565Y32311D01*
X26674Y32479D01*
X26645Y32617D01*
X26477Y32726D01*
X26339Y32696D01*
X26230Y32529D01*
X26259Y32390D01*
X27286Y32320D02*
X27257Y32458D01*
X27089Y32567D01*
X26951Y32537D01*
X26896Y32453D01*
X26926Y32315D01*
X27093Y32206D01*
X27123Y32068D01*
X27068Y31984D01*
X26930Y31955D01*
X26762Y32064D01*
X26733Y32202D01*
X27508Y32294D02*
X27182Y31791D01*
X27433Y31628D01*
X27571Y31658D01*
X27789Y31993D01*
X27760Y32131D01*
X27508Y32294D01*
X28188Y31138D02*
X28405Y31473D01*
X28682Y31532D01*
X28741Y31256D01*
X28523Y30920D01*
X28686Y31172D01*
X28351Y31390D01*
X29353Y31097D02*
X29026Y30594D01*
X28775Y30757D01*
X28745Y30895D01*
X28854Y31063D01*
X28992Y31092D01*
X29244Y30929D01*
X29495Y30766D02*
X29663Y30657D01*
X29692Y30518D01*
X29529Y30267D01*
X29278Y30430D01*
X29248Y30569D01*
X29387Y30598D01*
X29638Y30435D01*
X29588Y29990D02*
X29915Y30493D01*
X30166Y30330D01*
X30196Y30192D01*
X30087Y30024D01*
X29948Y29995D01*
X29697Y30158D01*
X30556Y30196D02*
X30501Y30112D01*
X30418Y30167D01*
X30585Y30058D01*
X30501Y30112D01*
X30338Y29861D01*
X30368Y29722D01*
X30871Y29396D02*
X30703Y29505D01*
X30674Y29643D01*
X30782Y29811D01*
X30921Y29840D01*
X31088Y29731D01*
X31118Y29593D01*
X31063Y29509D01*
X30728Y29727D01*
X31340Y29568D02*
X31122Y29232D01*
X31231Y29400D01*
X31369Y29430D01*
X31508Y29459D01*
X31591Y29405D01*
X14718Y30965D02*
X14935Y31300D01*
X15019Y31246D01*
X15137Y30693D01*
X15221Y30638D01*
X15438Y30974D01*
X15346Y31749D02*
X15208Y31720D01*
X15099Y31552D01*
X15128Y31414D01*
X15463Y31196D01*
X15602Y31225D01*
X15711Y31393D01*
X15681Y31531D01*
X15455Y31917D02*
X15425Y32055D01*
X15534Y32223D01*
X15673Y32252D01*
X15756Y32198D01*
X15786Y32059D01*
X15731Y31975D01*
X15786Y32059D01*
X15924Y32089D01*
X16008Y32034D01*
X16037Y31896D01*
X15928Y31728D01*
X15790Y31699D01*
X16364Y32399D02*
X15861Y32726D01*
X15949Y32311D01*
X16167Y32646D01*
X16108Y32923D02*
X16079Y33061D01*
X16188Y33229D01*
X16326Y33258D01*
X16410Y33204D01*
X16439Y33065D01*
X16385Y32982D01*
X16439Y33065D01*
X16577Y33095D01*
X16661Y33040D01*
X16691Y32902D01*
X16582Y32734D01*
X16443Y32705D01*
X16770Y33208D02*
X16908Y33237D01*
X17017Y33405D01*
X16988Y33543D01*
X16653Y33761D01*
X16514Y33732D01*
X16405Y33564D01*
X16435Y33426D01*
X16519Y33371D01*
X16657Y33401D01*
X16820Y33652D01*
X16761Y33929D02*
X16732Y34067D01*
X16841Y34235D01*
X16979Y34264D01*
X17315Y34046D01*
X17344Y33908D01*
X17235Y33740D01*
X17097Y33711D01*
X16761Y33929D01*
X17088Y34432D02*
X17059Y34570D01*
X17168Y34738D01*
X17306Y34767D01*
X17641Y34549D01*
X17671Y34411D01*
X17562Y34243D01*
X17423Y34214D01*
X17088Y34432D01*
X23244Y35024D02*
X22972Y34605D01*
X23001Y34466D01*
X23169Y34357D01*
X23307Y34387D01*
X23579Y34806D01*
X23672Y34031D02*
X23999Y34534D01*
X23584Y34446D01*
X23919Y34228D01*
X11940Y33910D02*
X12069Y33428D01*
X12191Y33357D01*
X12385Y33409D01*
X12455Y33531D01*
X12326Y34014D01*
X12545Y33969D02*
X12615Y34091D01*
X12809Y34143D01*
X12931Y34072D01*
X12957Y33976D01*
X12886Y33853D01*
X12790Y33828D01*
X12886Y33853D01*
X13009Y33783D01*
X13035Y33686D01*
X12964Y33564D01*
X12771Y33512D01*
X12648Y33583D01*
X6628Y25571D02*
X6048Y25415D01*
X6190Y25660D01*
X5945Y25802D01*
X6524Y25957D01*
X6472Y26150D02*
X5893Y25995D01*
X5815Y26285D01*
X5886Y26407D01*
X6079Y26459D01*
X6202Y26388D01*
X6279Y26098D01*
X5738Y26574D02*
X6220Y26704D01*
X6291Y26826D01*
X6239Y27019D01*
X6117Y27090D01*
X5634Y26960D01*
X5479Y27540D02*
X5627Y27373D01*
X5872Y27231D01*
X6065Y27283D01*
X6136Y27405D01*
X6084Y27599D01*
X5962Y27669D01*
X5865Y27643D01*
X5795Y27521D01*
X5872Y27231D01*
X5524Y27759D02*
X5401Y27829D01*
X5350Y28023D01*
X5420Y28145D01*
X5806Y28249D01*
X5929Y28178D01*
X5981Y27985D01*
X5910Y27862D01*
X5524Y27759D01*
X5168Y28699D02*
X5272Y28312D01*
X5562Y28390D01*
X5413Y28557D01*
X5387Y28654D01*
X5458Y28776D01*
X5651Y28828D01*
X5774Y28757D01*
X5825Y28564D01*
X5755Y28442D01*
X5213Y28918D02*
X5091Y28988D01*
X5039Y29181D01*
X5110Y29304D01*
X5496Y29407D01*
X5618Y29337D01*
X5670Y29143D01*
X5600Y29021D01*
X5213Y28918D01*
X3415Y23452D02*
X3571Y22872D01*
X3860Y22950D01*
X3931Y23073D01*
X3905Y23169D01*
X3783Y23240D01*
X3493Y23162D01*
X3783Y23240D01*
X3853Y23362D01*
X3828Y23459D01*
X3705Y23529D01*
X3415Y23452D01*
X4150Y23028D02*
X3995Y23607D01*
X4240Y23466D01*
X4381Y23711D01*
X4536Y23131D01*
X4960Y23866D02*
X4574Y23762D01*
X4729Y23183D01*
X5116Y23286D01*
X4652Y23473D02*
X4845Y23524D01*
X5695Y23442D02*
X5309Y23338D01*
X5592Y23828D01*
X5566Y23925D01*
X5443Y23995D01*
X5250Y23943D01*
X5179Y23821D01*
X5759Y23976D02*
X5829Y24099D01*
X6023Y24150D01*
X6145Y24080D01*
X6171Y23983D01*
X6100Y23861D01*
X6223Y23790D01*
X6249Y23693D01*
X6178Y23571D01*
X5985Y23519D01*
X5862Y23590D01*
X5836Y23687D01*
X5907Y23809D01*
X5785Y23880D01*
X5759Y23976D01*
X5907Y23809D02*
X6100Y23861D01*
X6338Y24131D02*
X6409Y24254D01*
X6602Y24306D01*
X6724Y24235D01*
X6828Y23849D01*
X6757Y23726D01*
X6564Y23675D01*
X6442Y23745D01*
X6338Y24131D01*
X1190Y22910D02*
X1319Y22428D01*
X1441Y22357D01*
X1635Y22409D01*
X1705Y22531D01*
X1576Y23014D01*
X2310Y22590D02*
X1924Y22486D01*
X2207Y22976D01*
X2181Y23072D01*
X2059Y23143D01*
X1866Y23091D01*
X1795Y22969D01*
X10881Y22845D02*
X10626Y23059D01*
X10605Y23294D01*
X10840Y23314D01*
X11095Y23100D01*
X10904Y23261D01*
X10690Y23005D01*
X11097Y23751D02*
X10980Y23740D01*
X10873Y23613D01*
X10883Y23495D01*
X11138Y23281D01*
X11256Y23291D01*
X11363Y23419D01*
X11353Y23536D01*
X11419Y24133D02*
X11301Y24123D01*
X11194Y23996D01*
X11204Y23878D01*
X11460Y23664D01*
X11577Y23674D01*
X11684Y23802D01*
X11674Y23919D01*
X8988Y20641D02*
X8605Y20962D01*
X9202Y20896D01*
X8819Y21217D01*
X9140Y21600D02*
X8926Y21345D01*
X9309Y21024D01*
X9523Y21279D01*
X9118Y21184D02*
X9225Y21312D01*
X9525Y21930D02*
X9408Y21919D01*
X9301Y21792D01*
X9311Y21674D01*
X9566Y21460D01*
X9684Y21470D01*
X9791Y21598D01*
X9781Y21715D01*
X9653Y21823D01*
X9546Y21695D01*
X10047Y24103D02*
X9907Y24090D01*
X9778Y23937D01*
X9790Y23796D01*
X9867Y23732D01*
X10008Y23744D01*
X10136Y23897D01*
X10277Y23910D01*
X10354Y23845D01*
X10366Y23705D01*
X10237Y23551D01*
X10097Y23539D01*
X10099Y24320D02*
X10559Y23934D01*
X10534Y24216D01*
X10816Y24241D01*
X10356Y24626D01*
X10944Y24394D02*
X11073Y24547D01*
X11009Y24470D01*
X10549Y24856D01*
X10561Y24715D01*
X12938Y25191D02*
X12555Y25512D01*
X12715Y25704D01*
X12833Y25714D01*
X12960Y25607D01*
X12971Y25489D01*
X12810Y25298D01*
X13037Y26087D02*
X12930Y25959D01*
X12940Y25842D01*
X13195Y25627D01*
X13313Y25638D01*
X13420Y25765D01*
X13409Y25883D01*
X13154Y26097D01*
X13037Y26087D01*
X13475Y26480D02*
X13358Y26469D01*
X13251Y26342D01*
X13261Y26224D01*
X13325Y26171D01*
X13442Y26181D01*
X13549Y26309D01*
X13667Y26319D01*
X13731Y26265D01*
X13741Y26148D01*
X13634Y26021D01*
X13516Y26010D01*
X24285Y3142D02*
X24320Y3339D01*
X24302Y3240D01*
X23810Y3327D01*
X23729Y3443D01*
X23746Y3541D01*
X23862Y3622D01*
X23590Y2655D02*
X23659Y3049D01*
X23984Y2586D01*
X24082Y2568D01*
X24198Y2649D01*
X24233Y2846D01*
X24152Y2962D01*
X28614Y10045D02*
X28730Y10126D01*
X28765Y10323D01*
X28684Y10439D01*
X28585Y10456D01*
X28470Y10375D01*
X28435Y10178D01*
X28319Y10097D01*
X28221Y10115D01*
X28139Y10231D01*
X28174Y10427D01*
X28290Y10509D01*
X28678Y9831D02*
X28609Y9437D01*
X28643Y9634D01*
X28053Y9738D01*
X27983Y9345D02*
X28574Y9240D01*
X28342Y9078D01*
X28505Y8847D01*
X27914Y8951D01*
X28371Y8667D02*
X28452Y8551D01*
X28418Y8354D01*
X28302Y8273D01*
X28203Y8291D01*
X28122Y8406D01*
X28140Y8505D01*
X28122Y8406D01*
X28007Y8325D01*
X27908Y8343D01*
X27827Y8458D01*
X27862Y8655D01*
X27978Y8736D01*
X27705Y7769D02*
X27775Y8163D01*
X28099Y7700D01*
X28198Y7683D01*
X28314Y7764D01*
X28348Y7961D01*
X28267Y8076D01*
X28261Y7468D02*
X27671Y7572D01*
X27601Y7179D01*
X27515Y6686D02*
X28105Y6582D01*
X27862Y6930D01*
X27793Y6536D01*
X27955Y6304D02*
X28036Y6188D01*
X28001Y5992D01*
X27885Y5910D01*
X27787Y5928D01*
X27706Y6044D01*
X27723Y6142D01*
X27706Y6044D01*
X27590Y5963D01*
X27491Y5980D01*
X27410Y6096D01*
X27445Y6293D01*
X27561Y6374D01*
X27289Y5407D02*
X27358Y5800D01*
X27683Y5337D01*
X27781Y5320D01*
X27897Y5401D01*
X27932Y5598D01*
X27851Y5714D01*
X27845Y5106D02*
X27254Y5210D01*
X27451Y5175D01*
X27775Y4712D01*
X27532Y5059D01*
X27185Y4816D01*
X27573Y4138D02*
X27689Y4219D01*
X27723Y4416D01*
X27642Y4532D01*
X27248Y4602D01*
X27133Y4521D01*
X27098Y4324D01*
X27179Y4208D01*
X27961Y12191D02*
X27469Y12278D01*
X27353Y12197D01*
X27318Y12000D01*
X27399Y11884D01*
X27892Y11797D01*
X27266Y11705D02*
X27231Y11508D01*
X27249Y11606D01*
X27839Y11502D01*
X27758Y11618D01*
X25963Y12614D02*
X25998Y12811D01*
X25980Y12713D01*
X25488Y12799D01*
X25407Y12915D01*
X25424Y13014D01*
X25540Y13095D01*
X25338Y12521D02*
X25303Y12325D01*
X25320Y12423D01*
X25911Y12319D01*
X25830Y12435D01*
X20615Y33464D02*
X20586Y33602D01*
X20418Y33711D01*
X20280Y33682D01*
X20062Y33347D01*
X20091Y33208D01*
X20259Y33099D01*
X20397Y33129D01*
X20506Y33296D01*
X20339Y33405D01*
X20511Y32936D02*
X20837Y33439D01*
X20846Y32718D01*
X21173Y33221D01*
X21340Y33112D02*
X21014Y32609D01*
X21265Y32446D01*
X21403Y32475D01*
X21621Y32811D01*
X21592Y32949D01*
X21340Y33112D01*
X19790Y32927D02*
X19572Y32592D01*
X19631Y32315D01*
X19907Y32374D01*
X20125Y32709D01*
X20574Y32299D02*
X20544Y32437D01*
X20376Y32546D01*
X20238Y32517D01*
X20020Y32181D01*
X20050Y32043D01*
X20217Y31934D01*
X20356Y31963D01*
X21077Y31972D02*
X21047Y32110D01*
X20879Y32219D01*
X20741Y32190D01*
X20523Y31855D01*
X20553Y31716D01*
X20721Y31607D01*
X20859Y31637D01*
X18918Y31585D02*
X19245Y32088D01*
X19304Y31812D01*
X19580Y31871D01*
X19254Y31368D01*
X19748Y31762D02*
X19916Y31653D01*
X19832Y31707D01*
X19505Y31204D01*
X19421Y31259D01*
X19589Y31150D01*
X20448Y31188D02*
X20419Y31326D01*
X20251Y31435D01*
X20113Y31406D01*
X20058Y31322D01*
X20088Y31184D01*
X20255Y31075D01*
X20285Y30936D01*
X20230Y30852D01*
X20092Y30823D01*
X19924Y30932D01*
X19895Y31070D01*
X20922Y30999D02*
X20754Y31108D01*
X20616Y31079D01*
X20398Y30744D01*
X20427Y30605D01*
X20595Y30496D01*
X20733Y30526D01*
X20951Y30861D01*
X20922Y30999D01*
X18374Y30747D02*
X18700Y31250D01*
X18759Y30973D01*
X19036Y31032D01*
X18709Y30529D01*
X19455Y30760D02*
X19287Y30869D01*
X19149Y30839D01*
X18931Y30504D01*
X18961Y30366D01*
X19128Y30257D01*
X19266Y30286D01*
X19484Y30621D01*
X19455Y30760D01*
X19987Y30295D02*
X19958Y30433D01*
X19790Y30542D01*
X19652Y30513D01*
X19597Y30429D01*
X19627Y30290D01*
X19795Y30182D01*
X19824Y30043D01*
X19770Y29959D01*
X19631Y29930D01*
X19464Y30039D01*
X19434Y30177D01*
X20209Y30270D02*
X20377Y30161D01*
X20293Y30215D01*
X19967Y29712D01*
X19883Y29767D01*
X20050Y29658D01*
X18437Y30109D02*
X18407Y30248D01*
X18240Y30357D01*
X18101Y30327D01*
X18047Y30243D01*
X18076Y30105D01*
X18244Y29996D01*
X18273Y29858D01*
X18219Y29774D01*
X18081Y29745D01*
X17913Y29854D01*
X17883Y29992D01*
X18940Y29783D02*
X18910Y29921D01*
X18743Y30030D01*
X18604Y30001D01*
X18386Y29665D01*
X18416Y29527D01*
X18584Y29418D01*
X18722Y29447D01*
X19162Y29758D02*
X18835Y29255D01*
X18944Y29422D01*
X19497Y29540D01*
X19082Y29452D01*
X19170Y29037D01*
X17892Y29271D02*
X17863Y29409D01*
X17695Y29518D01*
X17557Y29489D01*
X17339Y29153D01*
X17368Y29015D01*
X17536Y28906D01*
X17674Y28935D01*
X18395Y28944D02*
X18366Y29082D01*
X18198Y29191D01*
X18060Y29162D01*
X18005Y29078D01*
X18035Y28940D01*
X18202Y28831D01*
X18232Y28693D01*
X18177Y28609D01*
X18039Y28579D01*
X17871Y28688D01*
X17842Y28826D01*
X7763Y24764D02*
X7711Y24958D01*
X7589Y25028D01*
X7396Y24976D01*
X7325Y24854D01*
X7377Y24661D01*
X7499Y24590D01*
X7692Y24642D01*
X7763Y24764D01*
X17972Y35225D02*
X18140Y35116D01*
X18278Y35145D01*
X18387Y35313D01*
X18358Y35451D01*
X18190Y35560D01*
X18052Y35531D01*
X17943Y35363D01*
X17972Y35225D01*
X33638Y9050D02*
G03*
X24795Y15065I-5660J1187D01*
G01*
X25050Y21050D02*
G03*
X33638Y27050I2891J5008D01*
G01*
X18050Y21050D02*
G03*
X18050Y15050I0J-3000D01*
G01*
X33638Y27050D02*
G03*
X33638Y9050I-15588J-9000D01*
G01*
X18100Y15050D02*
X24805D01*
X18050Y21050D02*
X25050D01*
D11*
X24737Y12043D02*
G03*
X24737Y12043I-39J0D01*
G01*
D12*
X7234Y7418D02*
X8501Y14607D01*
X7234Y7418D02*
X26732Y3980D01*
X8501Y14607D02*
X28000Y11169D01*
X26732Y3980D02*
X28000Y11169D01*
D13*
X19474Y36113D02*
D03*
X19306Y36222D02*
D03*
M02*
